/* XPM */
static char *result[] = {
/* columns rows colors chars-per-pixel */
"64 64 9 1 ",
"  c #282828",
". c #C83010",
"X c #B04038",
"o c #D85800",
"O c #F87030",
"+ c #F8A828",
"@ c #F8C820",
"# c #F8F8F8",
"$ c None",
/* pixels */
"$$$$$$$$$$$$$$$$$$$$$$$$                $$$$$$$$$$$$$$$$$$$$$$$$",
"$$$$$$$$$$$$$$$$$$$$$$$$                $$$$$$$$$$$$$$$$$$$$$$$$",
"$$$$$$$$$$$$$$$$$$      ................      $$$$$$$$$$$$$$$$$$",
"$$$$$$$$$$$$$$$$$$      ................      $$$$$$$$$$$$$$$$$$",
"$$$$$$$$$$$$$$    ........OOOOOOOOOOOO........    $$$$$$$$$$$$$$",
"$$$$$$$$$$$$$$    ........OOOOOOOOOOOO........    $$$$$$$$$$$$$$",
"$$$$$$$$$$$$  ......OOOOOOOOOOOOOOOOOOOOOOOO......  $$$$$$$$$$$$",
"$$$$$$$$$$$$  ......OOOOOOOOOOOOOOOOOOOOOOOO......  $$$$$$$$$$$$",
"$$$$$$$$$$  ....OOOOOOOOOO@@@@@@@@@@@@OOOOOOOOOO....  $$$$$$$$$$",
"$$$$$$$$$$  ....OOOOOOOOOO@@@@@@@@@@@@OOOOOOOOOO....  $$$$$$$$$$",
"$$$$$$$$  ....OOOOOOOO@@@@@@@@@@@@@@@@@@@@OOOOOOOO....  $$$$$$$$",
"$$$$$$$$  ....OOOOOOOO@@@@@@@@@@@@@@@@@@@@OOOOOOOO....  $$$$$$$$",
"$$$$$$$$  ..OOOOOOOO@@@@@@@@########@@@@@@@@OOOOOOOO..  $$$$$$$$",
"$$$$$$$$  ..OOOOOOOO@@@@@@@@########@@@@@@@@OOOOOOOO..  $$$$$$$$",
"$$$$$$  ....OOOOOO@@@@@@@@############@@@@@@@@OOOOOO....  $$$$$$",
"$$$$$$  ....OOOOOO@@@@@@@@############@@@@@@@@OOOOOO....  $$$$$$",
"$$$$$$  ..OOOOOOOO@@@@@@@@##@@@@@@@@##@@@@@@@@OOOOOOOO..  $$$$$$",
"$$$$$$  ..OOOOOOOO@@@@@@@@##@@@@@@@@##@@@@@@@@OOOOOOOO..  $$$$$$",
"$$$$  ....OOOOOOOO@@@@@@@@@@@@@@@@@@@@@@@@@@@@OOOOOOOO....  $$$$",
"$$$$  ....OOOOOOOO@@@@@@@@@@@@@@@@@@@@@@@@@@@@OOOOOOOO....  $$$$",
"$$$$  ..OOOOOOOOOO@@@@@@@@@@@@@@@@@@@@@@@@@@@@OOOOOOOOOO..  $$$$",
"$$$$  ..OOOOOOOOOO@@@@@@@@@@@@@@@@@@@@@@@@@@@@OOOOOOOOOO..  $$$$",
"$$$$  ..OOOOOOOOOOOO@@@@@@OOOOOOOOOOOO@@@@@@OOOOOOOOOOOO..  $$$$",
"$$$$  ..OOOOOOOOOOOO@@@@@@OOOOOOOOOOOO@@@@@@OOOOOOOOOOOO..  $$$$",
"$$$$  ..OOOOOOOOOOOOOOOOOOOOOOOOOOOOOOOOOOOOOOOOOOOOOOOO..  $$$$",
"$$$$  ..OOOOOOOOOOOOOOOOOOOOOOOOOOOOOOOOOOOOOOOOOOOOOOOO..  $$$$",
"$$  ....OOOOOOOOOOOOOO@@@@            @@@@OOOOOOOOOOOOOO....  $$",
"$$  ....OOOOOOOOOOOOOO@@@@            @@@@OOOOOOOOOOOOOO....  $$",
"$$  ....OOOOOOOO@@....    ............    ....@@OOOOOOOO....  $$",
"$$  ....OOOOOOOO@@....    ............    ....@@OOOOOOOO....  $$",
"$$  ....OO@@........  ....OOOOOOOOOOOO....  ........@@OO....  $$",
"$$  ....OO@@........  ....OOOOOOOOOOOO....  ........@@OO....  $$",
"$$  ....@@..OO....  ..OOOOOO@@@@@@@@OOOOOO..  ....OO..@@....  $$",
"$$  ....@@..OO....  ..OOOOOO@@@@@@@@OOOOOO..  ....OO..@@....  $$",
"$$$$  ....OOOOOOOO  ..OO@@@@@@@@@@@@@@@@OO..  OOOOOOOO....  $$$$",
"$$$$  ....OOOOOOOO  ..OO@@@@@@@@@@@@@@@@OO..  OOOOOOOO....  $$$$",
"$$    ....OOOOOO  ..OO@@@@@@##@@@@##@@@@@@OO..  OOOOOO....    $$",
"$$    ....OOOOOO  ..OO@@@@@@##@@@@##@@@@@@OO..  OOOOOO....    $$",
"  OO  ....OOOOOO  ..@@@@##@@        @@##@@@@..  OOOOOO....  OO  ",
"  OO  ....OOOOOO  ..@@@@##@@        @@##@@@@..  OOOOOO....  OO  ",
"  OO  ......OOOO    @@##@@  oooooooo  @@##@@    OOOO......  OO  ",
"  OO  ......OOOO    @@##@@  oooooooo  @@##@@    OOOO......  OO  ",
"  ....  ......OO    @@##  oooo++++oooo  ##@@    OO......  ....  ",
"  ....  ......OO    @@##  oooo++++oooo  ##@@    OO......  ....  ",
"$$    OO  ........  @@@@  oo++    ++oo  @@@@  ........  OO    $$",
"$$    OO  ........  @@@@  oo++    ++oo  @@@@  ........  OO    $$",
"$$$$  OOOO    ......  @@  oo++    ++oo  @@  ......    OOOO  $$$$",
"$$$$  OOOO    ......  @@  oo++    ++oo  @@  ......    OOOO  $$$$",
"$$$$  ..@@OO..........      oo++++oo      ..........OO@@..  $$$$",
"$$$$  ..@@OO..........      oo++++oo      ..........OO@@..  $$$$",
"$$$$$$  ..OO..@@OO........            ........OO@@..OO..  $$$$$$",
"$$$$$$  ..OO..@@OO........            ........OO@@..OO..  $$$$$$",
"$$$$$$  ....  OO@@##OO..@@OOOOOOOOOOOO@@..OO##@@OO  ....  $$$$$$",
"$$$$$$  ....  OO@@##OO..@@OOOOOOOOOOOO@@..OO##@@OO  ....  $$$$$$",
"$$$$$$$$      ..OOOOOO  OO@@@@####@@@@OO  OOOOOO..      $$$$$$$$",
"$$$$$$$$      ..OOOOOO  OO@@@@####@@@@OO  OOOOOO..      $$$$$$$$",
"$$$$$$$$$$$$$$  ......  ..XXXX@@@@XXXX..  ......  $$$$$$$$$$$$$$",
"$$$$$$$$$$$$$$  ......  ..XXXX@@@@XXXX..  ......  $$$$$$$$$$$$$$",
"$$$$$$$$$$$$$$$$      $$  ............  $$      $$$$$$$$$$$$$$$$",
"$$$$$$$$$$$$$$$$      $$  ............  $$      $$$$$$$$$$$$$$$$",
"$$$$$$$$$$$$$$$$$$$$$$$$$$            $$$$$$$$$$$$$$$$$$$$$$$$$$",
"$$$$$$$$$$$$$$$$$$$$$$$$$$            $$$$$$$$$$$$$$$$$$$$$$$$$$",
"$$$$$$$$$$$$$$$$$$$$$$$$$$$$$$$$$$$$$$$$$$$$$$$$$$$$$$$$$$$$$$$$",
"$$$$$$$$$$$$$$$$$$$$$$$$$$$$$$$$$$$$$$$$$$$$$$$$$$$$$$$$$$$$$$$$"
};
