/* XPM */
static char *result[] = {
/* columns rows colors chars-per-pixel */
"64 64 8 1 ",
"  c #282828",
". c #C83010",
"X c #D85800",
"o c #F87030",
"O c #F8A828",
"+ c #F8C820",
"@ c #F8F8F8",
"# c None",
/* pixels */
"################################################################",
"################################################################",
"########################                ########################",
"########################                ########################",
"##################      ................      ##################",
"##################      ................      ##################",
"##############    ........oooooooooooo........    ##############",
"##############    ........oooooooooooo........    ##############",
"############  ......oooooooo++++++++oooooooo......  ############",
"############  ......oooooooo++++++++oooooooo......  ############",
"##########  ....oooooooo++++++++++++++++oooooooo....  ##########",
"##########  ....oooooooo++++++++++++++++oooooooo....  ##########",
"##########  ..oooooooo++++++@@@@@@@@++++++oooooooo..  ##########",
"##########  ..oooooooo++++++@@@@@@@@++++++oooooooo..  ##########",
"########  ....oooooo++++++@@++++++++@@++++++oooooo....  ########",
"########  ....oooooo++++++@@++++++++@@++++++oooooo....  ########",
"########  ..oooooooo++++++++++++++++++++++++oooooooo..  ########",
"########  ..oooooooo++++++++++++++++++++++++oooooooo..  ########",
"######  ....oooooooo++++++++++++++++++++++++oooooooo....  ######",
"######  ....oooooooo++++++++++++++++++++++++oooooooo....  ######",
"######  ..oooooooooooo++++oooooooooooo++++oooooooooooo..  ######",
"######  ..oooooooooooo++++oooooooooooo++++oooooooooooo..  ######",
"######  ..oooooooooooooooooooooooooooooooooooooooooooo..  ######",
"######  ..oooooooooooooooooooooooooooooooooooooooooooo..  ######",
"######  ..oooooooooooooooooooooooooooooooooooooooooooo..  ######",
"######  ..oooooooooooooooooooooooooooooooooooooooooooo..  ######",
"####  ....oooooooooooooo++            ++oooooooooooooo....  ####",
"####  ....oooooooooooooo++            ++oooooooooooooo....  ####",
"####  ....oooooooooo..    ............    ..oooooooooo....  ####",
"####  ....oooooooooo..    ............    ..oooooooooo....  ####",
"####  ....oooo......  ....oooooooooooo....  ......oooo....  ####",
"####  ....oooo......  ....oooooooooooo....  ......oooo....  ####",
"####  ....oo......  ..oooooo++++++++oooooo..  ......oo....  ####",
"####  ....oo......  ..oooooo++++++++oooooo..  ......oo....  ####",
"######  ......oooo  ..oo++++++++++++++++oo..  oooo......  ######",
"######  ......oooo  ..oo++++++++++++++++oo..  oooo......  ######",
"####    ....oooo  ..oo++++++@@++++@@++++++oo..  oooo....    ####",
"####    ....oooo  ..oo++++++@@++++@@++++++oo..  oooo....    ####",
"##  oo  ....oooo  ..++++@@++        ++@@++++..  oooo....  oo  ##",
"##  oo  ....oooo  ..++++@@++        ++@@++++..  oooo....  oo  ##",
"##  oo  ....oooo    ++@@++  XXXXXXXX  ++@@++    oooo....  oo  ##",
"##  oo  ....oooo    ++@@++  XXXXXXXX  ++@@++    oooo....  oo  ##",
"##  ....  ....oo    ++@@  XXXXOOOOXXXX  @@++    oo....  ....  ##",
"##  ....  ....oo    ++@@  XXXXOOOOXXXX  @@++    oo....  ....  ##",
"####    ..  ......  ++++  XXOO    OOXX  ++++  ......  ..    ####",
"####    ..  ......  ++++  XXOO    OOXX  ++++  ......  ..    ####",
"######  oo..    ....  ++  XXOO    OOXX  ++  ....    ..oo  ######",
"######  oo..    ....  ++  XXOO    OOXX  ++  ....    ..oo  ######",
"######  ..oo..........      XXOOOOXX      ..........oo..  ######",
"######  ..oo..........      XXOOOOXX      ..........oo..  ######",
"########  ..++oooo++......            ......++oooo++..  ########",
"########  ..++oooo++......            ......++oooo++..  ########",
"########  ....  ..oooo  ++oooooooooooo++  oooo..  ....  ########",
"########  ....  ..oooo  ++oooooooooooo++  oooo..  ....  ########",
"##########      ......  ..oo++++++++oo..  ......      ##########",
"##########      ......  ..oo++++++++oo..  ......      ##########",
"################      ##  ............  ##      ################",
"################      ##  ............  ##      ################",
"##########################            ##########################",
"##########################            ##########################",
"################################################################",
"################################################################",
"################################################################",
"################################################################"
};
