/* XPM */
static char *result[] = {
/* columns rows colors chars-per-pixel */
"64 64 5 1 ",
"  c #282828",
". c #305030",
"X c #407048",
"o c #80A870",
"O c #C8D0A0",
/* pixels */
"                                                                ",
"                                                                ",
"  OOOOooooooooooooooooooooOOOO    OOOOooooooooooooooooooooOOOO  ",
"  OOOOooooooooooooooooooooOOOO    OOOOooooooooooooooooooooOOOO  ",
"  ooooOOooooooooooooooooOOooXX    ooooOOooooooooooooooooOOooXX  ",
"  ooooOOooooooooooooooooOOooXX    ooooOOooooooooooooooooOOooXX  ",
"  ooooooOOOOOOOOOOOOOOOOooXXXX    ooooooOOOOOOOOOOOOOOOOooXXXX  ",
"  ooooooOOOOOOOOOOOOOOOOooXXXX    ooooooOOOOOOOOOOOOOOOOooXXXX  ",
"  ooooooOOOOOOOOOOOOOOOOXXXXXX    ooooooOOOOOOOOOOOOOOOOXXXXXX  ",
"  ooooooOOOOOOOOOOOOOOOOXXXXXX    ooooooOOOOOOOOOOOOOOOOXXXXXX  ",
"  ooooooOOOOOOOOOOOOOOOOXXXXXX    ooooooOOOOOOOOOOOOOOOOXXXXXX  ",
"  ooooooOOOOOOOOOOOOOOOOXXXXXX    ooooooOOOOOOOOOOOOOOOOXXXXXX  ",
"  ooooooOOOOOOOOOOOOOOOOXXXXXX    ooooooOOOOOOOOOOOOOOOOXXXXXX  ",
"  ooooooOOOOOOOOOOOOOOOOXXXXXX    ooooooOOOOOOOOOOOOOOOOXXXXXX  ",
"  ooooooOOOOOOOOOOOOOOOOXXXXXX    ooooooOOOOOOOOOOOOOOOOXXXXXX  ",
"  ooooooOOOOOOOOOOOOOOOOXXXXXX    ooooooOOOOOOOOOOOOOOOOXXXXXX  ",
"  ooooooOOOOOOOOOOOOOOOOXXXXXX    ooooooOOOOOOOOOOOOOOOOXXXXXX  ",
"  ooooooOOOOOOOOOOOOOOOOXXXXXX    ooooooOOOOOOOOOOOOOOOOXXXXXX  ",
"  ooooooOOOOOOOOOOOOOOOOXXXXXX    ooooooOOOOOOOOOOOOOOOOXXXXXX  ",
"  ooooooOOOOOOOOOOOOOOOOXXXXXX    ooooooOOOOOOOOOOOOOOOOXXXXXX  ",
"  ooooooOOOOOOOOOOOOOOOOXXXXXX    ooooooOOOOOOOOOOOOOOOOXXXXXX  ",
"  ooooooOOOOOOOOOOOOOOOOXXXXXX    ooooooOOOOOOOOOOOOOOOOXXXXXX  ",
"  ooooOOooXXXXXXXXXXXXXXooXXXX    ooooOOooXXXXXXXXXXXXXXooXXXX  ",
"  ooooOOooXXXXXXXXXXXXXXooXXXX    ooooOOooXXXXXXXXXXXXXXooXXXX  ",
"  ooOOooXXXXXXXXXXXXXXXXXXooXX    ooOOooXXXXXXXXXXXXXXXXXXooXX  ",
"  ooOOooXXXXXXXXXXXXXXXXXXooXX    ooOOooXXXXXXXXXXXXXXXXXXooXX  ",
"  OOooXXXXXXXXXXXXXXXXXXXXXXoo    OOooXXXXXXXXXXXXXXXXXXXXXXoo  ",
"  OOooXXXXXXXXXXXXXXXXXXXXXXoo    OOooXXXXXXXXXXXXXXXXXXXXXXoo  ",
"  ............................    ............................  ",
"  ............................    ............................  ",
"                                                                ",
"                                                                ",
"                                                                ",
"                                                                ",
"  OOOOooooooooooooooooooooOOOO    OOOOooooooooooooooooooooOOOO  ",
"  OOOOooooooooooooooooooooOOOO    OOOOooooooooooooooooooooOOOO  ",
"  ooooOOooooooooooooooooOOooXX    ooooOOooooooooooooooooOOooXX  ",
"  ooooOOooooooooooooooooOOooXX    ooooOOooooooooooooooooOOooXX  ",
"  ooooooOOOOOOOOOOOOOOOOooXXXX    ooooooOOOOOOOOOOOOOOOOooXXXX  ",
"  ooooooOOOOOOOOOOOOOOOOooXXXX    ooooooOOOOOOOOOOOOOOOOooXXXX  ",
"  ooooooOOOOOOOOOOOOOOOOXXXXXX    ooooooOOOOOOOOOOOOOOOOXXXXXX  ",
"  ooooooOOOOOOOOOOOOOOOOXXXXXX    ooooooOOOOOOOOOOOOOOOOXXXXXX  ",
"  ooooooOOOOOOOOOOOOOOOOXXXXXX    ooooooOOOOOOOOOOOOOOOOXXXXXX  ",
"  ooooooOOOOOOOOOOOOOOOOXXXXXX    ooooooOOOOOOOOOOOOOOOOXXXXXX  ",
"  ooooooOOOOOOOOOOOOOOOOXXXXXX    ooooooOOOOOOOOOOOOOOOOXXXXXX  ",
"  ooooooOOOOOOOOOOOOOOOOXXXXXX    ooooooOOOOOOOOOOOOOOOOXXXXXX  ",
"  ooooooOOOOOOOOOOOOOOOOXXXXXX    ooooooOOOOOOOOOOOOOOOOXXXXXX  ",
"  ooooooOOOOOOOOOOOOOOOOXXXXXX    ooooooOOOOOOOOOOOOOOOOXXXXXX  ",
"  ooooooOOOOOOOOOOOOOOOOXXXXXX    ooooooOOOOOOOOOOOOOOOOXXXXXX  ",
"  ooooooOOOOOOOOOOOOOOOOXXXXXX    ooooooOOOOOOOOOOOOOOOOXXXXXX  ",
"  ooooooOOOOOOOOOOOOOOOOXXXXXX    ooooooOOOOOOOOOOOOOOOOXXXXXX  ",
"  ooooooOOOOOOOOOOOOOOOOXXXXXX    ooooooOOOOOOOOOOOOOOOOXXXXXX  ",
"  ooooooOOOOOOOOOOOOOOOOXXXXXX    ooooooOOOOOOOOOOOOOOOOXXXXXX  ",
"  ooooooOOOOOOOOOOOOOOOOXXXXXX    ooooooOOOOOOOOOOOOOOOOXXXXXX  ",
"  ooooOOooXXXXXXXXXXXXXXooXXXX    ooooOOooXXXXXXXXXXXXXXooXXXX  ",
"  ooooOOooXXXXXXXXXXXXXXooXXXX    ooooOOooXXXXXXXXXXXXXXooXXXX  ",
"  ooOOooXXXXXXXXXXXXXXXXXXooXX    ooOOooXXXXXXXXXXXXXXXXXXooXX  ",
"  ooOOooXXXXXXXXXXXXXXXXXXooXX    ooOOooXXXXXXXXXXXXXXXXXXooXX  ",
"  OOooXXXXXXXXXXXXXXXXXXXXXXoo    OOooXXXXXXXXXXXXXXXXXXXXXXoo  ",
"  OOooXXXXXXXXXXXXXXXXXXXXXXoo    OOooXXXXXXXXXXXXXXXXXXXXXXoo  ",
"  ............................    ............................  ",
"  ............................    ............................  ",
"                                                                ",
"                                                                "
};
