/* XPM */
static char *result[] = {
/* columns rows colors chars-per-pixel */
"64 64 4 1 ",
"  c black",
". c #004F08",
"X c #008F32",
"o c #45E082",
/* pixels */
"XXXXoo  ..XXXXXXoooo............oo......  ..      ....  ....    ",
"XXXXoo  ..XXXXXXoooo............oo......  ..      ....  ....    ",
"XXXXoo  ..XXXXXXoo..ooooooooXX..oo......  ooXX..  ....  ....    ",
"XXXXoo  ..XXXXXXoo..ooooooooXX..oo......  ooXX..  ....  ....    ",
"XXXXoo  ..XXXXXXooooXXXXXXXXXX..oo......  XX....  ....  ..  ....",
"XXXXoo  ..XXXXXXooooXXXXXXXXXX..oo......  XX....  ....  ..  ....",
"XXXXoo  ..XXXXXXooooXXXXXXXXXX..oo......  XX....  ....    ......",
"XXXXoo  ..XXXXXXooooXXXXXXXXXX..oo......  XX....  ....    ......",
"XXXXoo  ..XXXXXXooooXXXXXXXXXX..oo......  XX....  ....          ",
"XXXXoo  ..XXXXXXooooXXXXXXXXXX..oo......  XX....  ....          ",
"XXXXoo  ..XXXXXXooooXXXXXXXXXX..oo......  XX....  ..  ..........",
"XXXXoo  ..XXXXXXooooXXXXXXXXXX..oo......  XX....  ..  ..........",
"XXXXoo  ..XXXXXXooooXXXXXXXXXX..oo......  XX....    ............",
"XXXXoo  ..XXXXXXooooXXXXXXXXXX..oo......  XX....    ............",
"XXXXoo  ..XXXXXXooooXXXXXXXXXX..oo......  XX....                ",
"XXXXoo  ..XXXXXXooooXXXXXXXXXX..oo......  XX....                ",
"XXXXoo  ..XXXXXXooooXXXXXXXXXX..oo......  XX..  ..............  ",
"XXXXoo  ..XXXXXXooooXXXXXXXXXX..oo......  XX..  ..............  ",
"XXXXoo  ..XXXXXXooooXXXXXXXXXX..oo......  XX  ..............XX  ",
"XXXXoo  ..XXXXXXooooXXXXXXXXXX..oo......  XX  ..............XX  ",
"XXXXoo  ..XXXXXXooooXXXXXXXXXX..oo......  XXXXXXXXXXXXXXXXXXXX  ",
"XXXXoo  ..XXXXXXooooXXXXXXXXXX..oo......  XXXXXXXXXXXXXXXXXXXX  ",
"XXXXoo  ..XXXXXXooooXXXXXXXXXX..oo......                        ",
"XXXXoo  ..XXXXXXooooXXXXXXXXXX..oo......                        ",
"XXXXoo  ..XXXXXXooooXXXXXXXXXX..oo....  ........................",
"XXXXoo  ..XXXXXXooooXXXXXXXXXX..oo....  ........................",
"XXXXoo  ..XXXXXXooooXXXXXXXXXX..oo..  ..........................",
"XXXXoo  ..XXXXXXooooXXXXXXXXXX..oo..  ..........................",
"XXXXoo  ..XXXXXXooooXXXXXXXXXX..oo  ............................",
"XXXXoo  ..XXXXXXooooXXXXXXXXXX..oo  ............................",
"XXXXoo  ..XXXXXXooooXXXXXXXXXX..oooooooooooooooooooooooooooooooo",
"XXXXoo  ..XXXXXXooooXXXXXXXXXX..oooooooooooooooooooooooooooooooo",
"XXXXoo  ..XXXXXXooooXXXXXXXX....................................",
"XXXXoo  ..XXXXXXooooXXXXXXXX....................................",
"XXXXoo  ..XXXXXXooooXXXXXX..  ..XXXXXXXXXXXXXXXXXXXXXXXXXXXXXX..",
"XXXXoo  ..XXXXXXooooXXXXXX..  ..XXXXXXXXXXXXXXXXXXXXXXXXXXXXXX..",
"XXXXoo  ..XXXXXXooooXXXX..  ..XXXXXXXXXXXXXXXXXXXXXXXXXXXXXXoo..",
"XXXXoo  ..XXXXXXooooXXXX..  ..XXXXXXXXXXXXXXXXXXXXXXXXXXXXXXoo..",
"XXXXoo  ..XXXXXXooooXX..  ..XXXXXXXXXXXXXXXXXXXXXXXXXXXXXXXXoo..",
"XXXXoo  ..XXXXXXooooXX..  ..XXXXXXXXXXXXXXXXXXXXXXXXXXXXXXXXoo..",
"XXXXoo  ..XXXXXXoooo..  ..XXXXXXXXXXXXXXXXXXXXXXXXXXXXXXXXXXoo..",
"XXXXoo  ..XXXXXXoooo..  ..XXXXXXXXXXXXXXXXXXXXXXXXXXXXXXXXXXoo..",
"XXXXoo  ..XXXXXXoooo  ..XXXXXXXXXXXXXXXXXXXXXXXXXXXXXXXXXXXXoo..",
"XXXXoo  ..XXXXXXoooo  ..XXXXXXXXXXXXXXXXXXXXXXXXXXXXXXXXXXXXoo..",
"XXXXoo  ..XXXXXXooooooooooooooooooooooooooooooooooooooooooooXXoo",
"XXXXoo  ..XXXXXXooooooooooooooooooooooooooooooooooooooooooooXXoo",
"XXXXoo  ..XXXXXXoooooooooooooooooooooooooooooooooooooooooooooooo",
"XXXXoo  ..XXXXXXoooooooooooooooooooooooooooooooooooooooooooooooo",
"XXXXoo  ..XX..  XXXXXXXXXXXXXXXXXXXXXXXXXXXXXXXXXXXXXXXXXXXXXXXX",
"XXXXoo  ..XX..  XXXXXXXXXXXXXXXXXXXXXXXXXXXXXXXXXXXXXXXXXXXXXXXX",
"XXXXoo  ....  ..XXXXXXXXXXXXXXXXXXXXXXXXXXXXXXXXXXXXXXXXXXXXXXXX",
"XXXXoo  ....  ..XXXXXXXXXXXXXXXXXXXXXXXXXXXXXXXXXXXXXXXXXXXXXXXX",
"XXXXoo  ..  ..XXXXXXXXXXXXXXXXXXXXXXXXXXXXXXXXXXXXXXXXXXXXXXXXXX",
"XXXXoo  ..  ..XXXXXXXXXXXXXXXXXXXXXXXXXXXXXXXXXXXXXXXXXXXXXXXXXX",
"XXXXoo    ......................................................",
"XXXXoo    ......................................................",
"XXXXoo                                                          ",
"XXXXoo                                                          ",
"XXXX..oooooooooooooooooooooooooooooooooooooooooooooooooooooooooo",
"XXXX..oooooooooooooooooooooooooooooooooooooooooooooooooooooooooo",
"XXXXXXXXXXXXXXXXXXXXXXXXXXXXXXXXXXXXXXXXXXXXXXXXXXXXXXXXXXXXXXXX",
"XXXXXXXXXXXXXXXXXXXXXXXXXXXXXXXXXXXXXXXXXXXXXXXXXXXXXXXXXXXXXXXX",
"XXXXXXXXXXXXXXXXXXXXXXXXXXXXXXXXXXXXXXXXXXXXXXXXXXXXXXXXXXXXXXXX",
"XXXXXXXXXXXXXXXXXXXXXXXXXXXXXXXXXXXXXXXXXXXXXXXXXXXXXXXXXXXXXXXX"
};
