/* XPM */
static char *result[] = {
/* columns rows colors chars-per-pixel */
"64 64 4 1 ",
"  c black",
". c #004F08",
"X c #008F32",
"o c #45E082",
/* pixels */
"    ....  ....          ......oo............ooooXXXXXX..  ooXXXX",
"    ....  ....          ......oo............ooooXXXXXX..  ooXXXX",
"    ....  ....  ..XXXX  ......oo..XXooooooooXXooXXXXXX..  ooXXXX",
"    ....  ....  ..XXXX  ......oo..XXooooooooXXooXXXXXX..  ooXXXX",
"....  ..  ....  ....XX  ......oo..XXXXXXXXXXooooXXXXXX..  ooXXXX",
"....  ..  ....  ....XX  ......oo..XXXXXXXXXXooooXXXXXX..  ooXXXX",
"......    ....  ....XX  ......oo..XXXXXXXXXXooooXXXXXX..  ooXXXX",
"......    ....  ....XX  ......oo..XXXXXXXXXXooooXXXXXX..  ooXXXX",
"          ....  ....XX  ......oo..XXXXXXXXXXooooXXXXXX..  ooXXXX",
"          ....  ....XX  ......oo..XXXXXXXXXXooooXXXXXX..  ooXXXX",
"..........  ..  ....XX  ......oo..XXXXXXXXXXooooXXXXXX..  ooXXXX",
"..........  ..  ....XX  ......oo..XXXXXXXXXXooooXXXXXX..  ooXXXX",
"............    ....XX  ......oo..XXXXXXXXXXooooXXXXXX..  ooXXXX",
"............    ....XX  ......oo..XXXXXXXXXXooooXXXXXX..  ooXXXX",
"                ....XX  ......oo..XXXXXXXXXXooooXXXXXX..  ooXXXX",
"                ....XX  ......oo..XXXXXXXXXXooooXXXXXX..  ooXXXX",
"  ..............  ..XX  ......oo..XXXXXXXXXXooooXXXXXX..  ooXXXX",
"  ..............  ..XX  ......oo..XXXXXXXXXXooooXXXXXX..  ooXXXX",
"  XX..............  XX  ......oo..XXXXXXXXXXooooXXXXXX..  ooXXXX",
"  XX..............  XX  ......oo..XXXXXXXXXXooooXXXXXX..  ooXXXX",
"..ooXXXXXXXXXXXXXXXXXX  ......oo..XXXXXXXXXXooooXXXXXX..  ooXXXX",
"..ooXXXXXXXXXXXXXXXXXX  ......oo..XXXXXXXXXXooooXXXXXX..  ooXXXX",
"                        ......oo..XXXXXXXXXXooooXXXXXX..  ooXXXX",
"                        ......oo..XXXXXXXXXXooooXXXXXX..  ooXXXX",
"........................  ....oo..XXXXXXXXXXooooXXXXXX..  ooXXXX",
"........................  ....oo..XXXXXXXXXXooooXXXXXX..  ooXXXX",
"..........................  ..oo..XXXXXXXXXXooooXXXXXX..  ooXXXX",
"..........................  ..oo..XXXXXXXXXXooooXXXXXX..  ooXXXX",
"............................  oo..XXXXXXXXXXooooXXXXXX..  ooXXXX",
"............................  oo..XXXXXXXXXXooooXXXXXX..  ooXXXX",
"oooooooooooooooooooooooooooooooo..XXXXXXXXXXooooXXXXXX..  ooXXXX",
"oooooooooooooooooooooooooooooooo..XXXXXXXXXXooooXXXXXX..  ooXXXX",
"....................................XXXXXXXXooooXXXXXX..  ooXXXX",
"....................................XXXXXXXXooooXXXXXX..  ooXXXX",
"..XXXXXXXXXXXXXXXXXXXXXXXXXXXXXX..  ..XXXXXXooooXXXXXX..  ooXXXX",
"..XXXXXXXXXXXXXXXXXXXXXXXXXXXXXX..  ..XXXXXXooooXXXXXX..  ooXXXX",
"..ooXXXXXXXXXXXXXXXXXXXXXXXXXXXXXX..  ..XXXXooooXXXXXX..  ooXXXX",
"..ooXXXXXXXXXXXXXXXXXXXXXXXXXXXXXX..  ..XXXXooooXXXXXX..  ooXXXX",
"..ooXXXXXXXXXXXXXXXXXXXXXXXXXXXXXXXX..  ..XXooooXXXXXX..  ooXXXX",
"..ooXXXXXXXXXXXXXXXXXXXXXXXXXXXXXXXX..  ..XXooooXXXXXX..  ooXXXX",
"..ooXXXXXXXXXXXXXXXXXXXXXXXXXXXXXXXXXX..  ..ooooXXXXXX..  ooXXXX",
"..ooXXXXXXXXXXXXXXXXXXXXXXXXXXXXXXXXXX..  ..ooooXXXXXX..  ooXXXX",
"..ooXXXXXXXXXXXXXXXXXXXXXXXXXXXXXXXXXXXX..  ooooXXXXXX..  ooXXXX",
"..ooXXXXXXXXXXXXXXXXXXXXXXXXXXXXXXXXXXXX..  ooooXXXXXX..  ooXXXX",
"oo..ooooooooooooooooooooooooooooooooooooooooooooXXXXXX..  ooXXXX",
"oo..ooooooooooooooooooooooooooooooooooooooooooooXXXXXX..  ooXXXX",
"ooooooooooooooooooooooooooooooooooooooooooooooooXXXXXX..  ooXXXX",
"ooooooooooooooooooooooooooooooooooooooooooooooooXXXXXX..  ooXXXX",
"XXXXXXXXXXXXXXXXXXXXXXXXXXXXXXXXXXXXXXXXXXXXXXXX  ..XX..  ooXXXX",
"XXXXXXXXXXXXXXXXXXXXXXXXXXXXXXXXXXXXXXXXXXXXXXXX  ..XX..  ooXXXX",
"XXXXXXXXXXXXXXXXXXXXXXXXXXXXXXXXXXXXXXXXXXXXXXXX..  ....  ooXXXX",
"XXXXXXXXXXXXXXXXXXXXXXXXXXXXXXXXXXXXXXXXXXXXXXXX..  ....  ooXXXX",
"XXXXXXXXXXXXXXXXXXXXXXXXXXXXXXXXXXXXXXXXXXXXXXXXXX..  ..  ooXXXX",
"XXXXXXXXXXXXXXXXXXXXXXXXXXXXXXXXXXXXXXXXXXXXXXXXXX..  ..  ooXXXX",
"......................................................    ooXXXX",
"......................................................    ooXXXX",
"                                                          ooXXXX",
"                                                          ooXXXX",
"oooooooooooooooooooooooooooooooooooooooooooooooooooooooooo..XXXX",
"oooooooooooooooooooooooooooooooooooooooooooooooooooooooooo..XXXX",
"XXXXXXXXXXXXXXXXXXXXXXXXXXXXXXXXXXXXXXXXXXXXXXXXXXXXXXXXXXXXXXXX",
"XXXXXXXXXXXXXXXXXXXXXXXXXXXXXXXXXXXXXXXXXXXXXXXXXXXXXXXXXXXXXXXX",
"XXXXXXXXXXXXXXXXXXXXXXXXXXXXXXXXXXXXXXXXXXXXXXXXXXXXXXXXXXXXXXXX",
"XXXXXXXXXXXXXXXXXXXXXXXXXXXXXXXXXXXXXXXXXXXXXXXXXXXXXXXXXXXXXXXX"
};
