/* XPM */
static char *result[] = {
/* columns rows colors chars-per-pixel */
"104 144 24 1 ",
"  c black",
". c #480808",
"X c #4A0C0A",
"o c #681828",
"O c #383040",
"+ c #504C43",
"@ c #706060",
"# c #902038",
"$ c #A04010",
"% c #C36527",
"& c #C86828",
"* c #C03040",
"= c #F05868",
"- c #898377",
"; c #F89848",
": c #F07880",
"> c #AFA897",
", c #BFBCA6",
"< c #C0B0B0",
"1 c #FFDB86",
"2 c #E8D8D8",
"3 c #F8F8F8",
"4 c white",
"5 c None",
/* pixels */
"55555555555555555555555555555555555555555555555555555555555555555555555555555555555555555555555555555555",
"55555555555555555555555555555555555555555555555555555555555555555555555555555555555555555555555555555555",
"55555555555555555555555555555555555555555555555555555555555555555555555555555555555555555555555555555555",
"55555555555555555555555555555555555555555555555555555555555555555555555555555555555555555555555555555555",
"55555555555555555555555555555555555555555555555555555555555555555555555555555555555555555555555555555555",
"55555555555555555555555555555555555555555555555555555555555555555555555555555555555555555555555555555555",
"55555555555555555555555555555555555555555555555555555555555555555555555555555555555555555555555555555555",
"55555555555555555555555555555555555555555555555555555555555555555555555555555555555555555555555555555555",
"55555555555555555555555555555555555555555555555555555555555555555555555555555555555555555555555555555555",
"55555555555555555555555555555555555555555555555555555555555555555555555555555555555555555555555555555555",
"55555555555555555555555555555555555555555555555555555555555555555555555555555555555555555555555555555555",
"55555555555555555555555555555555555555555555555555555555555555555555555555555555555555555555555555555555",
"55555555555555555555555555555555555555555555555555555555555555555555555555555555555555555555555555555555",
"55555555555555555555555555555555555555555555555555555555555555555555555555555555555555555555555555555555",
"55555555555555555555555555555555555555555555555555555555555555555555555555555555555555555555555555555555",
"55555555555555555555555555555555555555555555555555555555555555555555555555555555555555555555555555555555",
"55555555555555555555555555555555555555555555555555555555555555555555555555555555555555555555555555555555",
"55555555555555555555555555555555555555555555555555555555555555555555555555555555555555555555555555555555",
"55555555555555555555555555555555555555555555555555555555555555555555555555555555555555555555555555555555",
"55555555555555555555555555555555555555555555555555555555555555555555555555555555555555555555555555555555",
"55555555555555555555555555555555555555555555555555555555555555555555555555555555555555555555555555555555",
"55555555555555555555555555555555555555555555555555555555555555555555555555555555555555555555555555555555",
"55555555555555555555555555555555555555555555555555555555555555555555555555555555555555555555555555555555",
"55555555555555555555555555555555555555555555555555555555555555555555555555555555555555555555555555555555",
"55555555555555555555555555555555555555555555555555555555555555555555555555555555555555555555555555555555",
"55555555555555555555555555555555555555555555555555555555555555555555555555555555555555555555555555555555",
"55555555555555555555555555555555555555555555555555555555555555555555555555555555555555555555555555555555",
"55555555555555555555555555555555555555555555555555555555555555555555555555555555555555555555555555555555",
"55555555555555555555555555555555555555555555555555555555555555555555555555555555555555555555555555555555",
"55555555555555555555555555555555555555555555555555555555555555555555555555555555555555555555555555555555",
"55555555555555555555555555555555555555555555555555555555555555555555555555555555555555555555555555555555",
"55555555555555555555555555555555555555555555555555555555555555555555555555555555555555555555555555555555",
"55555555555555555555555555555555555555555555555555555555555555555555555555555555555555555555555555555555",
"55555555555555555555555555555555555555555555555555555555555555555555555555555555555555555555555555555555",
"55555555555555555555555555555555555555555555555555555555555555555555555555555555555555555555555555555555",
"55555555555555555555555555555555555555555555555555555555555555555555555555555555555555555555555555555555",
"55555555555555555555555555555555555555555555555555555555555555555555555555555555555555555555555555555555",
"55555555555555555555555555555555555555555555555555555555555555555555555555555555555555555555555555555555",
"55555555555555555555555555555555555555555555555555555555555555555555555555555555555555555555555555555555",
"55555555555555555555555555555555555555555555555555555555555555555555555555555555555555555555555555555555",
"55555555555555555555555555555555555555555555555555555555555555555555555555555555555555555555555555555555",
"55555555555555555555555555555555555555555555555555555555555555555555555555555555555555555555555555555555",
"55555555555555555555555555555555555555555555555555555555555555555555555555555555555555555555555555555555",
"55555555555555555555555555555555555555555555555555555555555555555555555555555555555555555555555555555555",
"55555555555555555555555555555555555555555555555555555555555555555555555555555555555555555555555555555555",
"55555555555555555555555555555555555555555555555555555555555555555555555555555555555555555555555555555555",
"55555555555555555555555555555555555555555555555555555555555555555555555555555555555555555555555555555555",
"55555555555555555555555555555555555555555555555555555555555555555555555555555555555555555555555555555555",
"55555555555555555555555555555555555555555555555555555555555555555555555555555555555555555555555555555555",
"55555555555555555555555555555555555555555555555555555555555555555555555555555555555555555555555555555555",
"55555555555555555555555555555555555555555555555555555555555555555555555555555555555555555555555555555555",
"55555555555555555555555555555555555555555555555555555555555555555555555555555555555555555555555555555555",
"55555555555555555555555555555555555555555555555555555555555555555555555555555555555555555555555555555555",
"55555555555555555555555555555555555555555555555555555555555555555555555555555555555555555555555555555555",
"55555555555555555555555555555555555555555555555555555555555555555555555555555555555555555555555555555555",
"55555555555555555555555555555555555555555555555555555555555555555555555555555555555555555555555555555555",
"55555555555555555555555555555555555555555555555555555555555555555555555555555555555555555555555555555555",
"55555555555555555555555555555555555555555555555555555555555555555555555555555555555555555555555555555555",
"55555555555555555555555555555555555555555555555555555555555555555555555555555555555555555555555555555555",
"55555555555555555555555555555555555555555555555555555555555555555555555555555555555555555555555555555555",
"55555555555555555555555555555555555555555555555555555555555555555555555555555555555555555555555555555555",
"55555555555555555555555555555555555555555555555555555555555555555555555555555555555555555555555555555555",
"55555555555555555555555555555555555555555555555555555555555555555555555555555555555555555555555555555555",
"55555555555555555555555555555555555555555555555555555555555555555555555555555555555555555555555555555555",
"55555555555555555555555555555555555555555555555555555555555555555555555555555555555555555555555555555555",
"55555555555555555555555555555555555555555555555555555555555555555555555555555555555555555555555555555555",
"55555555555555555555555555555555555555555555555555555555555555555555555555555555555555555555555555555555",
"55555555555555555555555555555555555555555555555555555555555555555555555555555555555555555555555555555555",
"5555555555555555555555555555555555oo5555555555555555555555555555oo55555555555555555555555555555555555555",
"5555555555555555555555555555555555oo5555555555555555555555555555oo55555555555555555555555555555555555555",
"55555555555555555555555555555555**oo5555555555555555555555555555oo**555555555555555555555555555555555555",
"55555555555555555555555555555555**oo5555555555555555555555555555oo**555555555555555555555555555555555555",
"555555555555555555555555555555oo::oo5555555555555555555555555555oo::oo5555555555555555555555555555555555",
"555555555555555555555555555555oo::oo5555555555555555555555555555oo::oo5555555555555555555555555555555555",
"5555555555555555555555555555oo**::oo555555oooo********oooo555555oo::**oo55555555555555555555555555555555",
"5555555555555555555555555555oo**::oo555555oooo********oooo555555oo::**oo55555555555555555555555555555555",
"5555555555555555555555555555oo**==oo5555oo****************oo5555oo==**oo55555555555555555555555555555555",
"5555555555555555555555555555oo**==oo5555oo****************oo5555oo==**oo55555555555555555555555555555555",
"55555555555555555555555555oo****==##oo  ****============****  oo##==****oo555555555555555555555555555555",
"55555555555555555555555555oo****==##oo  ****============****  oo##==****oo555555555555555555555555555555",
"55555555555555555555555555@@****==::##oo**======::::======**oo##::==****oo555555555555555555555555555555",
"55555555555555555555555555@@****==::##oo**======::::======**oo##::==****oo555555555555555555555555555555",
"55555555555555555555555555<<******==::oo**====::::33::====**oo::==******oo555555555555555555555555555555",
"55555555555555555555555555<<******==::oo**====::::33::====**oo::==******oo555555555555555555555555555555",
"555555555555555555555555@@22@@******  ******==::::::::==****##  ******oo  555555555555555555555555555555",
"555555555555555555555555@@22@@******  ******==::::::::==****##  ******oo  555555555555555555555555555555",
"555555555555555555555555<<33<<oo****  ******====::::====****##  ****oo  55555555555555555555555555555555",
"555555555555555555555555<<33<<oo****  ******====::::====****##  ****oo  55555555555555555555555555555555",
"555555555555555555555555<<33<<  oooo  ******============******  oooo  5555555555555555555555555555555555",
"555555555555555555555555<<33<<  oooo  ******============******  oooo  5555555555555555555555555555555555",
"555555555555555555555555<<33<<55    oo****==**==;;;;==**==****oo    555555555555555555555555555555555555",
"555555555555555555555555<<33<<55    oo****==**==;;;;==**==****oo    555555555555555555555555555555555555",
"5555555555555555555555@@223322@@  oo##**==::==**4444**==::==**##oo  555555555555555555555555555555555555",
"5555555555555555555555@@223322@@  oo##**==::==**4444**==::==**##oo  555555555555555555555555555555555555",
"5555555555555555555555<<223333<<  ##**::**;;::==1111==::;;**::**##            55555555555555555555555555",
"5555555555555555555555<<223333<<  ##**::**;;::==1111==::;;**::**##            55555555555555555555555555",
"55555555555555555555  <<223333<<  ##**::==11;;********;;11==::####  ..$$&&;;;;  555555555555555555555555",
"55555555555555555555  <<223333<<  ##**::==11;;********;;11==::####  ..$$&&;;;;  555555555555555555555555",
"555555555555555555  ;;<<223333<<  oo##**::==11**====**11==::**##oo  $$&&;;1111;;  5555555555555555555555",
"555555555555555555  ;;<<223333<<  oo##**::==11**====**11==::**##oo  $$&&;;1111;;  5555555555555555555555",
"555555555555555555  ;;<<22333322  oooo##******==    ==******##oooo  ..$$&&;;11;;  5555555555555555555555",
"555555555555555555  ;;<<22333322  oooo##******==    ==******##oooo  ..$$&&;;11;;  5555555555555555555555",
"555555555555555555  @@2222223333@@  oooo####**==    ==**####oooo      ..$$&&&&$$  5555555555555555555555",
"555555555555555555  @@2222223333@@  oooo####**==    ==**####oooo      ..$$&&&&$$  5555555555555555555555",
"555555555555555555  <<2222<<3333<<      oooo==        ==oooo    oo        ......  5555555555555555555555",
"555555555555555555  <<2222<<3333<<      oooo==        ==oooo    oo        ......  5555555555555555555555",
"555555555555555555  <<2222@@3333<<    oo    oo::    ::oo    &&&&&&$$$$$$$$$$$$$$555555555555555555555555",
"555555555555555555  <<2222@@3333<<    oo    oo::    ::oo    &&&&&&$$$$$$$$$$$$$$555555555555555555555555",
"555555555555555555....22<<@@<<33....==**oooo    oooo    &&;;111111111111111111;;$$5555555555555555555555",
"555555555555555555....22<<@@<<33....==**oooo    oooo    &&;;111111111111111111;;$$5555555555555555555555",
"555555555555555555..&&..@@3322..&&..oo**====****oooo**oo&&11;;;;;;;;;;;;;;;;;;;;$$5555555555555555555555",
"555555555555555555..&&..@@3322..&&..oo**====****oooo**oo&&11;;;;;;;;;;;;;;;;;;;;$$5555555555555555555555",
"555555555555555555....&&......;;....**==::::====****==::&&;;&&&&&&&&&&&&&&&&&&;;$$5555555555555555555555",
"555555555555555555....&&......;;....**==::::====****==::&&;;&&&&&&&&&&&&&&&&&&;;$$5555555555555555555555",
"555555555555555555oo..$$&&;;;;$$..  oo****==::==oooo====$$&&                  &&$$5555555555555555555555",
"555555555555555555oo..$$&&;;;;$$..  oo****==::==oooo====$$&&                  &&$$5555555555555555555555",
"555555555555555555  oo....$$$$..oo        **==**    **==$$&&  ..    ..    ..  %%XX5555555555555555555555",
"555555555555555555  oo....$$$$..oo        **==**    **==$$&&  ..    ..    ..  %%XX5555555555555555555555",
"5555>>,,,,,,>>5555  oooooo....::**  oooooo              $$&&  &&    $$    &&  &&..55555555>>,,,,,,>>5555",
"5555>>,,,,,,>>5555  oooooo....::**  oooooo              $$&&  &&    $$    &&  &&..55555555>>,,,,,,>>5555",
"55>>,,,,,,,,,,,,>>  **::::==**oo**  **==**  oo        oo$$&&  ;;  ..&&..  ;;  &&..5555>>,,,,,,,,,,,,>>55",
"55>>,,,,,,,,,,,,>>  **::::==**oo**  **==**  oo        oo$$&&  ;;  ..&&..  ;;  &&..5555>>,,,,,,,,,,,,>>55",
">>,,,,,,,,,,,,,,,,>>  ==::::::oooo  ****==  ::::====::::..$$  11&&;;11;;&&11  $$..55>>,,,,,,,,,,,,,,,,>>",
">>,,,,,,,,,,,,,,,,>>  ==::::::oooo  ****==  ::::====::::..$$  11&&;;11;;&&11  $$..55>>,,,,,,,,,,,,,,,,>>",
">>,,,,,,,,>>--,,,,>>55  ======oo  oooooooo  ==::    ::==..$$  &&..  $$  ..&&  $$..55>>,,,,-->>,,,,,,,,>>",
">>,,,,,,,,>>--,,,,>>55  ======oo  oooooooo  ==::    ::==..$$  &&..  $$  ..&&  $$..55>>,,,,-->>,,,,,,,,>>",
"-->>,,,,,,,,--,,>>>>55          OO      oo  **==::::==**..&&      ;;11;;      &&..55>>>>,,--,,,,,,,,>>--",
"-->>,,,,,,,,--,,>>>>55          OO      oo  **==::::==**..&&      ;;11;;      &&..55>>>>,,--,,,,,,,,>>--",
"++>>>>>>>>>>-->>>>--55  ......      ....    oo**====**oo..&&  ;;..  ;;  ..;;  &&..55-->>>>-->>>>>>>>>>++",
"++>>>>>>>>>>-->>>>--55  ......      ....    oo**====**oo..&&  ;;..  ;;  ..;;  &&..55-->>>>-->>>>>>>>>>++",
"++++++++---->>>>>>++55  $$&&..    ..$$$$$$  oo********oo..;;  $$&&  &&  &&$$  ;;..55++>>>>>>----++++++++",
"++++++++---->>>>>>++55  $$&&..    ..$$$$$$  oo********oo..;;  $$&&  &&  &&$$  ;;..55++>>>>>>----++++++++",
"55++-->>>>>>>>>>>>,,++55  ..      $$&&;;;;    oo****oo    ..;;      ..      ;;..  ++,,>>>>>>>>>>>>--++55",
"55++-->>>>>>>>>>>>,,++55  ..      $$&&;;;;    oo****oo    ..;;      ..      ;;..  ++,,>>>>>>>>>>>>--++55",
"555555++>>>>---->>>>,,++55555555  $$$$&&$$$$    oooo        ..;;;;$$$$$$;;;;..  ++,,>>>>---->>>>++555555",
"555555++>>>>---->>>>,,++55555555  $$$$&&$$$$    oooo        ..;;;;$$$$$$;;;;..  ++,,>>>>---->>>>++555555",
"55555555++++++++++++++++++555555  ..$$$$..  5555    5555      ....      ....  ++++++++++++++++++55555555",
"55555555++++++++++++++++++555555  ..$$$$..  5555    5555      ....      ....  ++++++++++++++++++55555555",
"55555555555555555555555555555555          5555555555555555          5555      55555555555555555555555555",
"55555555555555555555555555555555          5555555555555555          5555      55555555555555555555555555",
"55555555555555555555555555555555555555555555555555555555555555555555555555555555555555555555555555555555",
"55555555555555555555555555555555555555555555555555555555555555555555555555555555555555555555555555555555",
"55555555555555555555555555555555555555555555555555555555555555555555555555555555555555555555555555555555",
"55555555555555555555555555555555555555555555555555555555555555555555555555555555555555555555555555555555"
};
