/* XPM */
static char *result[] = {
/* columns rows colors chars-per-pixel */
"104 144 22 1 ",
"  c black",
". c #480808",
"X c #681828",
"o c #383040",
"O c #504C43",
"+ c #706060",
"@ c #902038",
"# c #A04010",
"$ c #C86828",
"% c #C03040",
"& c #F05868",
"* c #898377",
"= c #F89848",
"- c #F07880",
"; c #AFA897",
": c #BFBCA6",
"> c #C0B0B0",
", c #FFDB86",
"< c #E8D8D8",
"1 c #F8F8F8",
"2 c white",
"3 c None",
/* pixels */
"33333333333333333333333333333333333333333333333333333333333333333333333333333333333333333333333333333333",
"33333333333333333333333333333333333333333333333333333333333333333333333333333333333333333333333333333333",
"33333333333333333333333333333333333333333333333333333333333333333333333333333333333333333333333333333333",
"33333333333333333333333333333333333333333333333333333333333333333333333333333333333333333333333333333333",
"33333333333333333333333333333333333333333333333333333333333333333333333333333333333333333333333333333333",
"33333333333333333333333333333333333333333333333333333333333333333333333333333333333333333333333333333333",
"33333333333333333333333333333333333333333333333333333333333333333333333333333333333333333333333333333333",
"33333333333333333333333333333333333333333333333333333333333333333333333333333333333333333333333333333333",
"33333333333333333333333333333333333333333333333333333333333333333333333333333333333333333333333333333333",
"33333333333333333333333333333333333333333333333333333333333333333333333333333333333333333333333333333333",
"33333333333333333333333333333333333333333333333333333333333333333333333333333333333333333333333333333333",
"33333333333333333333333333333333333333333333333333333333333333333333333333333333333333333333333333333333",
"33333333333333333333333333333333333333333333333333333333333333333333333333333333333333333333333333333333",
"33333333333333333333333333333333333333333333333333333333333333333333333333333333333333333333333333333333",
"33333333333333333333333333333333333333333333333333333333333333333333333333333333333333333333333333333333",
"33333333333333333333333333333333333333333333333333333333333333333333333333333333333333333333333333333333",
"33333333333333333333333333333333333333333333333333333333333333333333333333333333333333333333333333333333",
"33333333333333333333333333333333333333333333333333333333333333333333333333333333333333333333333333333333",
"33333333333333333333333333333333333333333333333333333333333333333333333333333333333333333333333333333333",
"33333333333333333333333333333333333333333333333333333333333333333333333333333333333333333333333333333333",
"33333333333333333333333333333333333333333333333333333333333333333333333333333333333333333333333333333333",
"33333333333333333333333333333333333333333333333333333333333333333333333333333333333333333333333333333333",
"33333333333333333333333333333333333333333333333333333333333333333333333333333333333333333333333333333333",
"33333333333333333333333333333333333333333333333333333333333333333333333333333333333333333333333333333333",
"33333333333333333333333333333333333333333333333333333333333333333333333333333333333333333333333333333333",
"33333333333333333333333333333333333333333333333333333333333333333333333333333333333333333333333333333333",
"33333333333333333333333333333333333333333333333333333333333333333333333333333333333333333333333333333333",
"33333333333333333333333333333333333333333333333333333333333333333333333333333333333333333333333333333333",
"33333333333333333333333333333333333333333333333333333333333333333333333333333333333333333333333333333333",
"33333333333333333333333333333333333333333333333333333333333333333333333333333333333333333333333333333333",
"33333333333333333333333333333333333333333333333333333333333333333333333333333333333333333333333333333333",
"33333333333333333333333333333333333333333333333333333333333333333333333333333333333333333333333333333333",
"33333333333333333333333333333333333333333333333333333333333333333333333333333333333333333333333333333333",
"33333333333333333333333333333333333333333333333333333333333333333333333333333333333333333333333333333333",
"33333333333333333333333333333333333333333333333333333333333333333333333333333333333333333333333333333333",
"33333333333333333333333333333333333333333333333333333333333333333333333333333333333333333333333333333333",
"33333333333333333333333333333333333333333333333333333333333333333333333333333333333333333333333333333333",
"33333333333333333333333333333333333333333333333333333333333333333333333333333333333333333333333333333333",
"33333333333333333333333333333333333333333333333333333333333333333333333333333333333333333333333333333333",
"33333333333333333333333333333333333333333333333333333333333333333333333333333333333333333333333333333333",
"33333333333333333333333333333333333333333333333333333333333333333333333333333333333333333333333333333333",
"33333333333333333333333333333333333333333333333333333333333333333333333333333333333333333333333333333333",
"33333333333333333333333333333333333333333333333333333333333333333333333333333333333333333333333333333333",
"33333333333333333333333333333333333333333333333333333333333333333333333333333333333333333333333333333333",
"33333333333333333333333333333333333333333333333333333333333333333333333333333333333333333333333333333333",
"33333333333333333333333333333333333333333333333333333333333333333333333333333333333333333333333333333333",
"33333333333333333333333333333333333333333333333333333333333333333333333333333333333333333333333333333333",
"33333333333333333333333333333333333333333333333333333333333333333333333333333333333333333333333333333333",
"33333333333333333333333333333333333333333333333333333333333333333333333333333333333333333333333333333333",
"33333333333333333333333333333333333333333333333333333333333333333333333333333333333333333333333333333333",
"33333333333333333333333333333333333333333333333333333333333333333333333333333333333333333333333333333333",
"33333333333333333333333333333333333333333333333333333333333333333333333333333333333333333333333333333333",
"33333333333333333333333333333333333333333333333333333333333333333333333333333333333333333333333333333333",
"33333333333333333333333333333333333333333333333333333333333333333333333333333333333333333333333333333333",
"33333333333333333333333333333333333333333333333333333333333333333333333333333333333333333333333333333333",
"33333333333333333333333333333333333333333333333333333333333333333333333333333333333333333333333333333333",
"33333333333333333333333333333333333333333333333333333333333333333333333333333333333333333333333333333333",
"33333333333333333333333333333333333333333333333333333333333333333333333333333333333333333333333333333333",
"33333333333333333333333333333333333333333333333333333333333333333333333333333333333333333333333333333333",
"33333333333333333333333333333333333333333333333333333333333333333333333333333333333333333333333333333333",
"33333333333333333333333333333333333333333333333333333333333333333333333333333333333333333333333333333333",
"33333333333333333333333333333333333333333333333333333333333333333333333333333333333333333333333333333333",
"33333333333333333333333333333333333333333333333333333333333333333333333333333333333333333333333333333333",
"33333333333333333333333333333333333333333333333333333333333333333333333333333333333333333333333333333333",
"33333333333333333333333333333333333333333333333333333333333333333333333333333333333333333333333333333333",
"33333333333333333333333333333333333333333333333333333333333333333333333333333333333333333333333333333333",
"3333333333333333333333333333333333XX3333333333333333333333333333XX33333333333333333333333333333333333333",
"3333333333333333333333333333333333XX3333333333333333333333333333XX33333333333333333333333333333333333333",
"33333333333333333333333333333333%%XX3333333333333333333333333333XX%%333333333333333333333333333333333333",
"33333333333333333333333333333333%%XX3333333333333333333333333333XX%%333333333333333333333333333333333333",
"333333333333333333333333333333XX--XX3333333333333333333333333333XX--XX3333333333333333333333333333333333",
"333333333333333333333333333333XX--XX3333333333333333333333333333XX--XX3333333333333333333333333333333333",
"3333333333333333333333333333XX%%--XX333333XXXX%%%%%%%%XXXX333333XX--%%XX33333333333333333333333333333333",
"3333333333333333333333333333XX%%--XX333333XXXX%%%%%%%%XXXX333333XX--%%XX33333333333333333333333333333333",
"3333333333333333333333333333XX%%&&XX3333XX%%%%%%%%%%%%%%%%XX3333XX&&%%XX33333333333333333333333333333333",
"3333333333333333333333333333XX%%&&XX3333XX%%%%%%%%%%%%%%%%XX3333XX&&%%XX33333333333333333333333333333333",
"33333333333333333333333333XX%%%%&&@@XX  %%%%&&&&&&&&&&&&%%%%  XX@@&&%%%%XX333333333333333333333333333333",
"33333333333333333333333333XX%%%%&&@@XX  %%%%&&&&&&&&&&&&%%%%  XX@@&&%%%%XX333333333333333333333333333333",
"33333333333333333333333333++%%%%&&--@@XX%%&&&&&&----&&&&&&%%XX@@--&&%%%%XX333333333333333333333333333333",
"33333333333333333333333333++%%%%&&--@@XX%%&&&&&&----&&&&&&%%XX@@--&&%%%%XX333333333333333333333333333333",
"33333333333333333333333333>>%%%%%%&&--XX%%&&&&----11--&&&&%%XX--&&%%%%%%XX333333333333333333333333333333",
"33333333333333333333333333>>%%%%%%&&--XX%%&&&&----11--&&&&%%XX--&&%%%%%%XX333333333333333333333333333333",
"333333333333333333333333++<<++%%%%%%  %%%%%%&&--------&&%%%%@@  %%%%%%XX  333333333333333333333333333333",
"333333333333333333333333++<<++%%%%%%  %%%%%%&&--------&&%%%%@@  %%%%%%XX  333333333333333333333333333333",
"333333333333333333333333>>11>>XX%%%%  %%%%%%&&&&----&&&&%%%%@@  %%%%XX  33333333333333333333333333333333",
"333333333333333333333333>>11>>XX%%%%  %%%%%%&&&&----&&&&%%%%@@  %%%%XX  33333333333333333333333333333333",
"333333333333333333333333>>11>>  XXXX  %%%%%%&&&&&&&&&&&&%%%%%%  XXXX  3333333333333333333333333333333333",
"333333333333333333333333>>11>>  XXXX  %%%%%%&&&&&&&&&&&&%%%%%%  XXXX  3333333333333333333333333333333333",
"333333333333333333333333>>11>>33    XX%%%%&&%%&&====&&%%&&%%%%XX    333333333333333333333333333333333333",
"333333333333333333333333>>11>>33    XX%%%%&&%%&&====&&%%&&%%%%XX    333333333333333333333333333333333333",
"3333333333333333333333++<<11<<++  XX@@%%&&--&&%%2222%%&&--&&%%@@XX  333333333333333333333333333333333333",
"3333333333333333333333++<<11<<++  XX@@%%&&--&&%%2222%%&&--&&%%@@XX  333333333333333333333333333333333333",
"3333333333333333333333>><<1111>>  @@%%--%%==--&&,,,,&&--==%%--%%@@            33333333333333333333333333",
"3333333333333333333333>><<1111>>  @@%%--%%==--&&,,,,&&--==%%--%%@@            33333333333333333333333333",
"33333333333333333333  >><<1111>>  @@%%--&&,,==%%%%%%%%==,,&&--@@@@  ..##$$====  333333333333333333333333",
"33333333333333333333  >><<1111>>  @@%%--&&,,==%%%%%%%%==,,&&--@@@@  ..##$$====  333333333333333333333333",
"333333333333333333  ==>><<1111>>  XX@@%%--&&,,%%&&&&%%,,&&--%%@@XX  ##$$==,,,,==  3333333333333333333333",
"333333333333333333  ==>><<1111>>  XX@@%%--&&,,%%&&&&%%,,&&--%%@@XX  ##$$==,,,,==  3333333333333333333333",
"333333333333333333  ==>><<1111<<  XXXX@@%%%%%%&&    &&%%%%%%@@XXXX  ..##$$==,,==  3333333333333333333333",
"333333333333333333  ==>><<1111<<  XXXX@@%%%%%%&&    &&%%%%%%@@XXXX  ..##$$==,,==  3333333333333333333333",
"333333333333333333  ++<<<<<<1111++  XXXX@@@@%%&&    &&%%@@@@XXXX      ..##$$$$##  3333333333333333333333",
"333333333333333333  ++<<<<<<1111++  XXXX@@@@%%&&    &&%%@@@@XXXX      ..##$$$$##  3333333333333333333333",
"333333333333333333  >><<<<>>1111>>      XXXX&&        &&XXXX    XX        ......  3333333333333333333333",
"333333333333333333  >><<<<>>1111>>      XXXX&&        &&XXXX    XX        ......  3333333333333333333333",
"333333333333333333  >><<<<++1111>>    XX    XX--    --XX    $$$$$$##############333333333333333333333333",
"333333333333333333  >><<<<++1111>>    XX    XX--    --XX    $$$$$$##############333333333333333333333333",
"333333333333333333....<<>>++>>11....&&%%XXXX    XXXX    $$==,,,,,,,,,,,,,,,,,,==##3333333333333333333333",
"333333333333333333....<<>>++>>11....&&%%XXXX    XXXX    $$==,,,,,,,,,,,,,,,,,,==##3333333333333333333333",
"333333333333333333..$$..++11<<..$$..XX%%&&&&%%%%XXXX%%XX$$,,====================##3333333333333333333333",
"333333333333333333..$$..++11<<..$$..XX%%&&&&%%%%XXXX%%XX$$,,====================##3333333333333333333333",
"333333333333333333....$$......==....%%&&----&&&&%%%%&&--$$==$$$$$$$$$$$$$$$$$$==##3333333333333333333333",
"333333333333333333....$$......==....%%&&----&&&&%%%%&&--$$==$$$$$$$$$$$$$$$$$$==##3333333333333333333333",
"333333333333333333XX..##$$====##..  XX%%%%&&--&&XXXX&&&&##$$                  $$##3333333333333333333333",
"333333333333333333XX..##$$====##..  XX%%%%&&--&&XXXX&&&&##$$                  $$##3333333333333333333333",
"333333333333333333  XX....####..XX        %%&&%%    %%&&##$$  ..    ..    ..  $$..3333333333333333333333",
"333333333333333333  XX....####..XX        %%&&%%    %%&&##$$  ..    ..    ..  $$..3333333333333333333333",
"333333333333333333  XXXXXX....--%%  XXXXXX              ##$$  $$    ##    $$  $$..3333333333333333333333",
"333333333333333333  XXXXXX....--%%  XXXXXX              ##$$  $$    ##    $$  $$..3333333333333333333333",
"333333333333333333  %%----&&%%XX%%  %%&&%%  XX        XX##$$  ==  ..$$..  ==  $$..3333333333333333333333",
"333333333333333333  %%----&&%%XX%%  %%&&%%  XX        XX##$$  ==  ..$$..  ==  $$..3333333333333333333333",
"33333333333333333333  &&------XXXX  %%%%&&  ----&&&&----..##  ,,$$==,,==$$,,  ##..3333333333333333333333",
"33333333333333333333  &&------XXXX  %%%%&&  ----&&&&----..##  ,,$$==,,==$$,,  ##..3333333333333333333333",
"3333333333333333333333  &&&&&&XX  XXXXXXXX  &&--    --&&..##  $$..  ##  ..$$  ##..3333333333333333333333",
"3333333333333333333333  &&&&&&XX  XXXXXXXX  &&--    --&&..##  $$..  ##  ..$$  ##..3333333333333333333333",
"3333;;;;;;**3333333333          33      XX  %%&&----&&%%..$$      ==,,==      $$..3333333333**;;;;;;3333",
"3333;;;;;;**3333333333          33      XX  %%&&----&&%%..$$      ==,,==      $$..3333333333**;;;;;;3333",
"33;;::::::;;**33333333  ......      ....    XX%%&&&&%%XX..$$  ==..  ==  ..==  $$..33333333**;;::::::;;33",
"33;;::::::;;**33333333  ......      ....    XX%%&&&&%%XX..$$  ==..  ==  ..==  $$..33333333**;;::::::;;33",
"33::::****::;;**333333  ##$$..    ..######  XX%%%%%%%%XX..==  ##$$  $$  $$##  ==..333333**;;::****::::33",
"33::::****::;;**333333  ##$$..    ..######  XX%%%%%%%%XX..==  ##$$  $$  $$##  ==..333333**;;::****::::33",
"33;;;;;;OO;;::**33333333  ..      ##$$====    XX%%%%XX    ..==      ..      ==..  333333**::;;OO;;;;;;33",
"33;;;;;;OO;;::**33333333  ..      ##$$====    XX%%%%XX    ..==      ..      ==..  333333**::;;OO;;;;;;33",
"33OO****OO****::::33333333oooooo  ####$$####    XXXX        ..====######====..  333333::::****OO****OO33",
"33OO****OO****::::33333333oooooo  ####$$####    XXXX        ..====######====..  333333::::****OO****OO33",
"3333OOOO****;;;;;;::33333333oooo  ..####..  oooo    oooo      ....      ....  333333::;;;;;;****OOOO3333",
"3333OOOO****;;;;;;::33333333oooo  ..####..  oooo    oooo      ....      ....  333333::;;;;;;****OOOO3333",
"333333OOOOOOOOOOOOOOOO333333oooo          oooooooooooooooo          oooo      3333OOOOOOOOOOOOOOOO333333",
"333333OOOOOOOOOOOOOOOO333333oooo          oooooooooooooooo          oooo      3333OOOOOOOOOOOOOOOO333333",
"333333333333333333333333333333oooooooooooooooooooooooooooooooooooooooo3333333333333333333333333333333333",
"333333333333333333333333333333oooooooooooooooooooooooooooooooooooooooo3333333333333333333333333333333333",
"3333333333333333333333333333333333oooooooooooooooooooooooooooooooo33333333333333333333333333333333333333",
"3333333333333333333333333333333333oooooooooooooooooooooooooooooooo33333333333333333333333333333333333333",
"3333333333333333333333333333333333333333oooooooooooooooooooo33333333333333333333333333333333333333333333",
"3333333333333333333333333333333333333333oooooooooooooooooooo33333333333333333333333333333333333333333333"
};
