/* XPM */
static char *result[] = {
/* columns rows colors chars-per-pixel */
"104 144 21 1 ",
"  c black",
". c #480808",
"X c #681828",
"o c #504C43",
"O c #706060",
"+ c #902038",
"@ c #A04010",
"# c #C86828",
"$ c #C03040",
"% c #F05868",
"& c #898377",
"* c #F89848",
"= c #F07880",
"- c #AFA897",
"; c #BFBCA6",
": c #C0B0B0",
"> c #FFDB86",
", c #E8D8D8",
"< c #F8F8F8",
"1 c white",
"2 c None",
/* pixels */
"22222222222222222222222222222222222222222222222222222222222222222222222222222222222222222222222222222222",
"22222222222222222222222222222222222222222222222222222222222222222222222222222222222222222222222222222222",
"22222222222222222222222222222222222222222222222222222222222222222222222222222222222222222222222222222222",
"22222222222222222222222222222222222222222222222222222222222222222222222222222222222222222222222222222222",
"22222222222222222222222222222222222222222222222222222222222222222222222222222222222222222222222222222222",
"22222222222222222222222222222222222222222222222222222222222222222222222222222222222222222222222222222222",
"22222222222222222222222222222222222222222222222222222222222222222222222222222222222222222222222222222222",
"22222222222222222222222222222222222222222222222222222222222222222222222222222222222222222222222222222222",
"22222222222222222222222222222222222222222222222222222222222222222222222222222222222222222222222222222222",
"22222222222222222222222222222222222222222222222222222222222222222222222222222222222222222222222222222222",
"22222222222222222222222222222222222222222222222222222222222222222222222222222222222222222222222222222222",
"22222222222222222222222222222222222222222222222222222222222222222222222222222222222222222222222222222222",
"22222222222222222222222222222222222222222222222222222222222222222222222222222222222222222222222222222222",
"22222222222222222222222222222222222222222222222222222222222222222222222222222222222222222222222222222222",
"22222222222222222222222222222222222222222222222222222222222222222222222222222222222222222222222222222222",
"22222222222222222222222222222222222222222222222222222222222222222222222222222222222222222222222222222222",
"22222222222222222222222222222222222222222222222222222222222222222222222222222222222222222222222222222222",
"22222222222222222222222222222222222222222222222222222222222222222222222222222222222222222222222222222222",
"22222222222222222222222222222222222222222222222222222222222222222222222222222222222222222222222222222222",
"22222222222222222222222222222222222222222222222222222222222222222222222222222222222222222222222222222222",
"22222222222222222222222222222222222222222222222222222222222222222222222222222222222222222222222222222222",
"22222222222222222222222222222222222222222222222222222222222222222222222222222222222222222222222222222222",
"22222222222222222222222222222222222222222222222222222222222222222222222222222222222222222222222222222222",
"22222222222222222222222222222222222222222222222222222222222222222222222222222222222222222222222222222222",
"22222222222222222222222222222222222222222222222222222222222222222222222222222222222222222222222222222222",
"22222222222222222222222222222222222222222222222222222222222222222222222222222222222222222222222222222222",
"22222222222222222222222222222222222222222222222222222222222222222222222222222222222222222222222222222222",
"22222222222222222222222222222222222222222222222222222222222222222222222222222222222222222222222222222222",
"22222222222222222222222222222222222222222222222222222222222222222222222222222222222222222222222222222222",
"22222222222222222222222222222222222222222222222222222222222222222222222222222222222222222222222222222222",
"22222222222222222222222222222222222222222222222222222222222222222222222222222222222222222222222222222222",
"22222222222222222222222222222222222222222222222222222222222222222222222222222222222222222222222222222222",
"22222222222222222222222222222222222222222222222222222222222222222222222222222222222222222222222222222222",
"22222222222222222222222222222222222222222222222222222222222222222222222222222222222222222222222222222222",
"22222222222222222222222222222222222222222222222222222222222222222222222222222222222222222222222222222222",
"22222222222222222222222222222222222222222222222222222222222222222222222222222222222222222222222222222222",
"22222222222222222222222222222222222222222222222222222222222222222222222222222222222222222222222222222222",
"22222222222222222222222222222222222222222222222222222222222222222222222222222222222222222222222222222222",
"22222222222222222222222222222222222222222222222222222222222222222222222222222222222222222222222222222222",
"22222222222222222222222222222222222222222222222222222222222222222222222222222222222222222222222222222222",
"22222222222222222222222222222222222222222222222222222222222222222222222222222222222222222222222222222222",
"22222222222222222222222222222222222222222222222222222222222222222222222222222222222222222222222222222222",
"22222222222222222222222222222222222222222222222222222222222222222222222222222222222222222222222222222222",
"22222222222222222222222222222222222222222222222222222222222222222222222222222222222222222222222222222222",
"22222222222222222222222222222222222222222222222222222222222222222222222222222222222222222222222222222222",
"22222222222222222222222222222222222222222222222222222222222222222222222222222222222222222222222222222222",
"22222222222222222222222222222222222222222222222222222222222222222222222222222222222222222222222222222222",
"22222222222222222222222222222222222222222222222222222222222222222222222222222222222222222222222222222222",
"22222222222222222222222222222222222222222222222222222222222222222222222222222222222222222222222222222222",
"22222222222222222222222222222222222222222222222222222222222222222222222222222222222222222222222222222222",
"22222222222222222222222222222222222222222222222222222222222222222222222222222222222222222222222222222222",
"22222222222222222222222222222222222222222222222222222222222222222222222222222222222222222222222222222222",
"22222222222222222222222222222222222222222222222222222222222222222222222222222222222222222222222222222222",
"22222222222222222222222222222222222222222222222222222222222222222222222222222222222222222222222222222222",
"22222222222222222222222222222222222222222222222222222222222222222222222222222222222222222222222222222222",
"22222222222222222222222222222222222222222222222222222222222222222222222222222222222222222222222222222222",
"22222222222222222222222222222222222222222222222222222222222222222222222222222222222222222222222222222222",
"22222222222222222222222222222222222222222222222222222222222222222222222222222222222222222222222222222222",
"22222222222222222222222222222222222222222222222222222222222222222222222222222222222222222222222222222222",
"22222222222222222222222222222222222222222222222222222222222222222222222222222222222222222222222222222222",
"22222222222222222222222222222222222222222222222222222222222222222222222222222222222222222222222222222222",
"22222222222222222222222222222222222222222222222222222222222222222222222222222222222222222222222222222222",
"22222222222222222222222222222222222222222222222222222222222222222222222222222222222222222222222222222222",
"22222222222222222222222222222222222222222222222222222222222222222222222222222222222222222222222222222222",
"22222222222222222222222222222222222222222222222222222222222222222222222222222222222222222222222222222222",
"22222222222222222222222222222222222222222222222222222222222222222222222222222222222222222222222222222222",
"2222222222222222222222222222222222XX2222222222222222222222222222XX22222222222222222222222222222222222222",
"2222222222222222222222222222222222XX2222222222222222222222222222XX22222222222222222222222222222222222222",
"22222222222222222222222222222222$$XX2222222222222222222222222222XX$$222222222222222222222222222222222222",
"22222222222222222222222222222222$$XX2222222222222222222222222222XX$$222222222222222222222222222222222222",
"222222222222222222222222222222XX==XX2222222222222222222222222222XX==XX2222222222222222222222222222222222",
"222222222222222222222222222222XX==XX2222222222222222222222222222XX==XX2222222222222222222222222222222222",
"2222222222222222222222222222XX$$==XX222222XXXX$$$$$$$$XXXX222222XX==$$XX22222222222222222222222222222222",
"2222222222222222222222222222XX$$==XX222222XXXX$$$$$$$$XXXX222222XX==$$XX22222222222222222222222222222222",
"2222222222222222222222222222XX$$%%XX2222XX$$$$$$$$$$$$$$$$XX2222XX%%$$XX22222222222222222222222222222222",
"2222222222222222222222222222XX$$%%XX2222XX$$$$$$$$$$$$$$$$XX2222XX%%$$XX22222222222222222222222222222222",
"22222222222222222222222222XX$$$$%%++XX  $$$$%%%%%%%%%%%%$$$$  XX++%%$$$$XX222222222222222222222222222222",
"22222222222222222222222222XX$$$$%%++XX  $$$$%%%%%%%%%%%%$$$$  XX++%%$$$$XX222222222222222222222222222222",
"22222222222222222222222222OO$$$$%%==++XX$$%%%%%%====%%%%%%$$XX++==%%$$$$XX222222222222222222222222222222",
"22222222222222222222222222OO$$$$%%==++XX$$%%%%%%====%%%%%%$$XX++==%%$$$$XX222222222222222222222222222222",
"22222222222222222222222222::$$$$$$%%==XX$$%%%%====<<==%%%%$$XX==%%$$$$$$XX222222222222222222222222222222",
"22222222222222222222222222::$$$$$$%%==XX$$%%%%====<<==%%%%$$XX==%%$$$$$$XX222222222222222222222222222222",
"222222222222222222222222OO,,OO$$$$$$  $$$$$$%%========%%$$$$++  $$$$$$XX  222222222222222222222222222222",
"222222222222222222222222OO,,OO$$$$$$  $$$$$$%%========%%$$$$++  $$$$$$XX  222222222222222222222222222222",
"222222222222222222222222::<<::XX$$$$  $$$$$$%%%%====%%%%$$$$++  $$$$XX  22222222222222222222222222222222",
"222222222222222222222222::<<::XX$$$$  $$$$$$%%%%====%%%%$$$$++  $$$$XX  22222222222222222222222222222222",
"222222222222222222222222::<<::  XXXX  $$$$$$%%%%%%%%%%%%$$$$$$  XXXX  2222222222222222222222222222222222",
"222222222222222222222222::<<::  XXXX  $$$$$$%%%%%%%%%%%%$$$$$$  XXXX  2222222222222222222222222222222222",
"222222222222222222222222::<<::22    XX$$$$%%$$%%****%%$$%%$$$$XX    222222222222222222222222222222222222",
"222222222222222222222222::<<::22    XX$$$$%%$$%%****%%$$%%$$$$XX    222222222222222222222222222222222222",
"2222222222222222222222OO,,<<,,OO  XX++$$%%==%%$$1111$$%%==%%$$++XX  222222222222222222222222222222222222",
"2222222222222222222222OO,,<<,,OO  XX++$$%%==%%$$1111$$%%==%%$$++XX  222222222222222222222222222222222222",
"2222222222222222222222::,,<<<<::  ++$$==$$**==%%>>>>%%==**$$==$$++            22222222222222222222222222",
"2222222222222222222222::,,<<<<::  ++$$==$$**==%%>>>>%%==**$$==$$++            22222222222222222222222222",
"22222222222222222222  ::,,<<<<::  ++$$==%%>>**$$$$$$$$**>>%%==++++  ..@@##****  222222222222222222222222",
"22222222222222222222  ::,,<<<<::  ++$$==%%>>**$$$$$$$$**>>%%==++++  ..@@##****  222222222222222222222222",
"222222222222222222  **::,,<<<<::  XX++$$==%%>>$$%%%%$$>>%%==$$++XX  @@##**>>>>**  2222222222222222222222",
"222222222222222222  **::,,<<<<::  XX++$$==%%>>$$%%%%$$>>%%==$$++XX  @@##**>>>>**  2222222222222222222222",
"222222222222222222  **::,,<<<<,,  XXXX++$$$$$$%%    %%$$$$$$++XXXX  ..@@##**>>**  2222222222222222222222",
"222222222222222222  **::,,<<<<,,  XXXX++$$$$$$%%    %%$$$$$$++XXXX  ..@@##**>>**  2222222222222222222222",
"222222222222222222  OO,,,,,,<<<<OO  XXXX++++$$%%    %%$$++++XXXX      ..@@####@@  2222222222222222222222",
"222222222222222222  OO,,,,,,<<<<OO  XXXX++++$$%%    %%$$++++XXXX      ..@@####@@  2222222222222222222222",
"222222222222222222  ::,,,,::<<<<::      XXXX%%        %%XXXX    XX        ......  2222222222222222222222",
"222222222222222222  ::,,,,::<<<<::      XXXX%%        %%XXXX    XX        ......  2222222222222222222222",
"222222222222222222  ::,,,,OO<<<<::    XX    XX==    ==XX    ######@@@@@@@@@@@@@@222222222222222222222222",
"222222222222222222  ::,,,,OO<<<<::    XX    XX==    ==XX    ######@@@@@@@@@@@@@@222222222222222222222222",
"222222222222222222....,,::OO::<<....%%$$XXXX    XXXX    ##**>>>>>>>>>>>>>>>>>>**@@2222222222222222222222",
"222222222222222222....,,::OO::<<....%%$$XXXX    XXXX    ##**>>>>>>>>>>>>>>>>>>**@@2222222222222222222222",
"222222222222222222..##..OO<<,,..##..XX$$%%%%$$$$XXXX$$XX##>>********************@@2222222222222222222222",
"222222222222222222..##..OO<<,,..##..XX$$%%%%$$$$XXXX$$XX##>>********************@@2222222222222222222222",
"222222222222222222....##......**....$$%%====%%%%$$$$%%==##**##################**@@2222222222222222222222",
"222222222222222222....##......**....$$%%====%%%%$$$$%%==##**##################**@@2222222222222222222222",
"222222222222222222XX..@@##****@@..  XX$$$$%%==%%XXXX%%%%@@##                  ##@@2222222222222222222222",
"222222222222222222XX..@@##****@@..  XX$$$$%%==%%XXXX%%%%@@##                  ##@@2222222222222222222222",
"222222222222222222  XX....@@@@..XX        $$%%$$    $$%%@@##  ..    ..    ..  ##..2222222222222222222222",
"222222222222222222  XX....@@@@..XX        $$%%$$    $$%%@@##  ..    ..    ..  ##..2222222222222222222222",
"222222222222222222  XXXXXX....==$$  XXXXXX              @@##  ##    @@    ##  ##..2222222222222222222222",
"222222222222222222  XXXXXX....==$$  XXXXXX              @@##  ##    @@    ##  ##..2222222222222222222222",
"222222222222222222  $$====%%$$XX$$  $$%%$$  XX        XX@@##  **  ..##..  **  ##..2222222222222222222222",
"222222222222222222  $$====%%$$XX$$  $$%%$$  XX        XX@@##  **  ..##..  **  ##..2222222222222222222222",
"22222222222222222222  %%======XXXX  $$$$%%  ====%%%%====..@@  >>##**>>**##>>  @@..2222222222222222222222",
"22222222222222222222  %%======XXXX  $$$$%%  ====%%%%====..@@  >>##**>>**##>>  @@..2222222222222222222222",
"2222222222222222222222  %%%%%%XX  XXXXXXXX  %%==    ==%%..@@  ##..  @@  ..##  @@..2222222222222222222222",
"2222222222222222222222  %%%%%%XX  XXXXXXXX  %%==    ==%%..@@  ##..  @@  ..##  @@..2222222222222222222222",
"2222222222222222222222          22      XX  $$%%====%%$$..##      **>>**      ##..2222222222222222222222",
"2222222222222222222222          22      XX  $$%%====%%$$..##      **>>**      ##..2222222222222222222222",
"22&&----&&222222222222  ......      ....    XX$$%%%%$$XX..##  **..  **  ..**  ##..222222222222&&----&&22",
"22&&----&&222222222222  ......      ....    XX$$%%%%$$XX..##  **..  **  ..**  ##..222222222222&&----&&22",
"&&--;;;;--&&2222222222  @@##..    ..@@@@@@  XX$$$$$$$$XX..**  @@##  ##  ##@@  **..2222222222&&--;;;;--&&",
"&&--;;;;--&&2222222222  @@##..    ..@@@@@@  XX$$$$$$$$XX..**  @@##  ##  ##@@  **..2222222222&&--;;;;--&&",
"&&;;;;--;;&&222222222222  ..      @@##****    XX$$$$XX    ..**      ..      **..  2222222222&&;;--;;;;&&",
"&&;;;;--;;&&222222222222  ..      @@##****    XX$$$$XX    ..**      ..      **..  2222222222&&;;--;;;;&&",
"oo----&&--oo22222222222222222222  @@@@##@@@@    XXXX        ..****@@@@@@****..  222222222222oo--&&----oo",
"oo----&&--oo22222222222222222222  @@@@##@@@@    XXXX        ..****@@@@@@****..  222222222222oo--&&----oo",
"22oo&&&&oo2222222222222222222222  ..@@@@..  2222    2222      ....      ....  2222222222222222oo&&&&oo22",
"22oo&&&&oo2222222222222222222222  ..@@@@..  2222    2222      ....      ....  2222222222222222oo&&&&oo22",
"2222oooo222222222222222222222222          2222222222222222          2222      222222222222222222oooo2222",
"2222oooo222222222222222222222222          2222222222222222          2222      222222222222222222oooo2222",
"22222222222222222222222222222222222222222222222222222222222222222222222222222222222222222222222222222222",
"22222222222222222222222222222222222222222222222222222222222222222222222222222222222222222222222222222222",
"22222222222222222222222222222222222222222222222222222222222222222222222222222222222222222222222222222222",
"22222222222222222222222222222222222222222222222222222222222222222222222222222222222222222222222222222222",
"22222222222222222222222222222222222222222222222222222222222222222222222222222222222222222222222222222222",
"22222222222222222222222222222222222222222222222222222222222222222222222222222222222222222222222222222222"
};
