/* XPM */
static char *result[] = {
/* columns rows colors chars-per-pixel */
"64 64 6 1 ",
"  c #202110",
". c #393118",
"X c #004F08",
"o c #00404D",
"O c #018F32",
"+ c #007C8D",
/* pixels */
"oooooooooo++++++++++++oooooo++oooooooooooo++++++++++++oooooo++oo",
"oooooooooo++++++++++++oooooo++oooooooooooo++++++++++++oooooo++oo",
"oo++++oooooooooo                                oooooooooo++++oo",
"oo++++oooooooooo                                oooooooooo++++oo",
"oo++oooooo      ++  oooo++++++++++++++++oooo  ++      oooooooooo",
"oo++oooooo      ++  oooo++++++++++++++++oooo  ++      oooooooooo",
"oooooooo  oo++++++ooXX++++oooooooooooo++++oooo++++++oo  oooooooo",
"oooooooo  oo++++++ooXX++++oooooooooooo++++oooo++++++oo  oooooooo",
"oooooo  oo++++++oooo  oooooooooooooooooooo  oooo++++++oo  oooooo",
"oooooo  oo++++++oooo  oooooooooooooooooooo  oooo++++++oo  oooooo",
"oooo  oo++++oooooooo  ooXXXXXXXXXXXXXXXXoo  oooooooo++++oo  oooo",
"oooo  oo++++oooooooo  ooXXXXXXXXXXXXXXXXoo  oooooooo++++oo  oooo",
"oooo  ++++ooooooooXX  oo                XX  XXoooooooo++++  oooo",
"oooo  ++++ooooooooXX  oo                XX  XXoooooooo++++  oooo",
"oooo  XX++oooooooo                            XXoooooo++XX  oooo",
"oooo  XX++oooooooo                            XXoooooo++XX  oooo",
"oooo  ++XXooooXX                                XXooooXX++  oooo",
"oooo  ++XXooooXX                                XXooooXX++  oooo",
"oooo  ++++XXXX                                    XXXX++++  oooo",
"oooo  ++++XXXX                                    XXXX++++  oooo",
"oooo  ++++oo                                        oo++++  oooo",
"oooo  ++++oo                                        oo++++  oooo",
"++oo  ++++ooXX                                    XXoo++++  oo++",
"++oo  ++++ooXX                                    XXoo++++  oo++",
"oooo  oo++ooXX                                    XXoo++oo  oooo",
"oooo  oo++ooXX                                    XXoo++oo  oooo",
"oooo  XXooooXX                                    XXooooXX  oooo",
"oooo  XXooooXX                                    XXooooXX  oooo",
"oooo  ++XXooXX                                    XXooXX++  oooo",
"oooo  ++XXooXX                                    XXooXX++  oooo",
"++oo  ++++XXXX                                    XXXX++++  oooo",
"++oo  ++++XXXX                                    XXXX++++  oooo",
"oooo  ++++oo        XXXXXXXXXXXXXXXXXXXXXXXX        oo++++  oooo",
"oooo  ++++oo        XXXXXXXXXXXXXXXXXXXXXXXX        oo++++  oooo",
"oooo  ++++ooXX                                    XXoo++++  oooo",
"oooo  ++++ooXX                                    XXoo++++  oooo",
"oooo  ooooooXX    OOOOOOOOOOOOOOOOOOOOOOOOOOOO    XXoooooo  oooo",
"oooo  ooooooXX    OOOOOOOOOOOOOOOOOOOOOOOOOOOO    XXoooooo  oooo",
"oooo  XXXXooXX    XXXX  XXXXXX    XXXXXX  XXXX    XXooXXXX  oooo",
"oooo  XXXXooXX    XXXX  XXXXXX    XXXXXX  XXXX    XXooXXXX  oooo",
"oooo  ++ooXXXX                                    XXXXoo++  oooo",
"oooo  ++ooXXXX                                    XXXXoo++  oooo",
"oooo  ++++oo    OOOOOOOOOOOOOOOOOOOOOOOOOOOOOOOO    oo++++  oooo",
"oooo  ++++oo    OOOOOOOOOOOOOOOOOOOOOOOOOOOOOOOO    oo++++  oooo",
"oooo  ++++++oo    XXXX        XXXX        XXXX    oo++++++  oooo",
"oooo  ++++++oo    XXXX        XXXX        XXXX    oo++++++  oooo",
"oooo  ++oo++++    ..XXXX    XXXXXXXX    XXXXXX    ++++oo++  oooo",
"oooo  ++oo++++    ..XXXX    XXXXXXXX    XXXXXX    ++++oo++  oooo",
"oooo  oo++++++XXOOOOOOOOOOOOOOOOOOOOOOOOOOOOOOOOXX++++++oo  oooo",
"oooo  oo++++++XXOOOOOOOOOOOOOOOOOOOOOOOOOOOOOOOOXX++++++oo  oooo",
"oooo  oo++++++++++ooOOOOOOOOOOOOOOOOOOOOOOOOoo++++++++++oo  oooo",
"oooo  oo++++++++++ooOOOOOOOOOOOOOOOOOOOOOOOOoo++++++++++oo  oooo",
"oooo  oooo++oo++++++++++++++oooooooo++++++++++++++oo++oooo  oooo",
"oooo  oooo++oo++++++++++++++oooooooo++++++++++++++oo++oooo  oooo",
"++oooo  oooo++++++++oo++++++++++++++++++++oo++++++++oooo  oooo++",
"++oooo  oooo++++++++oo++++++++++++++++++++oo++++++++oooo  oooo++",
"oo++oooo  oooooooooo++oo++++oooooooo++++oo++oooooooooo  oooo++oo",
"oo++oooo  oooooooooo++oo++++oooooooo++++oo++oooooooooo  oooo++oo",
"oo++++oooo        oooooooooo        oooooooooo        oooo++++oo",
"oo++++oooo        oooooooooo        oooooooooo        oooo++++oo",
"oo++++++oooooooooo          oooooooo          oooooooooo++++++oo",
"oo++++++oooooooooo          oooooooo          oooooooooo++++++oo",
"++oooo++++oooooooooooo++oooooooo++oooo++++oooooooooooo++oooooooo",
"++oooo++++oooooooooooo++oooooooo++oooo++++oooooooooooo++oooooooo"
};
