/* XPM */
static char *result[] = {
/* columns rows colors chars-per-pixel */
"64 64 7 1 ",
"  c gray19",
". c #004F08",
"X c #585858",
"o c #008F32",
"O c #45E082",
"+ c #A0A0A0",
"@ c gray91",
/* pixels */
"XXXXXXXXXXXXXXXXXXXXXXXX                XXXXXXXXXXXXXXXXXXXXXXXX",
"XXXXXXXXXXXXXXXXXXXXXXXX                XXXXXXXXXXXXXXXXXXXXXXXX",
"                        XXXX++++++++XXXX                        ",
"                        XXXX++++++++XXXX                        ",
"  ++++  ++++  XX    XX++@@@@@@@@@@@@@@@@++XX    XX  ++++  ++++  ",
"  ++++  ++++  XX    XX++@@@@@@@@@@@@@@@@++XX    XX  ++++  ++++  ",
"  ++XX  ++@@++  XX++@@@@++++++++++++++++@@@@++XX  ++@@++  XX++  ",
"  ++XX  ++@@++  XX++@@@@++++++++++++++++@@@@++XX  ++@@++  XX++  ",
"  XX++  XX++@@++++@@++++XXXXXXXXXXXXXXXX++++@@++++@@++XX  ++XX  ",
"  XX++  XX++@@++++@@++++XXXXXXXXXXXXXXXX++++@@++++@@++XX  ++XX  ",
"  XX++XX  XX++@@@@++XXXXXXXXXXXXXXXXXXXXXXXX++@@@@++XX  XX++XX  ",
"  XX++XX  XX++@@@@++XXXXXXXXXXXXXXXXXXXXXXXX++@@@@++XX  XX++XX  ",
"  XX++  XX  ++@@++XXXXXXXXXXXXXXXXXXXXXXXXXXXX++@@++  XX  ++XX  ",
"  XX++  XX  ++@@++XXXXXXXXXXXXXXXXXXXXXXXXXXXX++@@++  XX  ++XX  ",
"  ++XX  ++  ++@@XXXXXXXXXX            XXXXXXXXXX@@++  ++  XX++  ",
"  ++XX  ++  ++@@XXXXXXXXXX            XXXXXXXXXX@@++  ++  XX++  ",
"  ++  XX++  @@++XXXXXXXX                XXXXXXXX++@@  ++XX  ++  ",
"  ++  XX++  @@++XXXXXXXX                XXXXXXXX++@@  ++XX  ++  ",
"  ++  ++++  @@++XXXXXX    XXXXXXXXXXXX    XXXXXX++@@  ++++  ++  ",
"  ++  ++++  @@++XXXXXX    XXXXXXXXXXXX    XXXXXX++@@  ++++  ++  ",
"  ++  ++++  @@++XXXX    XXXX        XXXX    XXXX++@@  ++++  ++  ",
"  ++  ++++  @@++XXXX    XXXX        XXXX    XXXX++@@  ++++  ++  ",
"  ++  ++++  @@++XXXX  XXXX            XXXX  XXXX++@@  ++++  ++  ",
"  ++  ++++  @@++XXXX  XXXX            XXXX  XXXX++@@  ++++  ++  ",
"  ++  ++++  @@++XXXX  XX                XX  XXXX++@@  ++++  ++  ",
"  ++  ++++  @@++XXXX  XX                XX  XXXX++@@  ++++  ++  ",
"  ++  ++++  ++@@XXXX  XX                XX  XXXX@@++  ++++  ++  ",
"  ++  ++++  ++@@XXXX  XX                XX  XXXX@@++  ++++  ++  ",
"  ++  ++++  ++@@XXXX  XX                XX  XXXX@@++  ++++  ++  ",
"  ++  ++++  ++@@XXXX  XX                XX  XXXX@@++  ++++  ++  ",
"  ++  ++  XX@@@@++XX  XX                XX  XX++@@@@XX  ++  ++  ",
"  ++  ++  XX@@@@++XX  XX                XX  XX++@@@@XX  ++  ++  ",
"  ++    ++@@++++@@++XX  XX            XX  XX++@@++++@@++    ++  ",
"  ++    ++@@++++@@++XX  XX            XX  XX++@@++++@@++    ++  ",
"  ++  ++@@++XXXX++@@++++                ++++@@++XXXX++@@++  ++  ",
"  ++  ++@@++XXXX++@@++++                ++++@@++XXXX++@@++  ++  ",
"  ++  ++++XX    XX++@@@@++++++++++++++++@@@@++XX    XX++++  ++  ",
"  ++  ++++XX    XX++@@@@++++++++++++++++@@@@++XX    XX++++  ++  ",
"  ++        oo..  XXXX++@@@@@@@@@@@@@@@@++XXXX  ..oo        ++  ",
"  ++        oo..  XXXX++@@@@@@@@@@@@@@@@++XXXX  ..oo        ++  ",
"  ++  XX++  ooOO..    XXXX++++++++++++XXXX    ..OOoo  ++XX  ++  ",
"  ++  XX++  ooOO..    XXXX++++++++++++XXXX    ..OOoo  ++XX  ++  ",
"  ++  XX++++  oooo                            oooo  ++++XX  ++  ",
"  ++  XX++++  oooo                            oooo  ++++XX  ++  ",
"  ++    ++@@++    ++++++    ........    ++++++    ++@@++    ++  ",
"  ++    ++@@++    ++++++    ........    ++++++    ++@@++    ++  ",
"  ++XX  XX++@@@@@@@@@@@@++  ooOOOOoo  ++@@@@@@@@@@@@++XX  XX++  ",
"  ++XX  XX++@@@@@@@@@@@@++  ooOOOOoo  ++@@@@@@@@@@@@++XX  XX++  ",
"  ++XX    XX++++++++++@@++XX  oooo  XX++@@++++++++++XX    XX++  ",
"  ++XX    XX++++++++++@@++XX  oooo  XX++@@++++++++++XX    XX++  ",
"  ++XXXX    XXXXXXXX++++@@++XX    XX++@@++++XXXXXXXX    XXXX++  ",
"  ++XXXX    XXXXXXXX++++@@++XX    XX++@@++++XXXXXXXX    XXXX++  ",
"  XX++XXXX    XXXXXXXX++++@@@@@@@@@@@@++++XXXXXXXX    XXXX++XX  ",
"  XX++XXXX    XXXXXXXX++++@@@@@@@@@@@@++++XXXXXXXX    XXXX++XX  ",
"  XX++XXXXXX      XXXXXXXX++++++++++++XXXXXXXX      XXXXXX++XX  ",
"  XX++XXXXXX      XXXXXXXX++++++++++++XXXXXXXX      XXXXXX++XX  ",
"  ++++XXXXXXXX        XXXXXXXXXXXXXXXXXXXX        XXXXXXXX++++  ",
"  ++++XXXXXXXX        XXXXXXXXXXXXXXXXXXXX        XXXXXXXX++++  ",
"  @@++++@@++++XXXX                            XXXX++++@@++++@@  ",
"  @@++++@@++++XXXX                            XXXX++++@@++++@@  ",
"  @@@@@@XXXXXX++++++++++++++++++++++++++++++++++++XXXXXX@@@@@@  ",
"  @@@@@@XXXXXX++++++++++++++++++++++++++++++++++++XXXXXX@@@@@@  ",
"                                                                ",
"                                                                "
};
