/* XPM */
static char *result[] = {
/* columns rows colors chars-per-pixel */
"46 52 21 1 ",
"  c black",
". c #202720",
"X c #480800",
"o c #60472F",
"O c #183840",
"+ c #2E6B7A",
"@ c #806F3F",
"# c #C27848",
"$ c #408000",
"% c #6FAF10",
"& c #FFA400",
"* c #E9982D",
"= c yellow",
"- c #FABF57",
"; c #F0A860",
": c #F0E579",
"> c #F8D8B0",
", c #BCDEE6",
"< c #D1DCC3",
"1 c #F8F8F8",
"2 c None",
/* pixels */
"22222222222222222222        222222222222222222",
"22222222222222222222        222222222222222222",
"2222222222222222    %%%%%%%%      222222222222",
"2222222222222222    %%%%%%%%      222222222222",
"22222222222222  %%%%%%$$$$$$%%%%%%  2222222222",
"22222222222222  %%%%%%$$$$$$%%%%%%  2222222222",
"222222222222  %%%%%%$$$$    $$$$$$$$    222222",
"222222222222  %%%%%%$$$$    $$$$$$$$    222222",
"222222222222  %%%%$$    ------      ----    22",
"222222222222  %%%%$$    ------      ----    22",
"2222222222  %%%%$$  --::::::::::::::::    2222",
"2222222222  %%%%$$  --::::::::::::::::    2222",
"2222222222  %%$$  ::::::----::::--::----**    ",
"2222222222  %%$$  ::::::----::::--::----**    ",
"22222222  %%%%  --::::--**********--****  2222",
"22222222  %%%%  --::::--**********--****  2222",
"22222222  %%%%  ::--****        ******      22",
"22222222  %%%%  ::--****        ******      22",
"22222222  %%%%  ******  ##;;;;;;          2222",
"22222222  %%%%  ******  ##;;;;;;          2222",
"22222222  %%%%XXXXXXXX  ;;>>XXXX;;##XX22222222",
"22222222  %%%%XXXXXXXX  ;;>>XXXX;;##XX22222222",
"22222222  $$%%XX;;>>  ;;>>>>,,++>>;;XX22222222",
"22222222  $$%%XX;;>>  ;;>>>>,,++>>;;XX22222222",
"22222222  $$$$::XX  ::  >>>>11OO>>>>XX22222222",
"22222222  $$$$::XX  ::  >>>>11OO>>>>XX22222222",
"22222222  $$$$  ::  --  ;;>>>>>>####XX22222222",
"22222222  $$$$  ::  --  ;;>>>>>>####XX22222222",
"2222222222  $$$$  ;;  XX####;;##XXXX2222222222",
"2222222222  $$$$  ;;  XX####;;##XXXX2222222222",
"2222222222  $$    XX  XXXXXXXXXX22222222222222",
"2222222222  $$    XX  XXXXXXXXXX22222222222222",
"222222222222    22      %%..%%  22222222222222",
"222222222222    22      %%..%%  22222222222222",
"222222222222  2222  %%..<<..%%  22222222222222",
"222222222222  2222  %%..<<..%%  22222222222222",
"2222222222222222    %%....oo..==  222222222222",
"2222222222222222    %%....oo..==  222222222222",
"2222222222222222    @@@@..>>..&&  222222222222",
"2222222222222222    @@@@..>>..&&  222222222222",
"222222222222222222  oooo......oo  222222222222",
"222222222222222222  oooo......oo  222222222222",
"222222222222222222  $$$$$$$$$$$$  222222222222",
"222222222222222222  $$$$$$$$$$$$  222222222222",
"222222222222222222  $$%%$$      22222222222222",
"222222222222222222  $$%%$$      22222222222222",
"2222222222222222          @@    22222222222222",
"2222222222222222          @@    22222222222222",
"2222222222222222  oo@@@@@@  222222222222222222",
"2222222222222222  oo@@@@@@  222222222222222222",
"222222222222222222        22222222222222222222",
"222222222222222222        22222222222222222222"
};
