/* XPM */
static char *result[] = {
/* columns rows colors chars-per-pixel */
"46 52 22 1 ",
"  c black",
". c #202720",
"X c #480800",
"o c #60472F",
"O c #183840",
"+ c #2E6B7A",
"@ c #806F3F",
"# c #C27848",
"$ c #408000",
"% c #6FAF10",
"& c #FFA400",
"* c #E9982D",
"= c yellow",
"- c #FABF57",
"; c #F0A860",
": c #F0E579",
"> c #808080",
", c #F8D8B0",
"< c #BCDEE6",
"1 c #D1DCC3",
"2 c #F8F8F8",
"3 c None",
/* pixels */
"3333333333333333333333333333333333333333333333",
"3333333333333333333333333333333333333333333333",
"3333333333333333333333333333333333333333333333",
"3333333333333333333333333333333333333333333333",
"333333333333333333        33333333333333333333",
"333333333333333333        33333333333333333333",
"33333333333333    %%%%%%%%    3333333333333333",
"33333333333333    %%%%%%%%    3333333333333333",
"333333333333  %%$$$$    $$$$%%  33333333333333",
"333333333333  %%$$$$    $$$$%%  33333333333333",
"3333333333      ----::::::--$$%%  333333333333",
"3333333333      ----::::::--$$%%  333333333333",
"3333333333  --::::::::::::::::        33333333",
"3333333333  --::::::::::::::::        33333333",
"33333333  --::::::--**--::::::::------    3333",
"33333333  --::::::--**--::::::::------    3333",
"33333333  ::::--********--::::::::--    333333",
"33333333  ::::--********--::::::::--    333333",
"33333333  **--****    ****--::----******    33",
"33333333  **--****    ****--::----******    33",
"33333333  ******  ####    ******--****  333333",
"33333333  ******  ####    ******--****  333333",
"333333XXXX  **  ##;;;;;;##    ****        3333",
"333333XXXX  **  ##;;;;;;##    ****        3333",
"333333XX;;,,  ##XXXX,,,,,,XXXX    ,,;;XX333333",
"333333XX;;,,  ##XXXX,,,,,,XXXX    ,,;;XX333333",
"33333333XX  ::  <<++,,,,,,++<<;;  XXXX33333333",
"33333333XX  ::  <<++,,,,,,++<<;;  XXXX33333333",
"3333333333  --  22OO,,,,,,OO22XX33333333333333",
"3333333333  --  22OO,,,,,,OO22XX33333333333333",
"333333333333  XX##;;,,,,,,;;##XX33333333333333",
"333333333333  XX##;;,,,,,,;;##XX33333333333333",
"33333333333333  XX##;;;;;;##XX  33333333333333",
"33333333333333  XX##;;;;;;##XX  33333333333333",
"333333333333  11%%XXXXXXXXXX  11  333333333333",
"333333333333  11%%XXXXXXXXXX  11  333333333333",
"333333333333  11  %%111111    11  333333333333",
"333333333333  11  %%111111    11  333333333333",
"333333333333  >>  $$%%%%%%  ,,@@  333333333333",
"333333333333  >>  $$%%%%%%  ,,@@  333333333333",
"33333333333333  @@@@@@@@@@      oo333333333333",
"33333333333333  @@@@@@@@@@      oo333333333333",
"333333333333  ..      ==@@oooo  33333333333333",
"333333333333  ..      ==@@oooo  33333333333333",
"333333333333  @@@@@@  &&oo$$$$  33333333333333",
"333333333333  @@@@@@  &&oo$$$$  33333333333333",
"333333333333  @@@@@@  $$$$      33333333333333",
"333333333333  @@@@@@  $$$$      33333333333333",
"333333333333..oooooo..        3333333333333333",
"333333333333..oooooo..        3333333333333333",
"33333333333333......33......333333333333333333",
"33333333333333......33......333333333333333333"
};
