/* XPM */
static char *result[] = {
/* columns rows colors chars-per-pixel */
"46 52 15 1 ",
"  c black",
". c #202720",
"X c #480800",
"o c #60472F",
"O c #806F3F",
"+ c #408000",
"@ c #6FAF10",
"# c #E9982D",
"$ c #FABF57",
"% c #F0A860",
"& c #F0E579",
"* c #808080",
"= c #F8D8B0",
"- c #D1DCC3",
"; c None",
/* pixels */
";;;;;;;;;;;;;;;;;;;;;;;;;;;;;;;;;;;;;;;;;;;;;;",
";;;;;;;;;;;;;;;;;;;;;;;;;;;;;;;;;;;;;;;;;;;;;;",
";;;;;;;;;;;;;;;;;;;;        ;;;;;;;;;;;;;;;;;;",
";;;;;;;;;;;;;;;;;;;;        ;;;;;;;;;;;;;;;;;;",
";;;;;;;;;;;;;;;;    ++@@@@++    ;;;;;;;;;;;;;;",
";;;;;;;;;;;;;;;;    ++@@@@++    ;;;;;;;;;;;;;;",
";;;;;;;;;;;;;;  ++@@@@@@@@@@@@++  ;;;;;;;;;;;;",
";;;;;;;;;;;;;;  ++@@@@@@@@@@@@++  ;;;;;;;;;;;;",
";;;;;;;;;;;;  ++@@@@@@@@@@@@@@@@++  ;;;;;;;;;;",
";;;;;;;;;;;;  ++@@@@@@@@@@@@@@@@++  ;;;;;;;;;;",
";;;;;;;;      ++@@@@@@@@@@@@@@@@++  ;;;;;;;;;;",
";;;;;;;;      ++@@@@@@@@@@@@@@@@++  ;;;;;;;;;;",
";;;;    $$$$  @@@@@@@@@@@@@@@@@@  $$  ;;;;;;;;",
";;;;    $$$$  @@@@@@@@@@@@@@@@@@  $$  ;;;;;;;;",
";;;;;;    $$  @@@@@@@@@@@@@@@@@@  &&  ;;;;;;;;",
";;;;;;    $$  @@@@@@@@@@@@@@@@@@  &&  ;;;;;;;;",
";;    ######  @@@@@@@@@@@@@@@@@@  ##  ;;;;;;;;",
";;    ######  @@@@@@@@@@@@@@@@@@  ##  ;;;;;;;;",
";;;;;;  ####  ++@@@@@@@@@@@@@@++  ##  ;;;;;;;;",
";;;;;;  ####  ++@@@@@@@@@@@@@@++  ##  ;;;;;;;;",
";;;;        ##  ++@@@@@@@@@@++  ##  XXXX;;;;;;",
";;;;        ##  ++@@@@@@@@@@++  ##  XXXX;;;;;;",
";;;;;;XX%%==    ++@@@@@@@@@@++    ==%%XX;;;;;;",
";;;;;;XX%%==    ++@@@@@@@@@@++    ==%%XX;;;;;;",
";;;;;;;;XXXX  %%  ++@@@@@@++  ..&&  XX;;;;;;;;",
";;;;;;;;XXXX  %%  ++@@@@@@++  ..&&  XX;;;;;;;;",
";;;;;;;;;;;;;;XX  ++++@@++++  ..$$  ;;;;;;;;;;",
";;;;;;;;;;;;;;XX  ++++@@++++  ..$$  ;;;;;;;;;;",
";;;;;;;;;;;;;;XX##  ++++++  ##XX  ;;;;;;;;;;;;",
";;;;;;;;;;;;;;XX##  ++++++  ##XX  ;;;;;;;;;;;;",
";;;;;;;;;;;;;;  XX  ++++++  XX  ;;;;;;;;;;;;;;",
";;;;;;;;;;;;;;  XX  ++++++  XX  ;;;;;;;;;;;;;;",
";;;;;;;;;;;;  --  XX  ++  XX@@--  ;;;;;;;;;;;;",
";;;;;;;;;;;;  --  XX  ++  XX@@--  ;;;;;;;;;;;;",
";;;;;;;;;;;;  --@@@@@@  @@@@  --  ;;;;;;;;;;;;",
";;;;;;;;;;;;  --@@@@@@  @@@@  --  ;;;;;;;;;;;;",
";;;;;;;;;;;;      @@@@@@@@++  **  ;;;;;;;;;;;;",
";;;;;;;;;;;;      @@@@@@@@++  **  ;;;;;;;;;;;;",
";;;;;;;;;;;;  ==  OO@@@@@@OOOO  ;;;;;;;;;;;;;;",
";;;;;;;;;;;;  ==  OO@@@@@@OOOO  ;;;;;;;;;;;;;;",
";;;;;;;;;;;;      OOOOOO      ..  ;;;;;;;;;;;;",
";;;;;;;;;;;;      OOOOOO      ..  ;;;;;;;;;;;;",
";;;;;;;;;;;;;;  ++++oooo  OOOOOO  ;;;;;;;;;;;;",
";;;;;;;;;;;;;;  ++++oooo  OOOOOO  ;;;;;;;;;;;;",
";;;;;;;;;;;;;;      ++++  OOOOOO  ;;;;;;;;;;;;",
";;;;;;;;;;;;;;      ++++  OOOOOO  ;;;;;;;;;;;;",
";;;;;;;;;;;;;;..        ..oooooo..;;;;;;;;;;;;",
";;;;;;;;;;;;;;..        ..oooooo..;;;;;;;;;;;;",
";;;;;;;;;;;;;;;;..................;;;;;;;;;;;;",
";;;;;;;;;;;;;;;;..................;;;;;;;;;;;;",
";;;;;;;;;;;;;;;;;;;;;;;;;;......;;;;;;;;;;;;;;",
";;;;;;;;;;;;;;;;;;;;;;;;;;......;;;;;;;;;;;;;;"
};
