/* XPM */
static char *result[] = {
/* columns rows colors chars-per-pixel */
"46 52 19 1 ",
"  c black",
". c #202720",
"X c #480800",
"o c #60472F",
"O c #183840",
"+ c #2E6B7A",
"@ c #806F3F",
"# c #C27848",
"$ c #408000",
"% c #6FAF10",
"& c #E9982D",
"* c #FABF57",
"= c #F0A860",
"- c #F0E579",
"; c #F8D8B0",
": c #BCDEE6",
"> c #D1DCC3",
", c #F8F8F8",
"< c None",
/* pixels */
"<<<<<<<<<<<<<<<<<<<<<<<<<<<<<<<<<<<<<<<<<<<<<<",
"<<<<<<<<<<<<<<<<<<<<<<<<<<<<<<<<<<<<<<<<<<<<<<",
"<<<<<<<<<<<<<<<<<<<<        <<<<<<<<<<<<<<<<<<",
"<<<<<<<<<<<<<<<<<<<<        <<<<<<<<<<<<<<<<<<",
"<<<<<<<<<<<<<<<<    %%%%%%%%      <<<<<<<<<<<<",
"<<<<<<<<<<<<<<<<    %%%%%%%%      <<<<<<<<<<<<",
"<<<<<<<<<<<<<<  %%%%%%$$$$$$%%%%%%  <<  <<<<<<",
"<<<<<<<<<<<<<<  %%%%%%$$$$$$%%%%%%  <<  <<<<<<",
"<<<<<<<<<<<<  %%%%%%$$$$    $$$$$$$$  **    <<",
"<<<<<<<<<<<<  %%%%%%$$$$    $$$$$$$$  **    <<",
"<<<<<<<<<<<<  %%%%$$    ******      **    <<<<",
"<<<<<<<<<<<<  %%%%$$    ******      **    <<<<",
"<<<<<<<<<<  %%%%$$  **----------------**&&    ",
"<<<<<<<<<<  %%%%$$  **----------------**&&    ",
"<<<<<<<<<<  %%$$  ------****----**--**&&  <<<<",
"<<<<<<<<<<  %%$$  ------****----**--**&&  <<<<",
"<<<<<<<<  %%%%  **----**&&&&&&&&&&**&&      <<",
"<<<<<<<<  %%%%  **----**&&&&&&&&&&**&&      <<",
"<<<<<<<<  %%%%  --**&&&&        &&&&&&    <<<<",
"<<<<<<<<  %%%%  --**&&&&        &&&&&&    <<<<",
"<<<<<<<<  %%%%  &&&&&&  ##======      <<<<<<<<",
"<<<<<<<<  %%%%  &&&&&&  ##======      <<<<<<<<",
"<<<<<<<<  %%%%XXXXXXXX  ==;;XXXX==##XX<<<<<<<<",
"<<<<<<<<  %%%%XXXXXXXX  ==;;XXXX==##XX<<<<<<<<",
"<<<<<<<<  $$%%XX==;;  ==;;;;::++;;==XX<<<<<<<<",
"<<<<<<<<  $$%%XX==;;  ==;;;;::++;;==XX<<<<<<<<",
"<<<<<<<<  $$$$--XX  --  ;;;;,,OO;;;;XX<<<<<<<<",
"<<<<<<<<  $$$$--XX  --  ;;;;,,OO;;;;XX<<<<<<<<",
"<<<<<<<<  $$$$  --  **  ==;;;;;;####XX<<<<<<<<",
"<<<<<<<<  $$$$  --  **  ==;;;;;;####XX<<<<<<<<",
"<<<<<<<<<<  $$$$  ==  XX####==##XXXX<<<<<<<<<<",
"<<<<<<<<<<  $$$$  ==  XX####==##XXXX<<<<<<<<<<",
"<<<<<<<<<<  $$    XX  XX....XXXX<<<<<<<<<<<<<<",
"<<<<<<<<<<  $$    XX  XX....XXXX<<<<<<<<<<<<<<",
"<<<<<<<<<<<<    <<      $$$$%%  <<<<<<<<<<<<<<",
"<<<<<<<<<<<<    <<      $$$$%%  <<<<<<<<<<<<<<",
"<<<<<<<<<<<<  <<<<  %%$$..>>..  <<<<<<<<<<<<<<",
"<<<<<<<<<<<<  <<<<  %%$$..>>..  <<<<<<<<<<<<<<",
"<<<<<<<<<<<<<<<<    %%%%  ......<<<<<<<<<<<<<<",
"<<<<<<<<<<<<<<<<    %%%%  ......<<<<<<<<<<<<<<",
"<<<<<<<<<<<<<<  ;;  @@@@..oo;;..<<<<<<<<<<<<<<",
"<<<<<<<<<<<<<<  ;;  @@@@..oo;;..<<<<<<<<<<<<<<",
"<<<<<<<<<<<<<<<<    oooooo......<<<<<<<<<<<<<<",
"<<<<<<<<<<<<<<<<    oooooo......<<<<<<<<<<<<<<",
"<<<<<<<<<<<<<<  oo  $$$$%%%%%%$$  <<<<<<<<<<<<",
"<<<<<<<<<<<<<<  oo  $$$$%%%%%%$$  <<<<<<<<<<<<",
"<<<<<<<<<<<<<<  oo  $$%%$$        <<<<<<<<<<<<",
"<<<<<<<<<<<<<<  oo  $$%%$$        <<<<<<<<<<<<",
"<<<<<<<<<<<<<<  oo          oo@@  <<<<<<<<<<<<",
"<<<<<<<<<<<<<<  oo          oo@@  <<<<<<<<<<<<",
"<<<<<<<<<<<<<<<<      <<<<<<      <<<<<<<<<<<<",
"<<<<<<<<<<<<<<<<      <<<<<<      <<<<<<<<<<<<"
};
