/* XPM */
static char *result[] = {
/* columns rows colors chars-per-pixel */
"64 64 4 1 ",
"  c black",
". c #004F08",
"X c #008F32",
"o c #45E082",
/* pixels */
"    ....            ..  ......oo............ooooXXXXXX..  ooXXXX",
"    ....            ..  ......oo............ooooXXXXXX..  ooXXXX",
"    ....  ....  ..XXoo  ......oo..XXooooooooXXooXXXXXX..  ooXXXX",
"    ....  ....  ..XXoo  ......oo..XXooooooooXXooXXXXXX..  ooXXXX",
"    ....  ....  ....XX  ......oo..XXXXXXXXXXooooXXXXXX..  oooooo",
"    ....  ....  ....XX  ......oo..XXXXXXXXXXooooXXXXXX..  oooooo",
"    ....  ....  ....XX  ......oo..XXXXXXXXXXooooXXXXXX..        ",
"    ....  ....  ....XX  ......oo..XXXXXXXXXXooooXXXXXX..        ",
"    ....  ....  ....XX  ......oo..XXXXXXXXXXooooXXXXXXoo........",
"    ....  ....  ....XX  ......oo..XXXXXXXXXXooooXXXXXXoo........",
"    ....  ....  ....XX  ......oo..XXXXXXXXXXooooXXXXooXXXXXXXXXX",
"    ....  ....  ....XX  ......oo..XXXXXXXXXXooooXXXXooXXXXXXXXXX",
"    ....  ....  ....XX  ......oo..XXXXXXXXXXooooXXooXXXXXXXXXXXX",
"    ....  ....  ....XX  ......oo..XXXXXXXXXXooooXXooXXXXXXXXXXXX",
"    ....  ....  ....XX  ......oo..XXXXXXXXXXoooo..XXXXXXXXXXXXXX",
"    ....  ....  ....XX  ......oo..XXXXXXXXXXoooo..XXXXXXXXXXXXXX",
"    ....        ....XX        ....XXXXXXXXXXoooooooooooooooooooo",
"    ....        ....XX        ....XXXXXXXXXXoooooooooooooooooooo",
"    ....  ....  ....XX  XXoooo....XXXXXXXXXXoooooooooooooooooooo",
"    ....  ....  ....XX  XXoooo....XXXXXXXXXXoooooooooooooooooooo",
"    ....  ....  ....XX  ......oo..XXXXXXXXooXXXXXXXXXXXXXXXXXXXX",
"    ....  ....  ....XX  ......oo..XXXXXXXXooXXXXXXXXXXXXXXXXXXXX",
"    ....  ....  ....XX  ......oo..XXXXXXooXXXXXXXXXXXXXXXXXXXXXX",
"    ....  ....  ....XX  ......oo..XXXXXXooXXXXXXXXXXXXXXXXXXXXXX",
"    ....  ....  ....XX  ......oo..XXXXooXXXXXXXXXXXXXXXXXXXXXXXX",
"    ....  ....  ....XX  ......oo..XXXXooXXXXXXXXXXXXXXXXXXXXXXXX",
"    ....  ....  ....XX  ......oo..XXooXXXXXXXXXXXXXXXXXXXXXXXXXX",
"    ....  ....  ....XX  ......oo..XXooXXXXXXXXXXXXXXXXXXXXXXXXXX",
"    ....  ....  ....XX  ......oo..ooXXXXXXXXXXXXXXXXXXXXXXXXXXXX",
"    ....  ....  ....XX  ......oo..ooXXXXXXXXXXXXXXXXXXXXXXXXXXXX",
"    ....  ....  ....XX  ......oo  ..............................",
"    ....  ....  ....XX  ......oo  ..............................",
"    ....        ....XX  ......XXooooooooooooooooXXXXoooooooooooo",
"    ....        ....XX  ......XXooooooooooooooooXXXXoooooooooooo",
"    ....  ....  ....XX  ....XX....................oo............",
"    ....  ....  ....XX  ....XX....................oo............",
"    ....  ....  ....XX  ..XX....................  oo............",
"    ....  ....  ....XX  ..XX....................  oo............",
"    ....  ....  ....XX  XX......................  XX............",
"    ....  ....  ....XX  XX......................  XX............",
"    ....  ....  ....XX                                          ",
"    ....  ....  ....XX                                          ",
"    ....  ....  ....ooXXXXXXXXXX  XXXXXXXXXXXXXXXXXXXXXXXXXXXXXX",
"    ....  ....  ....ooXXXXXXXXXX  XXXXXXXXXXXXXXXXXXXXXXXXXXXXXX",
"    ....  ....  ..XX............  XX............................",
"    ....  ....  ..XX............  XX............................",
"    ....  ....  XX..............  ..............................",
"    ....  ....  XX..............  ..............................",
"    ....  ....                                                  ",
"    ....  ....                                                  ",
"    ....  ..XX..................................................",
"    ....  ..XX..................................................",
"    ....  XX....................................................",
"    ....  XX....................................................",
"    ....                                                        ",
"    ....                                                        ",
"    ..XX......................  ..............  ..............  ",
"    ..XX......................  ..............  ..............  ",
"    XX........................  ..............  ..............  ",
"    XX........................  ..............  ..............  ",
"                                                                ",
"                                                                ",
"                                                                ",
"                                                                "
};
