/* XPM */
static char *result[] = {
/* columns rows colors chars-per-pixel */
"64 64 4 1 ",
"  c black",
". c #004F08",
"X c #008F32",
"o c #45E082",
/* pixels */
"                                                                ",
"                                                                ",
"                                                                ",
"                                                                ",
"  ..............  ..............  ........................XX    ",
"  ..............  ..............  ........................XX    ",
"  ..............  ..............  ......................XX..    ",
"  ..............  ..............  ......................XX..    ",
"                                                        ....    ",
"                                                        ....    ",
"....................................................XX  ....    ",
"....................................................XX  ....    ",
"..................................................XX..  ....    ",
"..................................................XX..  ....    ",
"                                                  ....  ....    ",
"                                                  ....  ....    ",
"..............................  ..............XX  ....  ....    ",
"..............................  ..............XX  ....  ....    ",
"............................XX  ............XX..  ....  ....    ",
"............................XX  ............XX..  ....  ....    ",
"XXXXXXXXXXXXXXXXXXXXXXXXXXXXXX  XXXXXXXXXXoo....  ....  ....    ",
"XXXXXXXXXXXXXXXXXXXXXXXXXXXXXX  XXXXXXXXXXoo....  ....  ....    ",
"                                          XX....  ....  ....    ",
"                                          XX....  ....  ....    ",
"............XX  ......................XX  XX....  ....  ....    ",
"............XX  ......................XX  XX....  ....  ....    ",
"............oo  ....................XX..  XX....  ....  ....    ",
"............oo  ....................XX..  XX....  ....  ....    ",
"............oo....................XX....  XX....  ....  ....    ",
"............oo....................XX....  XX....  ....  ....    ",
"ooooooooooooXXXXooooooooooooooooXX......  XX....        ....    ",
"ooooooooooooXXXXooooooooooooooooXX......  XX....        ....    ",
"..............................  oo......  XX....  ....  ....    ",
"..............................  oo......  XX....  ....  ....    ",
"XXXXXXXXXXXXXXXXXXXXXXXXXXXXoo..oo......  XX....  ....  ....    ",
"XXXXXXXXXXXXXXXXXXXXXXXXXXXXoo..oo......  XX....  ....  ....    ",
"XXXXXXXXXXXXXXXXXXXXXXXXXXooXX..oo......  XX....  ....  ....    ",
"XXXXXXXXXXXXXXXXXXXXXXXXXXooXX..oo......  XX....  ....  ....    ",
"XXXXXXXXXXXXXXXXXXXXXXXXooXXXX..oo......  XX....  ....  ....    ",
"XXXXXXXXXXXXXXXXXXXXXXXXooXXXX..oo......  XX....  ....  ....    ",
"XXXXXXXXXXXXXXXXXXXXXXooXXXXXX..oo......  XX....  ....  ....    ",
"XXXXXXXXXXXXXXXXXXXXXXooXXXXXX..oo......  XX....  ....  ....    ",
"XXXXXXXXXXXXXXXXXXXXooXXXXXXXX..oo......  XX....  ....  ....    ",
"XXXXXXXXXXXXXXXXXXXXooXXXXXXXX..oo......  XX....  ....  ....    ",
"ooooooooooooooooooooXXXXXXXXXX....ooooXX  XX....  ....  ....    ",
"ooooooooooooooooooooXXXXXXXXXX....ooooXX  XX....  ....  ....    ",
"ooooooooooooooooooooXXXXXXXXXX....        XX....        ....    ",
"ooooooooooooooooooooXXXXXXXXXX....        XX....        ....    ",
"XXXXXXXXXXXXXX..ooooXXXXXXXXXX..oo......  XX....  ....  ....    ",
"XXXXXXXXXXXXXX..ooooXXXXXXXXXX..oo......  XX....  ....  ....    ",
"XXXXXXXXXXXXooXXooooXXXXXXXXXX..oo......  XX....  ....  ....    ",
"XXXXXXXXXXXXooXXooooXXXXXXXXXX..oo......  XX....  ....  ....    ",
"XXXXXXXXXXooXXXXooooXXXXXXXXXX..oo......  XX....  ....  ....    ",
"XXXXXXXXXXooXXXXooooXXXXXXXXXX..oo......  XX....  ....  ....    ",
"........ooXXXXXXooooXXXXXXXXXX..oo......  XX....  ....  ....    ",
"........ooXXXXXXooooXXXXXXXXXX..oo......  XX....  ....  ....    ",
"        ..XXXXXXooooXXXXXXXXXX..oo......  XX....  ....  ....    ",
"        ..XXXXXXooooXXXXXXXXXX..oo......  XX....  ....  ....    ",
"oooooo  ..XXXXXXooooXXXXXXXXXX..oo......  XX....  ....  ....    ",
"oooooo  ..XXXXXXooooXXXXXXXXXX..oo......  XX....  ....  ....    ",
"XXXXoo  ..XXXXXXooXXooooooooXX..oo......  ooXX..  ....  ....    ",
"XXXXoo  ..XXXXXXooXXooooooooXX..oo......  ooXX..  ....  ....    ",
"XXXXoo  ..XXXXXXoooo............oo......  ..            ....    ",
"XXXXoo  ..XXXXXXoooo............oo......  ..            ....    "
};
