/* XPM */
static char *result[] = {
/* columns rows colors chars-per-pixel */
"64 64 4 1 ",
"  c black",
". c #004F08",
"X c #008F32",
"o c #45E082",
/* pixels */
"                                                                ",
"                                                                ",
"                                                                ",
"                                                                ",
"    XX..........................................................",
"    XX..........................................................",
"    ..XX........................................................",
"    ..XX........................................................",
"    ....                                                        ",
"    ....                                                        ",
"    ....  XX..................  ..............  ..............  ",
"    ....  XX..................  ..............  ..............  ",
"    ....  ..XX................  ..............  ..............  ",
"    ....  ..XX................  ..............  ..............  ",
"    ....  ....                                                  ",
"    ....  ....                                                  ",
"    ....  ....  XX............................................  ",
"    ....  ....  XX............................................  ",
"    ....  ....  ..XX........................................XX  ",
"    ....  ....  ..XX........................................XX  ",
"    ....  ....  ....ooXXXXXXXXXXXXXXXXXXXXXXXXXXXXXXXXXXXXXXoo..",
"    ....  ....  ....ooXXXXXXXXXXXXXXXXXXXXXXXXXXXXXXXXXXXXXXoo..",
"    ....  ....  ....XX                                          ",
"    ....  ....  ....XX                                          ",
"    ....  ....  ....XX  XX..................XX  ................",
"    ....  ....  ....XX  XX..................XX  ................",
"    ....  ....  ....XX  ..XX................oo  ................",
"    ....  ....  ....XX  ..XX................oo  ................",
"    ....  ....  ....XX  ....XX..............oo  ................",
"    ....  ....  ....XX  ....XX..............oo  ................",
"          ....  ....XX  ......XXoooooooooooo....oooooooooooooooo",
"          ....  ....XX  ......XXoooooooooooo....oooooooooooooooo",
"    ....  ....          ......oo  ..............................",
"    ....  ....          ......oo  ..............................",
"    ....  ....  ..XXXX  ......oo..ooXXXXXXXXXXXXXXXXXXXXXXXXXX..",
"    ....  ....  ..XXXX  ......oo..ooXXXXXXXXXXXXXXXXXXXXXXXXXX..",
"    ....  ....  ....XX  ......oo..XXooXXXXXXXXXXXXXXXXXXXXXXoo..",
"    ....  ....  ....XX  ......oo..XXooXXXXXXXXXXXXXXXXXXXXXXoo..",
"    ....  ....  ....XX  ......oo..XXXXooXXXXXXXXXXXXXXXXXXXXoo..",
"    ....  ....  ....XX  ......oo..XXXXooXXXXXXXXXXXXXXXXXXXXoo..",
"    ....  ....  ....XX  ......oo..XXXXXXooXXXXXXXXXXXXXXXXXXoo..",
"    ....  ....  ....XX  ......oo..XXXXXXooXXXXXXXXXXXXXXXXXXoo..",
"    ....  ....  ....XX  ......oo..XXXXXXXXooXXXXXXXXXXXXXXXXoo..",
"    ....  ....  ....XX  ......oo..XXXXXXXXooXXXXXXXXXXXXXXXXoo..",
"    ....  ....  ....XX  ......oo..XXXXXXXXXXooooooooooooooooXXoo",
"    ....  ....  ....XX  ......oo..XXXXXXXXXXooooooooooooooooXXoo",
"          ....  ....XX  ......oo..XXXXXXXXXXoooooooooooooooooooo",
"          ....  ....XX  ......oo..XXXXXXXXXXoooooooooooooooooooo",
"    ....  ....  ....XX      ..XX..XXXXXXXXXXoooo..XXXXXXXXXXXXXX",
"    ....  ....  ....XX      ..XX..XXXXXXXXXXoooo..XXXXXXXXXXXXXX",
"    ....  ....  ....XX  XXooooXX..XXXXXXXXXXooooXXooXXXXXXXXXXXX",
"    ....  ....  ....XX  XXooooXX..XXXXXXXXXXooooXXooXXXXXXXXXXXX",
"    ....  ....  ....XX  ......oo..XXXXXXXXXXooooXXXXooXXXXXXXXXX",
"    ....  ....  ....XX  ......oo..XXXXXXXXXXooooXXXXooXXXXXXXXXX",
"    ....  ....  ....XX  ......oo..XXXXXXXXXXooooXXXXXXoo........",
"    ....  ....  ....XX  ......oo..XXXXXXXXXXooooXXXXXXoo........",
"    ....  ....  ....XX  ......oo..XXXXXXXXXXooooXXXXXX..        ",
"    ....  ....  ....XX  ......oo..XXXXXXXXXXooooXXXXXX..        ",
"    ....  ....  ....XX  ......oo..XXXXXXXXXXooooXXXXXX..  oooooo",
"    ....  ....  ....XX  ......oo..XXXXXXXXXXooooXXXXXX..  oooooo",
"    ....  ....  ....XX  ......oo..XXXXXXXXXXooooXXXXXX..  ooXXXX",
"    ....  ....  ....XX  ......oo..XXXXXXXXXXooooXXXXXX..  ooXXXX",
"          ....  ....XX  ......oo..XXXXXXXXXXooooXXXXXX..  ooXXXX",
"          ....  ....XX  ......oo..XXXXXXXXXXooooXXXXXX..  ooXXXX"
};
