/* XPM */
static char *result[] = {
/* columns rows colors chars-per-pixel */
"64 64 4 1 ",
"  c black",
". c #004F08",
"X c #008F32",
"o c #45E082",
/* pixels */
"XXXXoo  ..XXXXXXooooXXXXXXXXXX..oo......  XX....  ....          ",
"XXXXoo  ..XXXXXXooooXXXXXXXXXX..oo......  XX....  ....          ",
"XXXXoo  ..XXXXXXooooXXXXXXXXXX..oo......  XX....  ....  ....    ",
"XXXXoo  ..XXXXXXooooXXXXXXXXXX..oo......  XX....  ....  ....    ",
"oooooo  ..XXXXXXooooXXXXXXXXXX..oo......  XX....  ....  ....    ",
"oooooo  ..XXXXXXooooXXXXXXXXXX..oo......  XX....  ....  ....    ",
"        ..XXXXXXooooXXXXXXXXXX..oo......  XX....  ....  ....    ",
"        ..XXXXXXooooXXXXXXXXXX..oo......  XX....  ....  ....    ",
"........ooXXXXXXooooXXXXXXXXXX..oo......  XX....  ....  ....    ",
"........ooXXXXXXooooXXXXXXXXXX..oo......  XX....  ....  ....    ",
"XXXXXXXXXXooXXXXooooXXXXXXXXXX..oo......  XX....  ....  ....    ",
"XXXXXXXXXXooXXXXooooXXXXXXXXXX..oo......  XX....  ....  ....    ",
"XXXXXXXXXXXXooXXooooXXXXXXXXXX..XXooooXX  XX....  ....  ....    ",
"XXXXXXXXXXXXooXXooooXXXXXXXXXX..XXooooXX  XX....  ....  ....    ",
"XXXXXXXXXXXXXX..ooooXXXXXXXXXX..XX..      XX....  ....  ....    ",
"XXXXXXXXXXXXXX..ooooXXXXXXXXXX..XX..      XX....  ....  ....    ",
"ooooooooooooooooooooXXXXXXXXXX..oo......  XX....  ....          ",
"ooooooooooooooooooooXXXXXXXXXX..oo......  XX....  ....          ",
"ooXXooooooooooooooooXXXXXXXXXX..oo......  XX....  ....  ....    ",
"ooXXooooooooooooooooXXXXXXXXXX..oo......  XX....  ....  ....    ",
"..ooXXXXXXXXXXXXXXXXooXXXXXXXX..oo......  XX....  ....  ....    ",
"..ooXXXXXXXXXXXXXXXXooXXXXXXXX..oo......  XX....  ....  ....    ",
"..ooXXXXXXXXXXXXXXXXXXooXXXXXX..oo......  XX....  ....  ....    ",
"..ooXXXXXXXXXXXXXXXXXXooXXXXXX..oo......  XX....  ....  ....    ",
"..ooXXXXXXXXXXXXXXXXXXXXooXXXX..oo......  XX....  ....  ....    ",
"..ooXXXXXXXXXXXXXXXXXXXXooXXXX..oo......  XX....  ....  ....    ",
"..ooXXXXXXXXXXXXXXXXXXXXXXooXX..oo......  XX....  ....  ....    ",
"..ooXXXXXXXXXXXXXXXXXXXXXXooXX..oo......  XX....  ....  ....    ",
"..XXXXXXXXXXXXXXXXXXXXXXXXXXoo..oo......  XXXX..  ....  ....    ",
"..XXXXXXXXXXXXXXXXXXXXXXXXXXoo..oo......  XXXX..  ....  ....    ",
"..............................  oo......          ....  ....    ",
"..............................  oo......          ....  ....    ",
"oooooooooooooooo....ooooooooooooXX......  XX....  ....          ",
"oooooooooooooooo....ooooooooooooXX......  XX....  ....          ",
"................  oo..............XX....  XX....  ....  ....    ",
"................  oo..............XX....  XX....  ....  ....    ",
"................  oo................XX..  XX....  ....  ....    ",
"................  oo................XX..  XX....  ....  ....    ",
"................  XX..................XX  XX....  ....  ....    ",
"................  XX..................XX  XX....  ....  ....    ",
"                                          XX....  ....  ....    ",
"                                          XX....  ....  ....    ",
"..ooXXXXXXXXXXXXXXXXXXXXXXXXXXXXXXXXXXXXXXoo....  ....  ....    ",
"..ooXXXXXXXXXXXXXXXXXXXXXXXXXXXXXXXXXXXXXXoo....  ....  ....    ",
"  XX........................................XX..  ....  ....    ",
"  XX........................................XX..  ....  ....    ",
"  ............................................XX  ....  ....    ",
"  ............................................XX  ....  ....    ",
"                                                  ....  ....    ",
"                                                  ....  ....    ",
"  ..............  ..............  ................XX..  ....    ",
"  ..............  ..............  ................XX..  ....    ",
"  ..............  ..............  ..................XX  ....    ",
"  ..............  ..............  ..................XX  ....    ",
"                                                        ....    ",
"                                                        ....    ",
"........................................................XX..    ",
"........................................................XX..    ",
"..........................................................XX    ",
"..........................................................XX    ",
"                                                                ",
"                                                                ",
"                                                                ",
"                                                                "
};
