/* XPM */
static char *result[] = {
/* columns rows colors chars-per-pixel */
"64 64 6 1 ",
"  c #282828",
". c #489030",
"X c #F8D038",
"o c #98D070",
"O c #F8F8F8",
"+ c None",
/* pixels */
"++++++++++++++++                            ++++++++++++++++++++",
"++++++++++++++++                            ++++++++++++++++++++",
"++++++++++++++++                            ++++++++++++++++++++",
"++++++++++++++++                            ++++++++++++++++++++",
"++++++++++++    XXXXOOOO    ................        ++++++++++++",
"++++++++++++    XXXXOOOO    ................        ++++++++++++",
"++++++++++++    XXXXOOOO    ................        ++++++++++++",
"++++++++++++    XXXXOOOO    ................        ++++++++++++",
"++++++++        XXXXOOOO                    ........    ++++++++",
"++++++++        XXXXOOOO                    ........    ++++++++",
"++++++++        XXXXOOOO                    ........    ++++++++",
"++++++++        XXXXOOOO                    ........    ++++++++",
"++++    ....        XXXXOOOO                        ....    ++++",
"++++    ....        XXXXOOOO                        ....    ++++",
"++++    ....        XXXXOOOO                        ....    ++++",
"++++    ....        XXXXOOOO                        ....    ++++",
"++++    ....        XXXXOOOO    oooooooo            ....    ++++",
"++++    ....        XXXXOOOO    oooooooo            ....    ++++",
"++++    ....        XXXXOOOO    oooooooo            ....    ++++",
"++++    ....        XXXXOOOO    oooooooo            ....    ++++",
"++++    ....    ....    XXXXOOOO    oooooooooooo    ....    ++++",
"++++    ....    ....    XXXXOOOO    oooooooooooo    ....    ++++",
"++++    ....    ....    XXXXOOOO    oooooooooooo    ....    ++++",
"++++    ....    ....    XXXXOOOO    oooooooooooo    ....    ++++",
"++++    ....        ....        ....oooo....        oooo    ++++",
"++++    ....        ....        ....oooo....        oooo    ++++",
"++++    ....        ....        ....oooo....        oooo    ++++",
"++++    ....        ....        ....oooo....        oooo    ++++",
"    ....    ........                        oooooooo    ....    ",
"    ....    ........                        oooooooo    ....    ",
"    ....    ........                        oooooooo    ....    ",
"    ....    ........                        oooooooo    ....    ",
"    ........        ............oooooooooooo        oooo....    ",
"    ........        ............oooooooooooo        oooo....    ",
"    ........        ............oooooooooooo        oooo....    ",
"    ........        ............oooooooooooo        oooo....    ",
"    ................                        oooooooooooo....    ",
"    ................                        oooooooooooo....    ",
"    ................                        oooooooooooo....    ",
"    ................                        oooooooooooo....    ",
"    ............................oooooooooooooooooooooooo....    ",
"    ............................oooooooooooooooooooooooo....    ",
"    ............................oooooooooooooooooooooooo....    ",
"    ............................oooooooooooooooooooooooo....    ",
"++++    ....................oooooooooooooooooooooooo....    ++++",
"++++    ....................oooooooooooooooooooooooo....    ++++",
"++++    ....................oooooooooooooooooooooooo....    ++++",
"++++    ....................oooooooooooooooooooooooo....    ++++",
"++++    ....................oooooooooooooooooooooooo....    ++++",
"++++    ....................oooooooooooooooooooooooo....    ++++",
"++++    ....................oooooooooooooooooooooooo....    ++++",
"++++    ....................oooooooooooooooooooooooo....    ++++",
"++++++++    ....................oooooooooooo........    ++++++++",
"++++++++    ....................oooooooooooo........    ++++++++",
"++++++++    ....................oooooooooooo........    ++++++++",
"++++++++    ....................oooooooooooo........    ++++++++",
"++++++++++++        ........................        ++++++++++++",
"++++++++++++        ........................        ++++++++++++",
"++++++++++++        ........................        ++++++++++++",
"++++++++++++        ........................        ++++++++++++",
"++++++++++++++++++++                        ++++++++++++++++++++",
"++++++++++++++++++++                        ++++++++++++++++++++",
"++++++++++++++++++++                        ++++++++++++++++++++",
"++++++++++++++++++++                        ++++++++++++++++++++"
};
