/* XPM */
static char *result[] = {
/* columns rows colors chars-per-pixel */
"64 64 2 1 ",
"  c #008F32",
". c #45E082",
/* pixels */
"................................................................",
"................................................................",
"................................................................",
"................................................................",
"......  ..............  ..............  ..............  ........",
"......  ..............  ..............  ..............  ........",
"................................................................",
"................................................................",
"................................................................",
"................................................................",
"..  ..............  ..............  ..............  ............",
"..  ..............  ..............  ..............  ............",
"..........  ..............  ..............  ..............  ....",
"..........  ..............  ..............  ..............  ....",
"................................................................",
"................................................................",
"................................................................",
"................................................................",
"................................................................",
"................................................................",
"......  ..............  ..............  ..............  ........",
"......  ..............  ..............  ..............  ........",
"................................................................",
"................................................................",
"................................................................",
"................................................................",
"..  ..............  ..............  ..............  ............",
"..  ..............  ..............  ..............  ............",
"..........  ..............  ..............  ..............  ....",
"..........  ..............  ..............  ..............  ....",
"................................................................",
"................................................................",
"................................................................",
"................................................................",
"................................................................",
"................................................................",
"......  ..............  ..............  ..............  ........",
"......  ..............  ..............  ..............  ........",
"................................................................",
"................................................................",
"................................................................",
"................................................................",
"..  ..............  ..............  ..............  ............",
"..  ..............  ..............  ..............  ............",
"..........  ..............  ..............  ..............  ....",
"..........  ..............  ..............  ..............  ....",
"................................................................",
"................................................................",
"................................................................",
"................................................................",
"................................................................",
"................................................................",
"......  ..............  ..............  ..............  ........",
"......  ..............  ..............  ..............  ........",
"................................................................",
"................................................................",
"................................................................",
"................................................................",
"..  ..............  ..............  ..............  ............",
"..  ..............  ..............  ..............  ............",
"..........  ..............  ..............  ..............  ....",
"..........  ..............  ..............  ..............  ....",
"................................................................",
"................................................................"
};
