/* XPM */
static char *result[] = {
/* columns rows colors chars-per-pixel */
"64 64 4 1 ",
"  c #282C28",
". c #489438",
"X c #98D478",
"o c None",
/* pixels */
"oooooooooooooooooooooooooooooooooooooooooooooooooooooooooooooooo",
"oooooooooooooooooooooooooooooooooooooooooooooooooooooooooooooooo",
"oooooooooooooooooooooooooooooooooooooooooooooooooooooooooooooooo",
"oooooooooooooooooooooooooooooooooooooooooooooooooooooooooooooooo",
"oooooooooooooooooooooooooooo        oooooooooooooooooooooooooooo",
"oooooooooooooooooooooooooooo        oooooooooooooooooooooooooooo",
"oooooooooooooooooooooooooooo        oooooooooooooooooooooooooooo",
"oooooooooooooooooooooooooooo        oooooooooooooooooooooooooooo",
"oooooooooooooooooooooooo    XXXXXXXX    oooooooooooooooooooooooo",
"oooooooooooooooooooooooo    XXXXXXXX    oooooooooooooooooooooooo",
"oooooooooooooooooooooooo    XXXXXXXX    oooooooooooooooooooooooo",
"oooooooooooooooooooooooo    XXXXXXXX    oooooooooooooooooooooooo",
"oooooooooooooooooooo    XXXXXXXX........    oooooooooooooooooooo",
"oooooooooooooooooooo    XXXXXXXX........    oooooooooooooooooooo",
"oooooooooooooooooooo    XXXXXXXX........    oooooooooooooooooooo",
"oooooooooooooooooooo    XXXXXXXX........    oooooooooooooooooooo",
"oooooooooooooooo    XXXXXXXX............        oooooooooooooooo",
"oooooooooooooooo    XXXXXXXX............        oooooooooooooooo",
"oooooooooooooooo    XXXXXXXX............        oooooooooooooooo",
"oooooooooooooooo    XXXXXXXX............        oooooooooooooooo",
"oooooooooooooooo    XXXX....................    oooooooooooooooo",
"oooooooooooooooo    XXXX....................    oooooooooooooooo",
"oooooooooooooooo    XXXX....................    oooooooooooooooo",
"oooooooooooooooo    XXXX....................    oooooooooooooooo",
"oooooooooooooooo    XXXXXXXX............XXXX    oooooooooooooooo",
"oooooooooooooooo    XXXXXXXX............XXXX    oooooooooooooooo",
"oooooooooooooooo    XXXXXXXX............XXXX    oooooooooooooooo",
"oooooooooooooooo    XXXXXXXX............XXXX    oooooooooooooooo",
"oooooooooooooooo    XXXXXXXX....XXXX....XXXX    oooooooooooooooo",
"oooooooooooooooo    XXXXXXXX....XXXX....XXXX    oooooooooooooooo",
"oooooooooooooooo    XXXXXXXX....XXXX....XXXX    oooooooooooooooo",
"oooooooooooooooo    XXXXXXXX....XXXX....XXXX    oooooooooooooooo",
"oooooooooooooooo    XXXX....XXXX........XXXX    oooooooooooooooo",
"oooooooooooooooo    XXXX....XXXX........XXXX    oooooooooooooooo",
"oooooooooooooooo    XXXX....XXXX........XXXX    oooooooooooooooo",
"oooooooooooooooo    XXXX....XXXX........XXXX    oooooooooooooooo",
"oooooooooooooooo    XXXX....................    oooooooooooooooo",
"oooooooooooooooo    XXXX....................    oooooooooooooooo",
"oooooooooooooooo    XXXX....................    oooooooooooooooo",
"oooooooooooooooo    XXXX....................    oooooooooooooooo",
"oooooooooooooooo    XXXXXXXX........XXXX....    oooooooooooooooo",
"oooooooooooooooo    XXXXXXXX........XXXX....    oooooooooooooooo",
"oooooooooooooooo    XXXXXXXX........XXXX....    oooooooooooooooo",
"oooooooooooooooo    XXXXXXXX........XXXX....    oooooooooooooooo",
"oooooooooooooooo    ............XXXX........    oooooooooooooooo",
"oooooooooooooooo    ............XXXX........    oooooooooooooooo",
"oooooooooooooooo    ............XXXX........    oooooooooooooooo",
"oooooooooooooooo    ............XXXX........    oooooooooooooooo",
"oooooooooooooooooooo    ....XXXX........    oooooooooooooooooooo",
"oooooooooooooooooooo    ....XXXX........    oooooooooooooooooooo",
"oooooooooooooooooooo    ....XXXX........    oooooooooooooooooooo",
"oooooooooooooooooooo    ....XXXX........    oooooooooooooooooooo",
"oooooooooooooooooooooooo    ........    oooooooooooooooooooooooo",
"oooooooooooooooooooooooo    ........    oooooooooooooooooooooooo",
"oooooooooooooooooooooooo    ........    oooooooooooooooooooooooo",
"oooooooooooooooooooooooo    ........    oooooooooooooooooooooooo",
"oooooooooooooooooooooooooooo        oooooooooooooooooooooooooooo",
"oooooooooooooooooooooooooooo        oooooooooooooooooooooooooooo",
"oooooooooooooooooooooooooooo        oooooooooooooooooooooooooooo",
"oooooooooooooooooooooooooooo        oooooooooooooooooooooooooooo",
"oooooooooooooooooooooooooooooooooooooooooooooooooooooooooooooooo",
"oooooooooooooooooooooooooooooooooooooooooooooooooooooooooooooooo",
"oooooooooooooooooooooooooooooooooooooooooooooooooooooooooooooooo",
"oooooooooooooooooooooooooooooooooooooooooooooooooooooooooooooooo"
};
