/* XPM */
static char *result[] = {
/* columns rows colors chars-per-pixel */
"64 64 5 1 ",
"  c #282C28",
". c #489438",
"X c #98D478",
"o c #F8FCF8",
"O c None",
/* pixels */
"OOOOOOOOOOOOOOOOOOOOOOOOOOOOOOOOOOOOOOOOOOOOOOOOOOOOOOOOOOOOOOOO",
"OOOOOOOOOOOOOOOOOOOOOOOOOOOOOOOOOOOOOOOOOOOOOOOOOOOOOOOOOOOOOOOO",
"OOOOOOOOOOOOOOOOOOOOOOOOOOOOOOOOOOOOOOOOOOOOOOOOOOOOOOOOOOOOOOOO",
"OOOOOOOOOOOOOOOOOOOOOOOOOOOOOOOOOOOOOOOOOOOOOOOOOOOOOOOOOOOOOOOO",
"OOOOOOOOOOOOOOOOOOOOOOOOOOOO        OOOOOOOOOOOOOOOOOOOOOOOOOOOO",
"OOOOOOOOOOOOOOOOOOOOOOOOOOOO        OOOOOOOOOOOOOOOOOOOOOOOOOOOO",
"OOOOOOOOOOOOOOOOOOOOOOOOOOOO        OOOOOOOOOOOOOOOOOOOOOOOOOOOO",
"OOOOOOOOOOOOOOOOOOOOOOOOOOOO        OOOOOOOOOOOOOOOOOOOOOOOOOOOO",
"OOOOOOOOOOOOOOOOOOOOOOOO    oooo....    OOOOOOOOOOOOOOOOOOOOOOOO",
"OOOOOOOOOOOOOOOOOOOOOOOO    oooo....    OOOOOOOOOOOOOOOOOOOOOOOO",
"OOOOOOOOOOOOOOOOOOOOOOOO    oooo....    OOOOOOOOOOOOOOOOOOOOOOOO",
"OOOOOOOOOOOOOOOOOOOOOOOO    oooo....    OOOOOOOOOOOOOOOOOOOOOOOO",
"OOOOOOOOOOOOOOOOOOOO    oooooooooooooooo    OOOOOOOOOOOOOOOOOOOO",
"OOOOOOOOOOOOOOOOOOOO    oooooooooooooooo    OOOOOOOOOOOOOOOOOOOO",
"OOOOOOOOOOOOOOOOOOOO    oooooooooooooooo    OOOOOOOOOOOOOOOOOOOO",
"OOOOOOOOOOOOOOOOOOOO    oooooooooooooooo    OOOOOOOOOOOOOOOOOOOO",
"OOOOOOOOOOOOOOOO    ooooooooXXXX....oooo        OOOOOOOOOOOOOOOO",
"OOOOOOOOOOOOOOOO    ooooooooXXXX....oooo        OOOOOOOOOOOOOOOO",
"OOOOOOOOOOOOOOOO    ooooooooXXXX....oooo        OOOOOOOOOOOOOOOO",
"OOOOOOOOOOOOOOOO    ooooooooXXXX....oooo        OOOOOOOOOOOOOOOO",
"OOOOOOOOOOOOOOOO    ooooXXXXoooooooo........    OOOOOOOOOOOOOOOO",
"OOOOOOOOOOOOOOOO    ooooXXXXoooooooo........    OOOOOOOOOOOOOOOO",
"OOOOOOOOOOOOOOOO    ooooXXXXoooooooo........    OOOOOOOOOOOOOOOO",
"OOOOOOOOOOOOOOOO    ooooXXXXoooooooo........    OOOOOOOOOOOOOOOO",
"OOOOOOOOOOOOOOOO    XXXX....oooooooo....XXXX    OOOOOOOOOOOOOOOO",
"OOOOOOOOOOOOOOOO    XXXX....oooooooo....XXXX    OOOOOOOOOOOOOOOO",
"OOOOOOOOOOOOOOOO    XXXX....oooooooo....XXXX    OOOOOOOOOOOOOOOO",
"OOOOOOOOOOOOOOOO    XXXX....oooooooo....XXXX    OOOOOOOOOOOOOOOO",
"OOOOOOOOOOOOOOOO    XXXX....oooooooo....XXXX    OOOOOOOOOOOOOOOO",
"OOOOOOOOOOOOOOOO    XXXX....oooooooo....XXXX    OOOOOOOOOOOOOOOO",
"OOOOOOOOOOOOOOOO    XXXX....oooooooo....XXXX    OOOOOOOOOOOOOOOO",
"OOOOOOOOOOOOOOOO    XXXX....oooooooo....XXXX    OOOOOOOOOOOOOOOO",
"OOOOOOOOOOOOOOOO    oooo....ooooXXXX....XXXX    OOOOOOOOOOOOOOOO",
"OOOOOOOOOOOOOOOO    oooo....ooooXXXX....XXXX    OOOOOOOOOOOOOOOO",
"OOOOOOOOOOOOOOOO    oooo....ooooXXXX....XXXX    OOOOOOOOOOOOOOOO",
"OOOOOOOOOOOOOOOO    oooo....ooooXXXX....XXXX    OOOOOOOOOOOOOOOO",
"OOOOOOOOOOOOOOOO    ooooooooXXXXXXXX........    OOOOOOOOOOOOOOOO",
"OOOOOOOOOOOOOOOO    ooooooooXXXXXXXX........    OOOOOOOOOOOOOOOO",
"OOOOOOOOOOOOOOOO    ooooooooXXXXXXXX........    OOOOOOOOOOOOOOOO",
"OOOOOOOOOOOOOOOO    ooooooooXXXXXXXX........    OOOOOOOOOOOOOOOO",
"OOOOOOOOOOOOOOOO    ooooooooXXXXXXXX........    OOOOOOOOOOOOOOOO",
"OOOOOOOOOOOOOOOO    ooooooooXXXXXXXX........    OOOOOOOOOOOOOOOO",
"OOOOOOOOOOOOOOOO    ooooooooXXXXXXXX........    OOOOOOOOOOOOOOOO",
"OOOOOOOOOOOOOOOO    ooooooooXXXXXXXX........    OOOOOOOOOOOOOOOO",
"OOOOOOOOOOOOOOOO    ooooXXXXXXXX............    OOOOOOOOOOOOOOOO",
"OOOOOOOOOOOOOOOO    ooooXXXXXXXX............    OOOOOOOOOOOOOOOO",
"OOOOOOOOOOOOOOOO    ooooXXXXXXXX............    OOOOOOOOOOOOOOOO",
"OOOOOOOOOOOOOOOO    ooooXXXXXXXX............    OOOOOOOOOOOOOOOO",
"OOOOOOOOOOOOOOOOOOOO    XXXXXXXX........    OOOOOOOOOOOOOOOOOOOO",
"OOOOOOOOOOOOOOOOOOOO    XXXXXXXX........    OOOOOOOOOOOOOOOOOOOO",
"OOOOOOOOOOOOOOOOOOOO    XXXXXXXX........    OOOOOOOOOOOOOOOOOOOO",
"OOOOOOOOOOOOOOOOOOOO    XXXXXXXX........    OOOOOOOOOOOOOOOOOOOO",
"OOOOOOOOOOOOOOOOOOOOOOOO    ........    OOOOOOOOOOOOOOOOOOOOOOOO",
"OOOOOOOOOOOOOOOOOOOOOOOO    ........    OOOOOOOOOOOOOOOOOOOOOOOO",
"OOOOOOOOOOOOOOOOOOOOOOOO    ........    OOOOOOOOOOOOOOOOOOOOOOOO",
"OOOOOOOOOOOOOOOOOOOOOOOO    ........    OOOOOOOOOOOOOOOOOOOOOOOO",
"OOOOOOOOOOOOOOOOOOOOOOOOOOOO        OOOOOOOOOOOOOOOOOOOOOOOOOOOO",
"OOOOOOOOOOOOOOOOOOOOOOOOOOOO        OOOOOOOOOOOOOOOOOOOOOOOOOOOO",
"OOOOOOOOOOOOOOOOOOOOOOOOOOOO        OOOOOOOOOOOOOOOOOOOOOOOOOOOO",
"OOOOOOOOOOOOOOOOOOOOOOOOOOOO        OOOOOOOOOOOOOOOOOOOOOOOOOOOO",
"OOOOOOOOOOOOOOOOOOOOOOOOOOOOOOOOOOOOOOOOOOOOOOOOOOOOOOOOOOOOOOOO",
"OOOOOOOOOOOOOOOOOOOOOOOOOOOOOOOOOOOOOOOOOOOOOOOOOOOOOOOOOOOOOOOO",
"OOOOOOOOOOOOOOOOOOOOOOOOOOOOOOOOOOOOOOOOOOOOOOOOOOOOOOOOOOOOOOOO",
"OOOOOOOOOOOOOOOOOOOOOOOOOOOOOOOOOOOOOOOOOOOOOOOOOOOOOOOOOOOOOOOO"
};
