/* XPM */
static char *result[] = {
/* columns rows colors chars-per-pixel */
"64 64 5 1 ",
"  c #282C28",
". c #489438",
"X c #98D478",
"o c #F8FCF8",
"O c None",
/* pixels */
"OOOOOOOOOOOOOOOOOOOOOOOOOOOOOOOOOOOOOOOOOOOOOOOOOOOOOOOOOOOOOOOO",
"OOOOOOOOOOOOOOOOOOOOOOOOOOOOOOOOOOOOOOOOOOOOOOOOOOOOOOOOOOOOOOOO",
"OOOOOOOOOOOOOOOOOOOOOOOOOOOOOOOOOOOOOOOOOOOOOOOOOOOOOOOOOOOOOOOO",
"OOOOOOOOOOOOOOOOOOOOOOOOOOOOOOOOOOOOOOOOOOOOOOOOOOOOOOOOOOOOOOOO",
"OOOOOOOOOOOOOOOOOOOOOOOOOOOO        OOOOOOOOOOOOOOOOOOOOOOOOOOOO",
"OOOOOOOOOOOOOOOOOOOOOOOOOOOO        OOOOOOOOOOOOOOOOOOOOOOOOOOOO",
"OOOOOOOOOOOOOOOOOOOOOOOOOOOO        OOOOOOOOOOOOOOOOOOOOOOOOOOOO",
"OOOOOOOOOOOOOOOOOOOOOOOOOOOO        OOOOOOOOOOOOOOOOOOOOOOOOOOOO",
"OOOOOOOOOOOOOOOOOOOOOOOO    XXXX....    OOOOOOOOOOOOOOOOOOOOOOOO",
"OOOOOOOOOOOOOOOOOOOOOOOO    XXXX....    OOOOOOOOOOOOOOOOOOOOOOOO",
"OOOOOOOOOOOOOOOOOOOOOOOO    XXXX....    OOOOOOOOOOOOOOOOOOOOOOOO",
"OOOOOOOOOOOOOOOOOOOOOOOO    XXXX....    OOOOOOOOOOOOOOOOOOOOOOOO",
"OOOOOOOOOOOOOOOOOOOO    XXXX........XXXX    OOOOOOOOOOOOOOOOOOOO",
"OOOOOOOOOOOOOOOOOOOO    XXXX........XXXX    OOOOOOOOOOOOOOOOOOOO",
"OOOOOOOOOOOOOOOOOOOO    XXXX........XXXX    OOOOOOOOOOOOOOOOOOOO",
"OOOOOOOOOOOOOOOOOOOO    XXXX........XXXX    OOOOOOOOOOOOOOOOOOOO",
"OOOOOOOOOOOOOOOO    XXXX............XXXX        OOOOOOOOOOOOOOOO",
"OOOOOOOOOOOOOOOO    XXXX............XXXX        OOOOOOOOOOOOOOOO",
"OOOOOOOOOOOOOOOO    XXXX............XXXX        OOOOOOOOOOOOOOOO",
"OOOOOOOOOOOOOOOO    XXXX............XXXX        OOOOOOOOOOOOOOOO",
"OOOOOOOOOOOOOOOO    XXXX........XXXX....oooo    OOOOOOOOOOOOOOOO",
"OOOOOOOOOOOOOOOO    XXXX........XXXX....oooo    OOOOOOOOOOOOOOOO",
"OOOOOOOOOOOOOOOO    XXXX........XXXX....oooo    OOOOOOOOOOOOOOOO",
"OOOOOOOOOOOOOOOO    XXXX........XXXX....oooo    OOOOOOOOOOOOOOOO",
"OOOOOOOOOOOOOOOO    ........XXXXXXXX....oooo    OOOOOOOOOOOOOOOO",
"OOOOOOOOOOOOOOOO    ........XXXXXXXX....oooo    OOOOOOOOOOOOOOOO",
"OOOOOOOOOOOOOOOO    ........XXXXXXXX....oooo    OOOOOOOOOOOOOOOO",
"OOOOOOOOOOOOOOOO    ........XXXXXXXX....oooo    OOOOOOOOOOOOOOOO",
"OOOOOOOOOOOOOOOO    ........XXXX........oooo    OOOOOOOOOOOOOOOO",
"OOOOOOOOOOOOOOOO    ........XXXX........oooo    OOOOOOOOOOOOOOOO",
"OOOOOOOOOOOOOOOO    ........XXXX........oooo    OOOOOOOOOOOOOOOO",
"OOOOOOOOOOOOOOOO    ........XXXX........oooo    OOOOOOOOOOOOOOOO",
"OOOOOOOOOOOOOOOO    ............oooo....oooo    OOOOOOOOOOOOOOOO",
"OOOOOOOOOOOOOOOO    ............oooo....oooo    OOOOOOOOOOOOOOOO",
"OOOOOOOOOOOOOOOO    ............oooo....oooo    OOOOOOOOOOOOOOOO",
"OOOOOOOOOOOOOOOO    ............oooo....oooo    OOOOOOOOOOOOOOOO",
"OOOOOOOOOOOOOOOO    ........ooooXXXX....oooo    OOOOOOOOOOOOOOOO",
"OOOOOOOOOOOOOOOO    ........ooooXXXX....oooo    OOOOOOOOOOOOOOOO",
"OOOOOOOOOOOOOOOO    ........ooooXXXX....oooo    OOOOOOOOOOOOOOOO",
"OOOOOOOOOOOOOOOO    ........ooooXXXX....oooo    OOOOOOOOOOOOOOOO",
"OOOOOOOOOOOOOOOO    ........XXXX....oooooooo    OOOOOOOOOOOOOOOO",
"OOOOOOOOOOOOOOOO    ........XXXX....oooooooo    OOOOOOOOOOOOOOOO",
"OOOOOOOOOOOOOOOO    ........XXXX....oooooooo    OOOOOOOOOOOOOOOO",
"OOOOOOOOOOOOOOOO    ........XXXX....oooooooo    OOOOOOOOOOOOOOOO",
"OOOOOOOOOOOOOOOO    ....XXXX........oooooooo    OOOOOOOOOOOOOOOO",
"OOOOOOOOOOOOOOOO    ....XXXX........oooooooo    OOOOOOOOOOOOOOOO",
"OOOOOOOOOOOOOOOO    ....XXXX........oooooooo    OOOOOOOOOOOOOOOO",
"OOOOOOOOOOOOOOOO    ....XXXX........oooooooo    OOOOOOOOOOOOOOOO",
"OOOOOOOOOOOOOOOOOOOO    oooooooooooooooo    OOOOOOOOOOOOOOOOOOOO",
"OOOOOOOOOOOOOOOOOOOO    oooooooooooooooo    OOOOOOOOOOOOOOOOOOOO",
"OOOOOOOOOOOOOOOOOOOO    oooooooooooooooo    OOOOOOOOOOOOOOOOOOOO",
"OOOOOOOOOOOOOOOOOOOO    oooooooooooooooo    OOOOOOOOOOOOOOOOOOOO",
"OOOOOOOOOOOOOOOOOOOOOOOO    oooooooo    OOOOOOOOOOOOOOOOOOOOOOOO",
"OOOOOOOOOOOOOOOOOOOOOOOO    oooooooo    OOOOOOOOOOOOOOOOOOOOOOOO",
"OOOOOOOOOOOOOOOOOOOOOOOO    oooooooo    OOOOOOOOOOOOOOOOOOOOOOOO",
"OOOOOOOOOOOOOOOOOOOOOOOO    oooooooo    OOOOOOOOOOOOOOOOOOOOOOOO",
"OOOOOOOOOOOOOOOOOOOOOOOOOOOO        OOOOOOOOOOOOOOOOOOOOOOOOOOOO",
"OOOOOOOOOOOOOOOOOOOOOOOOOOOO        OOOOOOOOOOOOOOOOOOOOOOOOOOOO",
"OOOOOOOOOOOOOOOOOOOOOOOOOOOO        OOOOOOOOOOOOOOOOOOOOOOOOOOOO",
"OOOOOOOOOOOOOOOOOOOOOOOOOOOO        OOOOOOOOOOOOOOOOOOOOOOOOOOOO",
"OOOOOOOOOOOOOOOOOOOOOOOOOOOOOOOOOOOOOOOOOOOOOOOOOOOOOOOOOOOOOOOO",
"OOOOOOOOOOOOOOOOOOOOOOOOOOOOOOOOOOOOOOOOOOOOOOOOOOOOOOOOOOOOOOOO",
"OOOOOOOOOOOOOOOOOOOOOOOOOOOOOOOOOOOOOOOOOOOOOOOOOOOOOOOOOOOOOOOO",
"OOOOOOOOOOOOOOOOOOOOOOOOOOOOOOOOOOOOOOOOOOOOOOOOOOOOOOOOOOOOOOOO"
};
