/* XPM */
static char *result[] = {
/* columns rows colors chars-per-pixel */
"64 64 7 1 ",
"  c gray19",
". c #00404D",
"X c #404078",
"o c #804040",
"O c #D0A830",
"+ c #007C8D",
"@ c gray88",
/* pixels */
"..........++++++++++++......++............++++++++++++......++..",
"..........++++++++++++......++............++++++++++++......++..",
"........++++++........++................++++++........++........",
"........++++++........++................++++++........++........",
"......++..++............++............++..++............++......",
"......++..++............++............++..++............++......",
"....++..................++++........++..................++++....",
"....++..................++++........++..................++++....",
"..++++....++++..............++....++++....++++..............++..",
"..++++....++++..............++....++++....++++..............++..",
"..++........++..............++....++........++..............++..",
"..++........++..............++....++........++..............++..",
"..++..................++....++....++..................++....++..",
"..++..................++....++....++..................++....++..",
"..++..................++....++....++..................++....++..",
"..++..................++....++....++..................++....++..",
"                                                                ",
"                                                                ",
"  OOOOOOOOOOOOOOOOOOOOOOOOOOOOOOOOOOOOOOOOOOOOOOOOOOOOOOOOOOOO  ",
"  OOOOOOOOOOOOOOOOOOOOOOOOOOOOOOOOOOOOOOOOOOOOOOOOOOOOOOOOOOOO  ",
"  OO@@@@@@@@@@@@@@@@@@@@@@@@@@@@@@@@@@@@@@@@@@@@@@@@@@@@@@@@OO  ",
"  OO@@@@@@@@@@@@@@@@@@@@@@@@@@@@@@@@@@@@@@@@@@@@@@@@@@@@@@@@OO  ",
"  OO@@                                                    @@OO  ",
"  OO@@                                                    @@OO  ",
"  OO@@                                                    @@OO  ",
"  OO@@                                                    @@OO  ",
"  OO@@                                                    @@OO  ",
"  OO@@                                                    @@OO  ",
"  OO@@                                                    @@OO  ",
"  OO@@                                                    @@OO  ",
"  OO@@                                                    @@OO  ",
"  OO@@                                                    @@OO  ",
"  OO@@                                                    @@OO  ",
"  OO@@                                                    @@OO  ",
"  OO@@  XXXXXXXXXXXXXXXXXXXXXXXXXXXXXXXXXXXXXXXXXXXXXXXX  @@OO  ",
"  OO@@  XXXXXXXXXXXXXXXXXXXXXXXXXXXXXXXXXXXXXXXXXXXXXXXX  @@OO  ",
"  OO@@  XXXXXXXXXXXXXXXXXXXXXXXXXXXXXXXXXXXXXXXXXXXXXXXX  @@OO  ",
"  OO@@  XXXXXXXXXXXXXXXXXXXXXXXXXXXXXXXXXXXXXXXXXXXXXXXX  @@OO  ",
"  OO@@  XXXXXXXXXXXXXXXXXXXXXXXXXXXXXXXXXXXXXXXXXXXXXXXX  @@OO  ",
"  OO@@  XXXXXXXXXXXXXXXXXXXXXXXXXXXXXXXXXXXXXXXXXXXXXXXX  @@OO  ",
"  OO@@  XXXXXXXXXXXXXXXXXXXXXXXXXXXXXXXXXXXXXXXXXXXXXXXX  @@OO  ",
"  OO@@  XXXXXXXXXXXXXXXXXXXXXXXXXXXXXXXXXXXXXXXXXXXXXXXX  @@OO  ",
"  OO@@  XXXXXXXXXXXXXXXXXXXXXXXXXXXXXXXXXXXXXXXXXXXXXXXX  @@OO  ",
"  OO@@  XXXXXXXXXXXXXXXXXXXXXXXXXXXXXXXXXXXXXXXXXXXXXXXX  @@OO  ",
"  OO@@OOOOOOOOOOOOOOOOOOOOOOOOOOOOOOOOOOOOOOOOOOOOOOOOOOOO@@OO  ",
"  OO@@OOOOOOOOOOOOOOOOOOOOOOOOOOOOOOOOOOOOOOOOOOOOOOOOOOOO@@OO  ",
"  OO@@@@@@@@@@@@@@@@@@@@@@@@@@@@@@@@@@@@@@@@@@@@@@@@@@@@@@@@OO  ",
"  OO@@@@@@@@@@@@@@@@@@@@@@@@@@@@@@@@@@@@@@@@@@@@@@@@@@@@@@@@OO  ",
"  OOOOOOOOOOOOOOOOOOOOOOOOOOOOOOOOOOOOOOOOOOOOOOOOOOOOOOOOOOOO  ",
"  OOOOOOOOOOOOOOOOOOOOOOOOOOOOOOOOOOOOOOOOOOOOOOOOOOOOOOOOOOOO  ",
"                                                                ",
"                                                                ",
"    OOOO  oooooooooooooo  OOOO    OOOO  oooooooooooooo  OOOO    ",
"    OOOO  oooooooooooooo  OOOO    OOOO  oooooooooooooo  OOOO    ",
"    OOOO        oooooooo  OOOO    OOOO  oooooooo        OOOO    ",
"    OOOO        oooooooo  OOOO    OOOO  oooooooo        OOOO    ",
"    OOOO@@@@@@  oooooooo  OOOOOOOOOOOO  oooooooo  @@@@@@OOOO    ",
"    OOOO@@@@@@  oooooooo  OOOOOOOOOOOO  oooooooo  @@@@@@OOOO    ",
"    OOOOOOOOOO                                    OOOOOOOOOO    ",
"    OOOOOOOOOO                                    OOOOOOOOOO    ",
"    OOOOOOOOOOOOOOOOOOOOOOOOOOOOOOOOOOOOOOOOOOOOOOOOOOOOOOOO    ",
"    OOOOOOOOOOOOOOOOOOOOOOOOOOOOOOOOOOOOOOOOOOOOOOOOOOOOOOOO    ",
"                                                                ",
"                                                                "
};
