/* XPM */
static char *result[] = {
/* columns rows colors chars-per-pixel */
"64 64 11 1 ",
"  c #282828",
". c gray19",
"X c #00404D",
"o c #404078",
"O c #804040",
"+ c #B88820",
"@ c #D0A830",
"# c #F8D038",
"$ c #007C8D",
"% c gray88",
"& c #F8F8F8",
/* pixels */
"XXXXXXXXXX$$$$$$$$$$$$XXXXXX$$XXXXXXXXXXXX$$$$$$$$$$$$XXXXXX$$XX",
"XXXXXXXXXX$$$$$$$$$$$$XXXXXX$$XXXXXXXXXXXX$$$$$$$$$$$$XXXXXX$$XX",
"XXXXXXXX$$$$$$XXXXXXXX$$XXXXXXXXXXXXXXXX$$$$$$XXXXXXXX$$XXXXXXXX",
"XXXXXXXX$$$$$$XXXXXXXX$$XXXXXXXXXXXXXXXX$$$$$$XXXXXXXX$$XXXXXXXX",
"XXXXXX$$XX$$XXXXXXXXXX  $$XXXXXXXXXXXX$$  $$XXXXXXXXXXXX$$XXXXXX",
"XXXXXX$$XX$$XXXXXXXXXX  $$XXXXXXXXXXXX$$  $$XXXXXXXXXXXX$$XXXXXX",
"XXXX$$XXXXXXXXXXXXXX  ##  $$        $$  ##  XXXXXXXXXXXX$$$$XXXX",
"XXXX$$XXXXXXXXXXXXXX  ##  $$        $$  ##  XXXXXXXXXXXX$$$$XXXX",
"XX$$$$XXXX$$$$XXXX  ++##    ++++++++    ##++  XXXXXXXXXXXXXX$$XX",
"XX$$$$XXXX$$$$XXXX  ++##    ++++++++    ##++  XXXXXXXXXXXXXX$$XX",
"XX$$XXXXXXXX$$XXXX  ++##++++########++++##++  XXXXXXXXXXXXXX$$XX",
"XX$$XXXXXXXX$$XXXX  ++##++++########++++##++  XXXXXXXXXXXXXX$$XX",
"XX$$XXXXXXXXXXXXXXXX  ++##########&&####++  XXXXXXXXXX$$XXXX$$XX",
"XX$$XXXXXXXXXXXXXXXX  ++##########&&####++  XXXXXXXXXX$$XXXX$$XX",
"XX$$XXXXXXXXXXXXXXXXXX  ++  ########  ##  XXXXXXXXXXXX$$XXXX$$XX",
"XX$$XXXXXXXXXXXXXXXXXX  ++  ########  ##  XXXXXXXXXXXX$$XXXX$$XX",
"....................  ++##    ####    ##++  ....................",
"....................  ++##    ####    ##++  ....................",
"..@@@@@@@@@@@@@@@@@@  ++####  ####  ####++  @@@@@@@@@@@@@@@@@@..",
"..@@@@@@@@@@@@@@@@@@  ++####  ####  ####++  @@@@@@@@@@@@@@@@@@..",
"..@@%%%%%%%%%%%%%%%%%%  ++++++######++++  %%%%%%%%%%%%%%%%%%@@..",
"..@@%%%%%%%%%%%%%%%%%%  ++++++######++++  %%%%%%%%%%%%%%%%%%@@..",
"..@@%%..................    ++++++++    ..................%%@@..",
"..@@%%..................    ++++++++    ..................%%@@..",
"..@@%%......................  ++##  ......................%%@@..",
"..@@%%......................  ++##  ......................%%@@..",
"..@@%%......................  ++##    ....................%%@@..",
"..@@%%......................  ++##    ....................%%@@..",
"..@@%%......................  ++##&&##  ..................%%@@..",
"..@@%%......................  ++##&&##  ..................%%@@..",
"..@@%%......................  ++##++++  ..................%%@@..",
"..@@%%......................  ++##++++  ..................%%@@..",
"..@@%%......................  ++##    ....................%%@@..",
"..@@%%......................  ++##    ....................%%@@..",
"..@@%%..oooooooooooooooooooooo    oooooooooooooooooooooo..%%@@..",
"..@@%%..oooooooooooooooooooooo    oooooooooooooooooooooo..%%@@..",
"..@@%%..oooooooooooooooooooooooooooooooooooooooooooooooo..%%@@..",
"..@@%%..oooooooooooooooooooooooooooooooooooooooooooooooo..%%@@..",
"..@@%%..oooooooooooooooooooooooooooooooooooooooooooooooo..%%@@..",
"..@@%%..oooooooooooooooooooooooooooooooooooooooooooooooo..%%@@..",
"..@@%%..oooooooooooooooooooooooooooooooooooooooooooooooo..%%@@..",
"..@@%%..oooooooooooooooooooooooooooooooooooooooooooooooo..%%@@..",
"..@@%%..oooooooooooooooooooooooooooooooooooooooooooooooo..%%@@..",
"..@@%%..oooooooooooooooooooooooooooooooooooooooooooooooo..%%@@..",
"..@@%%@@@@@@@@@@@@@@@@@@@@@@@@@@@@@@@@@@@@@@@@@@@@@@@@@@@@%%@@..",
"..@@%%@@@@@@@@@@@@@@@@@@@@@@@@@@@@@@@@@@@@@@@@@@@@@@@@@@@@%%@@..",
"..@@%%%%%%%%%%%%%%%%%%%%%%%%%%%%%%%%%%%%%%%%%%%%%%%%%%%%%%%%@@..",
"..@@%%%%%%%%%%%%%%%%%%%%%%%%%%%%%%%%%%%%%%%%%%%%%%%%%%%%%%%%@@..",
"..@@@@@@@@@@@@@@@@@@@@@@@@@@@@@@@@@@@@@@@@@@@@@@@@@@@@@@@@@@@@..",
"..@@@@@@@@@@@@@@@@@@@@@@@@@@@@@@@@@@@@@@@@@@@@@@@@@@@@@@@@@@@@..",
"................................................................",
"................................................................",
"....@@@@..OOOOOOOOOOOOOO..@@@@....@@@@..OOOOOOOOOOOOOO..@@@@....",
"....@@@@..OOOOOOOOOOOOOO..@@@@....@@@@..OOOOOOOOOOOOOO..@@@@....",
"....@@@@........OOOOOOOO..@@@@....@@@@..OOOOOOOO........@@@@....",
"....@@@@........OOOOOOOO..@@@@....@@@@..OOOOOOOO........@@@@....",
"....@@@@%%%%%%..OOOOOOOO..@@@@@@@@@@@@..OOOOOOOO..%%%%%%@@@@....",
"....@@@@%%%%%%..OOOOOOOO..@@@@@@@@@@@@..OOOOOOOO..%%%%%%@@@@....",
"....@@@@@@@@@@....................................@@@@@@@@@@....",
"....@@@@@@@@@@....................................@@@@@@@@@@....",
"....@@@@@@@@@@@@@@@@@@@@@@@@@@@@@@@@@@@@@@@@@@@@@@@@@@@@@@@@....",
"....@@@@@@@@@@@@@@@@@@@@@@@@@@@@@@@@@@@@@@@@@@@@@@@@@@@@@@@@....",
"................................................................",
"................................................................"
};
