/* XPM */
static char *result[] = {
/* columns rows colors chars-per-pixel */
"64 64 7 1 ",
"  c gray19",
". c #00404D",
"X c #804040",
"o c #C06868",
"O c #D0A830",
"+ c #007C8D",
"@ c gray88",
/* pixels */
"..........++++++++++++......++............++++++++++++......++..",
"..........++++++++++++......++............++++++++++++......++..",
"........++++++........++................++++++........++........",
"........++++++........++................++++++........++........",
"......++..++............++............++..++............++......",
"......++..++............++............++..++............++......",
"....++..................++++........++..................++++....",
"....++..................++++........++..................++++....",
"..++++....++++..............++....++++....++++..............++..",
"..++++....++++..............++....++++....++++..............++..",
"..++........++..............++....++........++..............++..",
"..++........++..............++....++........++..............++..",
"..++..................++....++....++..................++....++..",
"..++..................++....++....++..................++....++..",
"..++..................++....++....++..................++....++..",
"..++..................++....++....++..................++....++..",
"                                                                ",
"                                                                ",
"  OOOO  XXXXXXXX  OOOO  XXXXXXXXXXXXXXXX  OOOO  XXXXXXXX  OOOO  ",
"  OOOO  XXXXXXXX  OOOO  XXXXXXXXXXXXXXXX  OOOO  XXXXXXXX  OOOO  ",
"  OOOO  XX@@@@XX  OOOO  XXXXXX@@@@XXXXXX  OOOO  XX@@@@XX  OOOO  ",
"  OOOO  XX@@@@XX  OOOO  XXXXXX@@@@XXXXXX  OOOO  XX@@@@XX  OOOO  ",
"  OOOO  XX    XX  OOOO  XXXXXX    XXXXXX  OOOO  XX    XX  OOOO  ",
"  OOOO  XX    XX  OOOO  XXXXXX    XXXXXX  OOOO  XX    XX  OOOO  ",
"  @@@@  XXooooXX  @@@@  XXooooooooooooXX  @@@@  XXooooXX  @@@@  ",
"  @@@@  XXooooXX  @@@@  XXooooooooooooXX  @@@@  XXooooXX  @@@@  ",
"  @@@@  XXooooXX  @@@@  XXooooooooooooXX  @@@@  XXooooXX  @@@@  ",
"  @@@@  XXooooXX  @@@@  XXooooooooooooXX  @@@@  XXooooXX  @@@@  ",
"  @@@@  XXooooXX  @@@@  XXooooooooooooXX  @@@@  XXooooXX  @@@@  ",
"  @@@@  XXooooXX  @@@@  XXooooooooooooXX  @@@@  XXooooXX  @@@@  ",
"  @@@@  XXooooXX  @@@@  XXooooooooooooXX  @@@@  XXooooXX  @@@@  ",
"  @@@@  XXooooXX  @@@@  XXooooooooooooXX  @@@@  XXooooXX  @@@@  ",
"  @@@@  XXXXXXXX  @@@@  XXXXXXXXXXXXXXXX  @@@@  XXXXXXXX  @@@@  ",
"  @@@@  XXXXXXXX  @@@@  XXXXXXXXXXXXXXXX  @@@@  XXXXXXXX  @@@@  ",
"  @@@@  XX@@@@XX  @@@@  XXXXXX@@@@XXXXXX  @@@@  XX@@@@XX  @@@@  ",
"  @@@@  XX@@@@XX  @@@@  XXXXXX@@@@XXXXXX  @@@@  XX@@@@XX  @@@@  ",
"  OOOO  XXooooXX  OOOO  XXXXXXooooXXXXXX  OOOO  XXooooXX  OOOO  ",
"  OOOO  XXooooXX  OOOO  XXXXXXooooXXXXXX  OOOO  XXooooXX  OOOO  ",
"  OOOO  XX    XX  OOOO  XXXXXX    XXXXXX  OOOO  XX    XX  OOOO  ",
"  OOOO  XX    XX  OOOO  XXXXXX    XXXXXX  OOOO  XX    XX  OOOO  ",
"  OOOO  XXXXXXXX  OOOO  XXXXXXXXXXXXXXXX  OOOO  XXXXXXXX  OOOO  ",
"  OOOO  XXXXXXXX  OOOO  XXXXXXXXXXXXXXXX  OOOO  XXXXXXXX  OOOO  ",
"  OOOOOO  XXXX  OOOOOOOO  XXXXXXXXXXXX  OOOOOOOO  XXXX  OOOOOO  ",
"  OOOOOO  XXXX  OOOOOOOO  XXXXXXXXXXXX  OOOOOOOO  XXXX  OOOOOO  ",
"  OO@@@@OO    OOOO@@@@OOOO            OOOO@@@@OOOO    OO@@@@OO  ",
"  OO@@@@OO    OOOO@@@@OOOO            OOOO@@@@OOOO    OO@@@@OO  ",
"  OO    OOOOOOOOOO    OOOOOOOOOOOOOOOOOOOO    OOOOOOOOOO    OO  ",
"  OO    OOOOOOOOOO    OOOOOOOOOOOOOOOOOOOO    OOOOOOOOOO    OO  ",
"  OOOOOOOOOOOOOOOOOOOOOOOOOOOOOOOOOOOOOOOOOOOOOOOOOOOOOOOOOOOO  ",
"  OOOOOOOOOOOOOOOOOOOOOOOOOOOOOOOOOOOOOOOOOOOOOOOOOOOOOOOOOOOO  ",
"                                                                ",
"                                                                ",
"    OOOO  XXXXXXXXXXXXXX  OOOO    OOOO  XXXXXXXXXXXXXX  OOOO    ",
"    OOOO  XXXXXXXXXXXXXX  OOOO    OOOO  XXXXXXXXXXXXXX  OOOO    ",
"    OOOO        XXXXXXXX  OOOO    OOOO  XXXXXXXX        OOOO    ",
"    OOOO        XXXXXXXX  OOOO    OOOO  XXXXXXXX        OOOO    ",
"    OOOO@@@@@@  XXXXXXXX  OOOOOOOOOOOO  XXXXXXXX  @@@@@@OOOO    ",
"    OOOO@@@@@@  XXXXXXXX  OOOOOOOOOOOO  XXXXXXXX  @@@@@@OOOO    ",
"    OOOOOOOOOO                                    OOOOOOOOOO    ",
"    OOOOOOOOOO                                    OOOOOOOOOO    ",
"    OOOOOOOOOOOOOOOOOOOOOOOOOOOOOOOOOOOOOOOOOOOOOOOOOOOOOOOO    ",
"    OOOOOOOOOOOOOOOOOOOOOOOOOOOOOOOOOOOOOOOOOOOOOOOOOOOOOOOO    ",
"                                                                ",
"                                                                "
};
