/* XPM */
static char *result[] = {
/* columns rows colors chars-per-pixel */
"104 144 2 1 ",
"  c #383040",
". c None",
/* pixels */
"........................................................................................................",
"........................................................................................................",
"........................................................................................................",
"........................................................................................................",
"........................................................................................................",
"........................................................................................................",
"........................................................................................................",
"........................................................................................................",
"........................................................................................................",
"........................................................................................................",
"........................................................................................................",
"........................................................................................................",
"........................................................................................................",
"........................................................................................................",
"........................................................................................................",
"........................................................................................................",
"........................................................................................................",
"........................................................................................................",
"........................................................................................................",
"........................................................................................................",
"........................................................................................................",
"........................................................................................................",
"........................................................................................................",
"........................................................................................................",
"........................................................................................................",
"........................................................................................................",
"........................................................................................................",
"........................................................................................................",
"........................................................................................................",
"........................................................................................................",
"........................................................................................................",
"........................................................................................................",
"........................................................................................................",
"........................................................................................................",
"........................................................................................................",
"........................................................................................................",
"........................................................................................................",
"........................................................................................................",
"........................................................................................................",
"........................................................................................................",
"........................................................................................................",
"........................................................................................................",
"........................................................................................................",
"........................................................................................................",
"........................................................................................................",
"........................................................................................................",
"........................................................................................................",
"........................................................................................................",
"........................................................................................................",
"........................................................................................................",
"........................................................................................................",
"........................................................................................................",
"........................................................................................................",
"........................................................................................................",
"........................................................................................................",
"........................................................................................................",
"........................................................................................................",
"........................................................................................................",
"........................................................................................................",
"........................................................................................................",
"........................................................................................................",
"........................................................................................................",
"........................................................................................................",
"........................................................................................................",
"........................................................................................................",
"........................................................................................................",
"........................................................................................................",
"........................................................................................................",
"........................................................................................................",
"........................................................................................................",
"........................................................................................................",
"........................................................................................................",
"........................................................................................................",
"........................................................................................................",
"........................................................................................................",
"........................................................................................................",
"........................................................................................................",
"........................................................................................................",
"........................................................................................................",
"........................................................................................................",
"........................................................................................................",
"........................................................................................................",
"........................................................................................................",
"........................................................................................................",
"........................................................................................................",
"........................................................................................................",
"........................................................................................................",
"........................................................................................................",
"........................................................................................................",
"........................................................................................................",
"........................................................................................................",
"........................................................................................................",
"........................................................................................................",
"........................................................................................................",
"........................................................................................................",
"........................................................................................................",
"........................................................................................................",
"........................................................................................................",
"........................................................................................................",
"........................................................................................................",
"........................................................................................................",
"........................................................................................................",
"........................................................................................................",
"........................................................................................................",
"........................................................................................................",
"........................................................................................................",
"........................................................................................................",
"........................................................................................................",
"........................................................................................................",
"........................................................................................................",
"........................................................................................................",
"........................................................................................................",
"........................................................................................................",
"........................................................................................................",
"........................................................................................................",
"........................................................................................................",
"............................................                ............................................",
"............................................                ............................................",
"..........................................                    ..........................................",
"..........................................                    ..........................................",
"......................................                            ......................................",
"......................................                            ......................................",
"....................................                                ....................................",
"....................................                                ....................................",
"....................................                                ....................................",
"....................................                                ....................................",
"..................................                                    ..................................",
"..................................                                    ..................................",
"..................................                                    ..................................",
"..................................                                    ..................................",
"..................................                                    ..................................",
"..................................                                    ..................................",
"..................................                                    ..................................",
"..................................                                    ..................................",
"....................................                                ....................................",
"....................................                                ....................................",
"....................................                                ....................................",
"....................................                                ....................................",
"......................................                            ......................................",
"......................................                            ......................................",
"..........................................                    ..........................................",
"..........................................                    ..........................................",
"............................................                ............................................",
"............................................                ............................................"
};
