/* XPM */
static char *result[] = {
/* columns rows colors chars-per-pixel */
"256 32 2 1 ",
"  c black",
". c #45E082",
/* pixels */
"                                                                                                                                                                                                                                                                ",
"                                                                                                                                                                                                                                                                ",
"                                                                                                                                                                                                                                                                ",
"                                                                                                                                                                                                                                                                ",
"    ........................................................................................................................... ....................................................................................................    ....................    ",
"    ................................................................................................................................................................................................................................    ....................    ",
"    ................................................................................................................................................................................................................................    ....................    ",
"    ................................................................................................................................................................................................................................    ....................    ",
"    ................................................................................................................................................................................................................................    ....................    ",
"    ................................................................................................................................................................................................................................    ....................    ",
"    ................................................................................................................................................................................................................................    ....................    ",
"    ................................................................................................................................................................................................................................    ....................    ",
"    ................................................................................................................................................................................................................................    ....................    ",
"    ................................................................................................................................................................................................................................    ....................    ",
"    ................................................................................................................................................................................................................................    ....................    ",
"    ................................................................................................................................................................................................................................    ....................    ",
"    ................................................................................................................................................................................................................................    ....................    ",
"    ................................................................................................................................................................................................................................    ....................    ",
"    ................................................................................................................................................................................................................................    ....................    ",
"    ................................................................................................................................................................................................................................    ....................    ",
"    ................................................................................................................................................................................................................................    ....................    ",
"    ................................................................................................................................................................................................................................    ....................    ",
"    ................................................................................................................................................................................................................................    ....................    ",
"    ................................................................................................................................................................................................................................    ....................    ",
"    ................................................................................................................................................................................................................................    ....................    ",
"    ................................................................................................................................................................................................................................    ....................    ",
"    ................................................................................................................................................................................................................................    ....................    ",
"    ................................................................................................................................................................................................................................    ....................    ",
"                                                                                                                                                                                                                                                                ",
"                                                                                                                                                                                                                                                                ",
"                                                                                                                                                                                                                                                                ",
"                                                                                                                                                                                                                                                                "
};
