/* XPM */
static char *fe4bf74d84ab426aa9cf48d13c9c74f8H6ZeM6H7v3E8Zp21[] = {
/* columns rows colors chars-per-pixel */
"64 64 4 1 ",
"  c black",
". c #004F08",
"X c #008F32",
"o c #45E082",
/* pixels */
"XXXXXXXXXXXXXXXXXXXXXXXXXXXXXXXXXXXXXXXXXXXXXXXXXXXXXXXXXXXXXXXX",
"XXXXXXXXXXXXXXXXXXXXXXXXXXXXXXXXXXXXXXXXXXXXXXXXXXXXXXXXXXXXXXXX",
"XXXXXXXXXXXXXXXXXXXXXXXXXXXXXXXXXXXXXXXXXXXXXXXXXXXXXXXXXXXXXXXX",
"XXXXXXXXXXXXXXXXXXXXXXXXXXXXXXXXXXXXXXXXXXXXXXXXXXXXXXXXXXXXXXXX",
"XXXX..oooooooooooooooooooooooooooooooooooooooooooooooooooooooooo",
"XXXX..oooooooooooooooooooooooooooooooooooooooooooooooooooooooooo",
"XXXXoo                                                          ",
"XXXXoo                                                          ",
"XXXXoo    ......................................................",
"XXXXoo    ......................................................",
"XXXXoo  ..  ..XXXXXXXXXXXXXXXXXXXXXXXXXXXXXXXXXXXXXXXXXXXXXXXXXX",
"XXXXoo  ..  ..XXXXXXXXXXXXXXXXXXXXXXXXXXXXXXXXXXXXXXXXXXXXXXXXXX",
"XXXXoo  ....  ..XXXXXXXXXXXXXXXXXXXXXXXXXXXXXXXXXXXXXXXXXXXXXXXX",
"XXXXoo  ....  ..XXXXXXXXXXXXXXXXXXXXXXXXXXXXXXXXXXXXXXXXXXXXXXXX",
"XXXXoo  ..XX..  XXXXXXXXXXXXXXXXXXXXXXXXXXXXXXXXXXXXXXXXXXXXXXXX",
"XXXXoo  ..XX..  XXXXXXXXXXXXXXXXXXXXXXXXXXXXXXXXXXXXXXXXXXXXXXXX",
"XXXXoo  ..XXXXXXoooooooooooooooooooooooooooooooooooooooooooooooo",
"XXXXoo  ..XXXXXXoooooooooooooooooooooooooooooooooooooooooooooooo",
"XXXXoo  ..XXXXXXoooooooooooooooooooooooooooooooooooooooooooo..oo",
"XXXXoo  ..XXXXXXoooooooooooooooooooooooooooooooooooooooooooo..oo",
"XXXXoo  ..XXXXXXoooo  ..XXXXXXXXXXXXXXXXXXXXXXXXXXXXXXXXXXXXoo..",
"XXXXoo  ..XXXXXXoooo  ..XXXXXXXXXXXXXXXXXXXXXXXXXXXXXXXXXXXXoo..",
"XXXXoo  ..XXXXXXoooo..  ..XXXXXXXXXXXXXXXXXXXXXXXXXXXXXXXXXXoo..",
"XXXXoo  ..XXXXXXoooo..  ..XXXXXXXXXXXXXXXXXXXXXXXXXXXXXXXXXXoo..",
"XXXXoo  ..XXXXXXooooXX..  ..XXXXXXXXXXXXXXXXXXXXXXXXXXXXXXXXoo..",
"XXXXoo  ..XXXXXXooooXX..  ..XXXXXXXXXXXXXXXXXXXXXXXXXXXXXXXXoo..",
"XXXXoo  ..XXXXXXooooXXXX..  ..XXXXXXXXXXXXXXXXXXXXXXXXXXXXXXoo..",
"XXXXoo  ..XXXXXXooooXXXX..  ..XXXXXXXXXXXXXXXXXXXXXXXXXXXXXXoo..",
"XXXXoo  ..XXXXXXooooXXXXXX..  ..XXXXXXXXXXXXXXXXXXXXXXXXXXXXXX..",
"XXXXoo  ..XXXXXXooooXXXXXX..  ..XXXXXXXXXXXXXXXXXXXXXXXXXXXXXX..",
"XXXXoo  ..XXXXXXooooXXXXXXXX....................................",
"XXXXoo  ..XXXXXXooooXXXXXXXX....................................",
"XXXXoo  ..XXXXXXooooXXXXXXXXXX..oooooooooooooooooooooooooooooooo",
"XXXXoo  ..XXXXXXooooXXXXXXXXXX..oooooooooooooooooooooooooooooooo",
"XXXXoo  ..XXXXXXooooXXXXXXXXXX..oo  ............................",
"XXXXoo  ..XXXXXXooooXXXXXXXXXX..oo  ............................",
"XXXXoo  ..XXXXXXooooXXXXXXXXXX..oo..  ..........................",
"XXXXoo  ..XXXXXXooooXXXXXXXXXX..oo..  ..........................",
"XXXXoo  ..XXXXXXooooXXXXXXXXXX..oo....  ........................",
"XXXXoo  ..XXXXXXooooXXXXXXXXXX..oo....  ........................",
"XXXXoo  ..XXXXXXooooXXXXXXXXXX..oo......                        ",
"XXXXoo  ..XXXXXXooooXXXXXXXXXX..oo......                        ",
"XXXXoo  ..XXXXXXooooXXXXXXXXXX..oo......  XXXXXXXXXXXXXXXXXXoo..",
"XXXXoo  ..XXXXXXooooXXXXXXXXXX..oo......  XXXXXXXXXXXXXXXXXXoo..",
"XXXXoo  ..XXXXXXooooXXXXXXXXXX..oo......  XX  ..............XX  ",
"XXXXoo  ..XXXXXXooooXXXXXXXXXX..oo......  XX  ..............XX  ",
"XXXXoo  ..XXXXXXooooXXXXXXXXXX..oo......  XX..  ..............  ",
"XXXXoo  ..XXXXXXooooXXXXXXXXXX..oo......  XX..  ..............  ",
"XXXXoo  ..XXXXXXooooXXXXXXXXXX..oo......  XX....                ",
"XXXXoo  ..XXXXXXooooXXXXXXXXXX..oo......  XX....                ",
"XXXXoo  ..XXXXXXooooXXXXXXXXXX..oo......  XX....    ............",
"XXXXoo  ..XXXXXXooooXXXXXXXXXX..oo......  XX....    ............",
"XXXXoo  ..XXXXXXooooXXXXXXXXXX..oo......  XX....  ..  ..........",
"XXXXoo  ..XXXXXXooooXXXXXXXXXX..oo......  XX....  ..  ..........",
"XXXXoo  ..XXXXXXooooXXXXXXXXXX..oo......  XX....  ....          ",
"XXXXoo  ..XXXXXXooooXXXXXXXXXX..oo......  XX....  ....          ",
"XXXXoo  ..XXXXXXooooXXXXXXXXXX..oo......  XX....  ....    ......",
"XXXXoo  ..XXXXXXooooXXXXXXXXXX..oo......  XX....  ....    ......",
"XXXXoo  ..XXXXXXooooXXXXXXXXXX..oo......  XX....  ....  ..  ....",
"XXXXoo  ..XXXXXXooooXXXXXXXXXX..oo......  XX....  ....  ..  ....",
"XXXXoo  ..XXXXXXooXXooooooooXX..oo......  XXXX..  ....  ....    ",
"XXXXoo  ..XXXXXXooXXooooooooXX..oo......  XXXX..  ....  ....    ",
"XXXXoo  ..XXXXXXoooo............oo......          ....  ....    ",
"XXXXoo  ..XXXXXXoooo............oo......          ....  ....    "
};
