/* XPM */
static char *e10b13083b6446799d16f5bbf55ad2f1anqEbqNjHHhRbtj4[] = {
/* columns rows colors chars-per-pixel */
"64 64 4 1 ",
"  c black",
". c #004F08",
"X c #008F32",
"o c #45E082",
/* pixels */
"XXXXXXXXXXXXXXXXXXXXXXXXXXXXXXXXXXXXXXXXXXXXXXXXXXXXXXXXXXXXXXXX",
"XXXXXXXXXXXXXXXXXXXXXXXXXXXXXXXXXXXXXXXXXXXXXXXXXXXXXXXXXXXXXXXX",
"XXXXXXXXXXXXXXXXXXXXXXXXXXXXXXXXXXXXXXXXXXXXXXXXXXXXXXXXXXXXXXXX",
"XXXXXXXXXXXXXXXXXXXXXXXXXXXXXXXXXXXXXXXXXXXXXXXXXXXXXXXXXXXXXXXX",
"oooooooooooooooooooooooooooooooooooooooooooooooooooooooooo..XXXX",
"oooooooooooooooooooooooooooooooooooooooooooooooooooooooooo..XXXX",
"                                                          ooXXXX",
"                                                          ooXXXX",
"......................................................    ooXXXX",
"......................................................    ooXXXX",
"XXXXXXXXXXXXXXXXXXXXXXXXXXXXXXXXXXXXXXXXXXXXXXXXXX..  ..  ooXXXX",
"XXXXXXXXXXXXXXXXXXXXXXXXXXXXXXXXXXXXXXXXXXXXXXXXXX..  ..  ooXXXX",
"XXXXXXXXXXXXXXXXXXXXXXXXXXXXXXXXXXXXXXXXXXXXXXXX..  ....  ooXXXX",
"XXXXXXXXXXXXXXXXXXXXXXXXXXXXXXXXXXXXXXXXXXXXXXXX..  ....  ooXXXX",
"XXXXXXXXXXXXXXXXXXXXXXXXXXXXXXXXXXXXXXXXXXXXXXXX  ..XX..  ooXXXX",
"XXXXXXXXXXXXXXXXXXXXXXXXXXXXXXXXXXXXXXXXXXXXXXXX  ..XX..  ooXXXX",
"ooooooooooooooooooooooooooooooooooooooooooooooooXXXXXX..  ooXXXX",
"ooooooooooooooooooooooooooooooooooooooooooooooooXXXXXX..  ooXXXX",
"ooXXooooooooooooooooooooooooooooooooooooooooooooXXXXXX..  ooXXXX",
"ooXXooooooooooooooooooooooooooooooooooooooooooooXXXXXX..  ooXXXX",
"..ooXXXXXXXXXXXXXXXXXXXXXXXXXXXXXXXXXXXX..  ooooXXXXXX..  ooXXXX",
"..ooXXXXXXXXXXXXXXXXXXXXXXXXXXXXXXXXXXXX..  ooooXXXXXX..  ooXXXX",
"..ooXXXXXXXXXXXXXXXXXXXXXXXXXXXXXXXXXX..  ..ooooXXXXXX..  ooXXXX",
"..ooXXXXXXXXXXXXXXXXXXXXXXXXXXXXXXXXXX..  ..ooooXXXXXX..  ooXXXX",
"..ooXXXXXXXXXXXXXXXXXXXXXXXXXXXXXXXX..  ..XXooooXXXXXX..  ooXXXX",
"..ooXXXXXXXXXXXXXXXXXXXXXXXXXXXXXXXX..  ..XXooooXXXXXX..  ooXXXX",
"..ooXXXXXXXXXXXXXXXXXXXXXXXXXXXXXX..  ..XXXXooooXXXXXX..  ooXXXX",
"..ooXXXXXXXXXXXXXXXXXXXXXXXXXXXXXX..  ..XXXXooooXXXXXX..  ooXXXX",
"..XXXXXXXXXXXXXXXXXXXXXXXXXXXXXX..  ..XXXXXXooooXXXXXX..  ooXXXX",
"..XXXXXXXXXXXXXXXXXXXXXXXXXXXXXX..  ..XXXXXXooooXXXXXX..  ooXXXX",
"....................................XXXXXXXXooooXXXXXX..  ooXXXX",
"....................................XXXXXXXXooooXXXXXX..  ooXXXX",
"oooooooooooooooooooooooooooooooo..XXXXXXXXXXooooXXXXXX..  ooXXXX",
"oooooooooooooooooooooooooooooooo..XXXXXXXXXXooooXXXXXX..  ooXXXX",
"............................  oo..XXXXXXXXXXooooXXXXXX..  ooXXXX",
"............................  oo..XXXXXXXXXXooooXXXXXX..  ooXXXX",
"..........................  ..oo..XXXXXXXXXXooooXXXXXX..  ooXXXX",
"..........................  ..oo..XXXXXXXXXXooooXXXXXX..  ooXXXX",
"........................  ....oo..XXXXXXXXXXooooXXXXXX..  ooXXXX",
"........................  ....oo..XXXXXXXXXXooooXXXXXX..  ooXXXX",
"                        ......oo..XXXXXXXXXXooooXXXXXX..  ooXXXX",
"                        ......oo..XXXXXXXXXXooooXXXXXX..  ooXXXX",
"  XXXXXXXXXXXXXXXXXXXX  ......oo..XXXXXXXXXXooooXXXXXX..  ooXXXX",
"  XXXXXXXXXXXXXXXXXXXX  ......oo..XXXXXXXXXXooooXXXXXX..  ooXXXX",
"  XX..............  XX  ......oo..XXXXXXXXXXooooXXXXXX..  ooXXXX",
"  XX..............  XX  ......oo..XXXXXXXXXXooooXXXXXX..  ooXXXX",
"  ..............  ..XX  ......oo..XXXXXXXXXXooooXXXXXX..  ooXXXX",
"  ..............  ..XX  ......oo..XXXXXXXXXXooooXXXXXX..  ooXXXX",
"                ....XX  ......oo..XXXXXXXXXXooooXXXXXX..  ooXXXX",
"                ....XX  ......oo..XXXXXXXXXXooooXXXXXX..  ooXXXX",
"............    ....XX  ......oo..XXXXXXXXXXooooXXXXXX..  ooXXXX",
"............    ....XX  ......oo..XXXXXXXXXXooooXXXXXX..  ooXXXX",
"..........  ..  ....XX  ......oo..XXXXXXXXXXooooXXXXXX..  ooXXXX",
"..........  ..  ....XX  ......oo..XXXXXXXXXXooooXXXXXX..  ooXXXX",
"          ....  ....XX  ......oo..XXXXXXXXXXooooXXXXXX..  ooXXXX",
"          ....  ....XX  ......oo..XXXXXXXXXXooooXXXXXX..  ooXXXX",
"......    ....  ....XX  ......oo..XXXXXXXXXXooooXXXXXX..  ooXXXX",
"......    ....  ....XX  ......oo..XXXXXXXXXXooooXXXXXX..  ooXXXX",
"....  ..  ....  ....XX  ......oo..XXXXXXXXXXooooXXXXXX..  ooXXXX",
"....  ..  ....  ....XX  ......oo..XXXXXXXXXXooooXXXXXX..  ooXXXX",
"    ....  ....  ..XXoo  ......oo..XXoooooooo..ooXXXXXX..  ooXXXX",
"    ....  ....  ..XXoo  ......oo..XXoooooooo..ooXXXXXX..  ooXXXX",
"    ....  ....      ..  ......oo............ooooXXXXXX..  ooXXXX",
"    ....  ....      ..  ......oo............ooooXXXXXX..  ooXXXX"
};
