/* XPM */
static char *d2FsbF9u[] = {
/* columns rows colors chars-per-pixel */
"64 64 4 1 ",
"  c black",
". c #004F08",
"X c #008F32",
"o c #45E082",
/* pixels */
"XXXXXXXXXXXXXXXXXXXXXXXXXXXXXXXXXXXXXXXXXXXXXXXXXXXXXXXXXXXXXXXX",
"XXXXXXXXXXXXXXXXXXXXXXXXXXXXXXXXXXXXXXXXXXXXXXXXXXXXXXXXXXXXXXXX",
"XXXXXXXXXXXXXXXXXXXXXXXXXXXXXXXXXXXXXXXXXXXXXXXXXXXXXXXXXXXXXXXX",
"XXXXXXXXXXXXXXXXXXXXXXXXXXXXXXXXXXXXXXXXXXXXXXXXXXXXXXXXXXXXXXXX",
"oooooooooooooooooooooooooooooooooooooooooooooooooooooooooooooooo",
"oooooooooooooooooooooooooooooooooooooooooooooooooooooooooooooooo",
"                                                                ",
"                                                                ",
"................................................................",
"................................................................",
"XXXXXXXXXXXXXXXXXXXXXXXXXXXXXXXXXXXXXXXXXXXXXXXXXXXXXXXXXXXXXXXX",
"XXXXXXXXXXXXXXXXXXXXXXXXXXXXXXXXXXXXXXXXXXXXXXXXXXXXXXXXXXXXXXXX",
"XXXXXXXXXXXXXXXXXXXXXXXXXXXXXXXXXXXXXXXXXXXXXXXXXXXXXXXXXXXXXXXX",
"XXXXXXXXXXXXXXXXXXXXXXXXXXXXXXXXXXXXXXXXXXXXXXXXXXXXXXXXXXXXXXXX",
"XXXXXXXXXXXXXXXXXXXXXXXXXXXXXXXXXXXXXXXXXXXXXXXXXXXXXXXXXXXXXXXX",
"XXXXXXXXXXXXXXXXXXXXXXXXXXXXXXXXXXXXXXXXXXXXXXXXXXXXXXXXXXXXXXXX",
"oooooooooooooooooooooooooooooooooooooooooooooooooooooooooooooooo",
"oooooooooooooooooooooooooooooooooooooooooooooooooooooooooooooooo",
"oooooooooooo..oooooooooooooooooooooooooooooo..oooooooooooooooooo",
"oooooooooooo..oooooooooooooooooooooooooooooo..oooooooooooooooooo",
"XXXXXXXXXXXXoo..XXXXXXXXXXXXXXXXXXXXXXXXXXXXoo..XXXXXXXXXXXXXXXX",
"XXXXXXXXXXXXoo..XXXXXXXXXXXXXXXXXXXXXXXXXXXXoo..XXXXXXXXXXXXXXXX",
"XXXXXXXXXXXXoo..XXXXXXXXXXXXXXXXXXXXXXXXXXXXoo..XXXXXXXXXXXXXXXX",
"XXXXXXXXXXXXoo..XXXXXXXXXXXXXXXXXXXXXXXXXXXXoo..XXXXXXXXXXXXXXXX",
"XXXXXXXXXXXXoo..XXXXXXXXXXXXXXXXXXXXXXXXXXXXoo..XXXXXXXXXXXXXXXX",
"XXXXXXXXXXXXoo..XXXXXXXXXXXXXXXXXXXXXXXXXXXXoo..XXXXXXXXXXXXXXXX",
"XXXXXXXXXXXXoo..XXXXXXXXXXXXXXXXXXXXXXXXXXXXoo..XXXXXXXXXXXXXXXX",
"XXXXXXXXXXXXoo..XXXXXXXXXXXXXXXXXXXXXXXXXXXXoo..XXXXXXXXXXXXXXXX",
"XXXXXXXXXXXXXX..XXXXXXXXXXXXXXXXXXXXXXXXXXXXXX..XXXXXXXXXXXXXXXX",
"XXXXXXXXXXXXXX..XXXXXXXXXXXXXXXXXXXXXXXXXXXXXX..XXXXXXXXXXXXXXXX",
"................................................................",
"................................................................",
"oooooooooooooooooooooooooooo..XXoooooooooooooooooooooooooooo..XX",
"oooooooooooooooooooooooooooo..XXoooooooooooooooooooooooooooo..XX",
"............................oo  ............................oo  ",
"............................oo  ............................oo  ",
"............................oo  ............................oo  ",
"............................oo  ............................oo  ",
"............................XX  ............................XX  ",
"............................XX  ............................XX  ",
"                                                                ",
"                                                                ",
"XXXXXXXXXXXXoo..XXXXXXXXXXXXXXXXXXXXXXXXXXXXoo..XXXXXXXXXXXXXXXX",
"XXXXXXXXXXXXoo..XXXXXXXXXXXXXXXXXXXXXXXXXXXXoo..XXXXXXXXXXXXXXXX",
"............XX  ............................XX  ................",
"............XX  ............................XX  ................",
"..............  ..............................  ................",
"..............  ..............................  ................",
"                                                                ",
"                                                                ",
"..............  ..............  ..............  ..............  ",
"..............  ..............  ..............  ..............  ",
"..............  ..............  ..............  ..............  ",
"..............  ..............  ..............  ..............  ",
"                                                                ",
"                                                                ",
"................................................................",
"................................................................",
"................................................................",
"................................................................",
"                                                                ",
"                                                                ",
"                                                                ",
"                                                                "
};
