/* XPM */
static char *_975cc03e32b414ecb33f01f7de4c50a5PHH94zzjq3GsFlX[] = {
/* columns rows colors chars-per-pixel */
"64 64 4 1 ",
"  c black",
". c #004F08",
"X c #008F32",
"o c #45E082",
/* pixels */
"    ....  ....  ....XX  ......oo..XXXXXXXXXXooooXXXXXX..  ooXXXX",
"    ....  ....  ....XX  ......oo..XXXXXXXXXXooooXXXXXX..  ooXXXX",
"    ....  ....  ....XX  ......oo..XXXXXXXXXXooooXXXXXX..  ooXXXX",
"    ....  ....  ....XX  ......oo..XXXXXXXXXXooooXXXXXX..  ooXXXX",
"    ....  ....  ....XX  ......oo..XXXXXXXXXXooooXXXXXX..  ooXXXX",
"    ....  ....  ....XX  ......oo..XXXXXXXXXXooooXXXXXX..  ooXXXX",
"    ....  ....  ....XX  ......oo..XXXXXXXXXXooooXXXXXX..  ooXXXX",
"    ....  ....  ....XX  ......oo..XXXXXXXXXXooooXXXXXX..  ooXXXX",
"    ....  ....  ....XX  ......oo..XXXXXXXXXXooooXXXXXX..  ooXXXX",
"    ....  ....  ....XX  ......oo..XXXXXXXXXXooooXXXXXX..  ooXXXX",
"    ....  ....  ....XX  ......oo..XXXXXXXXXXooooXXXXXX..  ooXXXX",
"    ....  ....  ....XX  ......oo..XXXXXXXXXXooooXXXXXX..  ooXXXX",
"    ....  ....  ..XXoo  ......oo..XXoooooooo..ooXXXXXX..  ooXXXX",
"    ....  ....  ..XXoo  ......oo..XXoooooooo..ooXXXXXX..  ooXXXX",
"    ....            ..  ......oo............ooooXXXXXX..  ooXXXX",
"    ....            ..  ......oo............ooooXXXXXX..  ooXXXX",
"    ....  ....  ....XX  ......oo..XXXXXXXXXXooooXXXXXX..  ooXXXX",
"    ....  ....  ....XX  ......oo..XXXXXXXXXXooooXXXXXX..  ooXXXX",
"    ....  ....  ....XX  ......oo..XXXXXXXXXXooooXXXXXX..  ooXXXX",
"    ....  ....  ....XX  ......oo..XXXXXXXXXXooooXXXXXX..  ooXXXX",
"    ....  ....  ....XX  ......oo..XXXXXXXXXXooooXXXXXX..  ooXXXX",
"    ....  ....  ....XX  ......oo..XXXXXXXXXXooooXXXXXX..  ooXXXX",
"    ....  ....  ....XX  ......oo..XXXXXXXXXXooooXXXXXX..  ooXXXX",
"    ....  ....  ....XX  ......oo..XXXXXXXXXXooooXXXXXX..  ooXXXX",
"    ....  ....  ....XX  ......oo..XXXXXXXXXXooooXXXXXX..  ooXXXX",
"    ....  ....  ....XX  ......oo..XXXXXXXXXXooooXXXXXX..  ooXXXX",
"    ....  ....  ....XX  ......oo..XXXXXXXXXXooooXXXXXX..  ooXXXX",
"    ....  ....  ....XX  ......oo..XXXXXXXXXXooooXXXXXX..  ooXXXX",
"    ....  ....  ....XX  XXoooo....XXXXXXXXXXooooXXXXXX..  ooXXXX",
"    ....  ....  ....XX  XXoooo....XXXXXXXXXXooooXXXXXX..  ooXXXX",
"    ....        ....XX        XX..XXXXXXXXXXooooXXXXXX..  ooXXXX",
"    ....        ....XX        XX..XXXXXXXXXXooooXXXXXX..  ooXXXX",
"    ....  ....  ....XX  ......oo..XXXXXXXXXXooooXXXXXX..  ooXXXX",
"    ....  ....  ....XX  ......oo..XXXXXXXXXXooooXXXXXX..  ooXXXX",
"    ....  ....  ....XX  ......oo..XXXXXXXXXXooooXXXXXX..  ooXXXX",
"    ....  ....  ....XX  ......oo..XXXXXXXXXXooooXXXXXX..  ooXXXX",
"    ....  ....  ....XX  ......oo..XXXXXXXXXXooooXXXXXX..  ooXXXX",
"    ....  ....  ....XX  ......oo..XXXXXXXXXXooooXXXXXX..  ooXXXX",
"    ....  ....  ....XX  ......oo..XXXXXXXXXXooooXXXXXX..  ooXXXX",
"    ....  ....  ....XX  ......oo..XXXXXXXXXXooooXXXXXX..  ooXXXX",
"    ....  ....  ....XX  ......oo..XXXXXXXXXXooooXXXXXX..  ooXXXX",
"    ....  ....  ....XX  ......oo..XXXXXXXXXXooooXXXXXX..  ooXXXX",
"    ....  ....  ....XX  ......oo..XXXXXXXXXXooooXXXXXX..  ooXXXX",
"    ....  ....  ....XX  ......oo..XXXXXXXXXXooooXXXXXX..  ooXXXX",
"    ....  ....  ..XXoo  ......oo..XXoooooooo..ooXXXXXX..  ooXXXX",
"    ....  ....  ..XXoo  ......oo..XXoooooooo..ooXXXXXX..  ooXXXX",
"    ....            ..  ......oo............ooooXXXXXX..  ooXXXX",
"    ....            ..  ......oo............ooooXXXXXX..  ooXXXX",
"    ....  ....  ....XX  ......oo..XXXXXXXXXXooooXXXXXX..  ooXXXX",
"    ....  ....  ....XX  ......oo..XXXXXXXXXXooooXXXXXX..  ooXXXX",
"    ....  ....  ....XX  ......oo..XXXXXXXXXXooooXXXXXX..  ooXXXX",
"    ....  ....  ....XX  ......oo..XXXXXXXXXXooooXXXXXX..  ooXXXX",
"    ....  ....  ....XX  ......oo..XXXXXXXXXXooooXXXXXX..  ooXXXX",
"    ....  ....  ....XX  ......oo..XXXXXXXXXXooooXXXXXX..  ooXXXX",
"    ....  ....  ....XX  ......oo..XXXXXXXXXXooooXXXXXX..  ooXXXX",
"    ....  ....  ....XX  ......oo..XXXXXXXXXXooooXXXXXX..  ooXXXX",
"    ....  ....  ....XX  ......oo..XXXXXXXXXXooooXXXXXX..  ooXXXX",
"    ....  ....  ....XX  ......oo..XXXXXXXXXXooooXXXXXX..  ooXXXX",
"    ....  ....  ....XX  ......oo..XXXXXXXXXXooooXXXXXX..  ooXXXX",
"    ....  ....  ....XX  ......oo..XXXXXXXXXXooooXXXXXX..  ooXXXX",
"    ....  ....  ....XX  XXoooo....XXXXXXXXXXooooXXXXXX..  ooXXXX",
"    ....  ....  ....XX  XXoooo....XXXXXXXXXXooooXXXXXX..  ooXXXX",
"    ....        ....XX        XX..XXXXXXXXXXooooXXXXXX..  ooXXXX",
"    ....        ....XX        XX..XXXXXXXXXXooooXXXXXX..  ooXXXX"
};
