/* XPM */
static char *wall_w1677491195[] = {
/* columns rows colors chars-per-pixel */
"64 64 4 1 ",
"  c black",
". c #004F08",
"X c #008F32",
"o c #45E082",
/* pixels */
"XXXXoo  ..XXXXXXooooXXXXXXXXXX..XX        XX....        ....    ",
"XXXXoo  ..XXXXXXooooXXXXXXXXXX..XX        XX....        ....    ",
"XXXXoo  ..XXXXXXooooXXXXXXXXXX....ooooXX  XX....  ....  ....    ",
"XXXXoo  ..XXXXXXooooXXXXXXXXXX....ooooXX  XX....  ....  ....    ",
"XXXXoo  ..XXXXXXooooXXXXXXXXXX..oo......  XX....  ....  ....    ",
"XXXXoo  ..XXXXXXooooXXXXXXXXXX..oo......  XX....  ....  ....    ",
"XXXXoo  ..XXXXXXooooXXXXXXXXXX..oo......  XX....  ....  ....    ",
"XXXXoo  ..XXXXXXooooXXXXXXXXXX..oo......  XX....  ....  ....    ",
"XXXXoo  ..XXXXXXooooXXXXXXXXXX..oo......  XX....  ....  ....    ",
"XXXXoo  ..XXXXXXooooXXXXXXXXXX..oo......  XX....  ....  ....    ",
"XXXXoo  ..XXXXXXooooXXXXXXXXXX..oo......  XX....  ....  ....    ",
"XXXXoo  ..XXXXXXooooXXXXXXXXXX..oo......  XX....  ....  ....    ",
"XXXXoo  ..XXXXXXooooXXXXXXXXXX..oo......  XX....  ....  ....    ",
"XXXXoo  ..XXXXXXooooXXXXXXXXXX..oo......  XX....  ....  ....    ",
"XXXXoo  ..XXXXXXooooXXXXXXXXXX..oo......  XX....  ....  ....    ",
"XXXXoo  ..XXXXXXooooXXXXXXXXXX..oo......  XX....  ....  ....    ",
"XXXXoo  ..XXXXXXoooo............oo......  ..            ....    ",
"XXXXoo  ..XXXXXXoooo............oo......  ..            ....    ",
"XXXXoo  ..XXXXXXoo..ooooooooXX..oo......  ooXX..  ....  ....    ",
"XXXXoo  ..XXXXXXoo..ooooooooXX..oo......  ooXX..  ....  ....    ",
"XXXXoo  ..XXXXXXooooXXXXXXXXXX..oo......  XX....  ....  ....    ",
"XXXXoo  ..XXXXXXooooXXXXXXXXXX..oo......  XX....  ....  ....    ",
"XXXXoo  ..XXXXXXooooXXXXXXXXXX..oo......  XX....  ....  ....    ",
"XXXXoo  ..XXXXXXooooXXXXXXXXXX..oo......  XX....  ....  ....    ",
"XXXXoo  ..XXXXXXooooXXXXXXXXXX..oo......  XX....  ....  ....    ",
"XXXXoo  ..XXXXXXooooXXXXXXXXXX..oo......  XX....  ....  ....    ",
"XXXXoo  ..XXXXXXooooXXXXXXXXXX..oo......  XX....  ....  ....    ",
"XXXXoo  ..XXXXXXooooXXXXXXXXXX..oo......  XX....  ....  ....    ",
"XXXXoo  ..XXXXXXooooXXXXXXXXXX..oo......  XX....  ....  ....    ",
"XXXXoo  ..XXXXXXooooXXXXXXXXXX..oo......  XX....  ....  ....    ",
"XXXXoo  ..XXXXXXooooXXXXXXXXXX..oo......  XX....  ....  ....    ",
"XXXXoo  ..XXXXXXooooXXXXXXXXXX..oo......  XX....  ....  ....    ",
"XXXXoo  ..XXXXXXooooXXXXXXXXXX..XX        XX....        ....    ",
"XXXXoo  ..XXXXXXooooXXXXXXXXXX..XX        XX....        ....    ",
"XXXXoo  ..XXXXXXooooXXXXXXXXXX....ooooXX  XX....  ....  ....    ",
"XXXXoo  ..XXXXXXooooXXXXXXXXXX....ooooXX  XX....  ....  ....    ",
"XXXXoo  ..XXXXXXooooXXXXXXXXXX..oo......  XX....  ....  ....    ",
"XXXXoo  ..XXXXXXooooXXXXXXXXXX..oo......  XX....  ....  ....    ",
"XXXXoo  ..XXXXXXooooXXXXXXXXXX..oo......  XX....  ....  ....    ",
"XXXXoo  ..XXXXXXooooXXXXXXXXXX..oo......  XX....  ....  ....    ",
"XXXXoo  ..XXXXXXooooXXXXXXXXXX..oo......  XX....  ....  ....    ",
"XXXXoo  ..XXXXXXooooXXXXXXXXXX..oo......  XX....  ....  ....    ",
"XXXXoo  ..XXXXXXooooXXXXXXXXXX..oo......  XX....  ....  ....    ",
"XXXXoo  ..XXXXXXooooXXXXXXXXXX..oo......  XX....  ....  ....    ",
"XXXXoo  ..XXXXXXooooXXXXXXXXXX..oo......  XX....  ....  ....    ",
"XXXXoo  ..XXXXXXooooXXXXXXXXXX..oo......  XX....  ....  ....    ",
"XXXXoo  ..XXXXXXooooXXXXXXXXXX..oo......  XX....  ....  ....    ",
"XXXXoo  ..XXXXXXooooXXXXXXXXXX..oo......  XX....  ....  ....    ",
"XXXXoo  ..XXXXXXoooo............oo......  ..            ....    ",
"XXXXoo  ..XXXXXXoooo............oo......  ..            ....    ",
"XXXXoo  ..XXXXXXoo..ooooooooXX..oo......  ooXX..  ....  ....    ",
"XXXXoo  ..XXXXXXoo..ooooooooXX..oo......  ooXX..  ....  ....    ",
"XXXXoo  ..XXXXXXooooXXXXXXXXXX..oo......  XX....  ....  ....    ",
"XXXXoo  ..XXXXXXooooXXXXXXXXXX..oo......  XX....  ....  ....    ",
"XXXXoo  ..XXXXXXooooXXXXXXXXXX..oo......  XX....  ....  ....    ",
"XXXXoo  ..XXXXXXooooXXXXXXXXXX..oo......  XX....  ....  ....    ",
"XXXXoo  ..XXXXXXooooXXXXXXXXXX..oo......  XX....  ....  ....    ",
"XXXXoo  ..XXXXXXooooXXXXXXXXXX..oo......  XX....  ....  ....    ",
"XXXXoo  ..XXXXXXooooXXXXXXXXXX..oo......  XX....  ....  ....    ",
"XXXXoo  ..XXXXXXooooXXXXXXXXXX..oo......  XX....  ....  ....    ",
"XXXXoo  ..XXXXXXooooXXXXXXXXXX..oo......  XX....  ....  ....    ",
"XXXXoo  ..XXXXXXooooXXXXXXXXXX..oo......  XX....  ....  ....    ",
"XXXXoo  ..XXXXXXooooXXXXXXXXXX..oo......  XX....  ....  ....    ",
"XXXXoo  ..XXXXXXooooXXXXXXXXXX..oo......  XX....  ....  ....    "
};
