/* XPM */
static char *wall_s1677491195[] = {
/* columns rows colors chars-per-pixel */
"64 64 4 1 ",
"  c black",
". c #004F08",
"X c #008F32",
"o c #45E082",
/* pixels */
"                                                                ",
"                                                                ",
"                                                                ",
"                                                                ",
"................................................................",
"................................................................",
"................................................................",
"................................................................",
"                                                                ",
"                                                                ",
"  ..............  ..............  ..............  ..............",
"  ..............  ..............  ..............  ..............",
"  ..............  ..............  ..............  ..............",
"  ..............  ..............  ..............  ..............",
"                                                                ",
"                                                                ",
"................  ..............................  ..............",
"................  ..............................  ..............",
"................  XX............................  XX............",
"................  XX............................  XX............",
"XXXXXXXXXXXXXXXX..ooXXXXXXXXXXXXXXXXXXXXXXXXXXXX..ooXXXXXXXXXXXX",
"XXXXXXXXXXXXXXXX..ooXXXXXXXXXXXXXXXXXXXXXXXXXXXX..ooXXXXXXXXXXXX",
"                                                                ",
"                                                                ",
"  XX............................  XX............................",
"  XX............................  XX............................",
"  oo............................  oo............................",
"  oo............................  oo............................",
"  oo............................  oo............................",
"  oo............................  oo............................",
"XX..ooooooooooooooooooooooooooooXX..oooooooooooooooooooooooooooo",
"XX..ooooooooooooooooooooooooooooXX..oooooooooooooooooooooooooooo",
"................................................................",
"................................................................",
"XXXXXXXXXXXXXXXX..XXXXXXXXXXXXXXXXXXXXXXXXXXXXXX..XXXXXXXXXXXXXX",
"XXXXXXXXXXXXXXXX..XXXXXXXXXXXXXXXXXXXXXXXXXXXXXX..XXXXXXXXXXXXXX",
"XXXXXXXXXXXXXXXX..ooXXXXXXXXXXXXXXXXXXXXXXXXXXXX..ooXXXXXXXXXXXX",
"XXXXXXXXXXXXXXXX..ooXXXXXXXXXXXXXXXXXXXXXXXXXXXX..ooXXXXXXXXXXXX",
"XXXXXXXXXXXXXXXX..ooXXXXXXXXXXXXXXXXXXXXXXXXXXXX..ooXXXXXXXXXXXX",
"XXXXXXXXXXXXXXXX..ooXXXXXXXXXXXXXXXXXXXXXXXXXXXX..ooXXXXXXXXXXXX",
"XXXXXXXXXXXXXXXX..ooXXXXXXXXXXXXXXXXXXXXXXXXXXXX..ooXXXXXXXXXXXX",
"XXXXXXXXXXXXXXXX..ooXXXXXXXXXXXXXXXXXXXXXXXXXXXX..ooXXXXXXXXXXXX",
"XXXXXXXXXXXXXXXX..ooXXXXXXXXXXXXXXXXXXXXXXXXXXXX..ooXXXXXXXXXXXX",
"XXXXXXXXXXXXXXXX..ooXXXXXXXXXXXXXXXXXXXXXXXXXXXX..ooXXXXXXXXXXXX",
"oooooooooooooooooo..oooooooooooooooooooooooooooooo..oooooooooooo",
"oooooooooooooooooo..oooooooooooooooooooooooooooooo..oooooooooooo",
"oooooooooooooooooooooooooooooooooooooooooooooooooooooooooooooooo",
"oooooooooooooooooooooooooooooooooooooooooooooooooooooooooooooooo",
"XXXXXXXXXXXXXXXXXXXXXXXXXXXXXXXXXXXXXXXXXXXXXXXXXXXXXXXXXXXXXXXX",
"XXXXXXXXXXXXXXXXXXXXXXXXXXXXXXXXXXXXXXXXXXXXXXXXXXXXXXXXXXXXXXXX",
"XXXXXXXXXXXXXXXXXXXXXXXXXXXXXXXXXXXXXXXXXXXXXXXXXXXXXXXXXXXXXXXX",
"XXXXXXXXXXXXXXXXXXXXXXXXXXXXXXXXXXXXXXXXXXXXXXXXXXXXXXXXXXXXXXXX",
"XXXXXXXXXXXXXXXXXXXXXXXXXXXXXXXXXXXXXXXXXXXXXXXXXXXXXXXXXXXXXXXX",
"XXXXXXXXXXXXXXXXXXXXXXXXXXXXXXXXXXXXXXXXXXXXXXXXXXXXXXXXXXXXXXXX",
"................................................................",
"................................................................",
"                                                                ",
"                                                                ",
"oooooooooooooooooooooooooooooooooooooooooooooooooooooooooooooooo",
"oooooooooooooooooooooooooooooooooooooooooooooooooooooooooooooooo",
"XXXXXXXXXXXXXXXXXXXXXXXXXXXXXXXXXXXXXXXXXXXXXXXXXXXXXXXXXXXXXXXX",
"XXXXXXXXXXXXXXXXXXXXXXXXXXXXXXXXXXXXXXXXXXXXXXXXXXXXXXXXXXXXXXXX",
"XXXXXXXXXXXXXXXXXXXXXXXXXXXXXXXXXXXXXXXXXXXXXXXXXXXXXXXXXXXXXXXX",
"XXXXXXXXXXXXXXXXXXXXXXXXXXXXXXXXXXXXXXXXXXXXXXXXXXXXXXXXXXXXXXXX"
};
