/* XPM */
static char *result[] = {
/* columns rows colors chars-per-pixel */
"32 32 6 1 ",
"  c #18190E",
". c #2B2513",
"X c #05313C",
"o c #084009",
"O c #0D697A",
"+ c #118026",
/* pixels */
"XXXXXOOOOOOXXXOXXXXXXOOOOOOXXXOX",
"XOOXXXXX                XXXXXOOX",
"XOXXX   O XXOOOOOOOOXX O   XXXXX",
"XXXX XOOOXoOOXXXXXXOOXXOOOX XXXX",
"XXX XOOOXX XXXXXXXXXX XXOOOX XXX",
"XX XOOXXXX XooooooooX XXXXOOX XX",
"XX OOXXXXo X        o oXXXXOO XX",
"XX oOXXXX              oXXXOo XX",
"XX OoXXo                oXXoO XX",
"XX OOoo                  ooOO XX",
"XX OOX                    XOO XX",
"OX OOXo                  oXOO XO",
"XX XOXo                  oXOX XX",
"XX oXXo                  oXXo XX",
"XX OoXo                  oXoO XX",
"OX OOoo                  ooOO XX",
"XX OOX    oooooooooooo    XOO XX",
"XX OOXo                  oXOO XX",
"XX XXXo  ++++++++++++++  oXXX XX",
"XX ooXo  oo ooo  ooo oo  oXoo XX",
"XX OXoo                  ooXO XX",
"XX OOX  ++++++++++++++++  XOO XX",
"XX OOOX  oo    oo    oo  XOOO XX",
"XX OXOO  .oo  oooo  ooo  OOXO XX",
"XX XOOOo++++++++++++++++oOOOX XX",
"XX XOOOOOX++++++++++++XOOOOOX XX",
"XX XXOXOOOOOOOXXXXOOOOOOOXOXX XX",
"OXX XXOOOOXOOOOOOOOOOXOOOOXX XXO",
"XOXX XXXXXOXOOXXXXOOXOXXXXX XXOX",
"XOOXX    XXXXX    XXXXX    XXOOX",
"XOOOXXXXX     XXXX     XXXXXOOOX",
"OXXOOXXXXXXOXXXXOXXOOXXXXXXOXXXX"
};
