/* XPM */
static char *result[] = {
/* columns rows colors chars-per-pixel */
"32 32 23 1 ",
"  c black",
". c #202720",
"X c #480800",
"o c #60472F",
"O c #183840",
"+ c #00404D",
"@ c #2E6B7A",
"# c #806F3F",
"$ c #C27848",
"% c #408000",
"& c #6FAF10",
"* c #FFA400",
"= c #E9982D",
"- c yellow",
"; c #FABF57",
": c #F0A860",
"> c #F0E579",
", c #007C8D",
"< c #808080",
"1 c #F8D8B0",
"2 c #BCDEE6",
"3 c #D1DCC3",
"4 c #F8F8F8",
/* pixels */
"+++++,,,,,,+++,++++++,,,,,,+++,+",
"++++,,,++++,++++++++,,,++++,++++",
"+++,+,++++++,++++++,+,++++++,+++",
"++,+++++++++,,++++,+++++++++,,++",
"+,,++,,+++++    +,,++,,+++++++,+",
"+,++++,+++  &&&&  ++++,+++++++,+",
"+,+++++++ &%%  %%& ++++++++,++,+",
"+,++++++   ;;>>>;%& +++++++,++,+",
"+,++++++ ;>>>>>>>;% ++++++++++,+",
"+,+++++ ;>>>;=;>>>    +,,+++++,+",
"+,+++++ >>;====;>>>;;;  ,+++++,+",
",+,,+++ =;==  ==>>>>;  +++++,,+,",
"+,+,+++ === $$  ;>;;===  +++,+,+",
"+,,+,,XX = $:::$ ==;== ++++,+,,+",
"+++,++X:1 $XX111X       ,+,+,+++",
",++,,++X > 2@111@2: XX+++++,++++",
"+++++,,, ; 4O111O4X++,,,,,,+++,+",
"++++,,,++ X$:111:$X+,,,++++,++++",
"+++,+,++++ X$:::$X ,+,++++++,+++",
"++,++++++ 3&XXXXX&3 ++++++++,,++",
"+,,++,,++ 3 &333& 3 +,,+++++++,+",
"+,++++,+ o< %&&&% <3 +,+++++++,+",
"+,++++++ 1 ####### o ++++++,++,+",
"+,++++++   oo#-#oo 1 ++++++,++,+",
"+,++++++++ %%o*o%%   +++++++++,+",
"+,+++++,,+. %%%%   .+++,,+++++,+",
"+,+++++,,        .# +++,,+++++,+",
",+,,+++++.ooo....oo.++++++++,,+,",
"+,+,++++++...+,+ ..,++++++++,+,+",
"+,,+,,+++++,+,,++,,+,,+++++,+,,+",
"+++,++,,,+,+,++++++,++,,,+,+,+++",
",++,,++++++,++++,++,,++++++,++++"
};
