/* XPM */
static char *result[] = {
/* columns rows colors chars-per-pixel */
"32 32 16 1 ",
"  c black",
". c #202720",
"X c #480800",
"o c #60472F",
"O c #00404D",
"+ c #806F3F",
"@ c #408000",
"# c #6FAF10",
"$ c #E9982D",
"% c #FABF57",
"& c #F0A860",
"* c #F0E579",
"= c #007C8D",
"- c #808080",
"; c #F8D8B0",
": c #D1DCC3",
/* pixels */
"OOOOO======OOO=OOOOOO======OOO=O",
"OOOO===OOOO=OOOOOOOO===OOOO=OOOO",
"OOO=O=OOOOOO=OOOOOO=O=OOOOOO=OOO",
"OO=OOOOOOOOO==OOOO=OOOOOOOOO==OO",
"O==OO==OOOOOOO=    OO==OOOOOOO=O",
"O=OOOO=OOOOOO  @##@  O=OOOOOOO=O",
"O=OOOOOOOOO= @######@ OOOOO=OO=O",
"O=OOOOOOOOO @########@ OOOO=OO=O",
"O=OOOOOOO   @########@ OOOOOOO=O",
"O=OOOOO  %% ######### % =OOOOO=O",
"O=OOOOO=  % ######### * =OOOOO=O",
"=O==OO  $$$ ######### $ OOOO==O=",
"O=O=OOOO $$ @#######@ $ OOOO=O=O",
"O==O==O    $ @#####@ $ XXOO=O==O",
"OOO=OO==X&;  @#####@  ;&XO=O=OOO",
"=OO==OOOOXX & @###@ .* XOOO=OOOO",
"OOOOO======OX @@#@@ .% ====OOO=O",
"OOOO===OOOO=X$ @@@ $X =OOOO=OOOO",
"OOO=O=OOOOOO X @@@ X =OOOOOO=OOO",
"OO=OOOOOOOO :#X @ X#: OOOOOO==OO",
"O==OO==OOOO : ## ## : =OOOOOOO=O",
"O=OOOO=OOO :-@@###@@-o OOOOOOO=O",
"O=OOOOOOOO o ++###++ ; OOOO=OO=O",
"O=OOOOOOOO ; oo+++oo   OOOO=OO=O",
"O=OOOOOOOO   @@ooo@@ OOOOOOOOO=O",
"O=OOOOO==OO.   @@@   .O==OOOOO=O",
"O=OOOOO==OO +.        O==OOOOO=O",
"=O==OOOOOOO.oo....ooo.OOOOOO==O=",
"O=O=OOOOOOOO.. OO=...OOOOOOO=O=O",
"O==O==OOOOO=O==OO==O==OOOOO=O==O",
"OOO=OO===O=O=OOOOOO=OO===O=O=OOO",
"=OO==OOOOOO=OOOO=OO==OOOOOO=OOOO"
};
