/* XPM */
static char *result[] = {
/* columns rows colors chars-per-pixel */
"32 32 22 1 ",
"  c black",
". c #202720",
"X c #480800",
"o c #60472F",
"O c #183840",
"+ c #00404D",
"@ c #2E6B7A",
"# c #806F3F",
"$ c #C27848",
"% c #408000",
"& c #6FAF10",
"* c #FFA400",
"= c #E9982D",
"- c yellow",
"; c #FABF57",
": c #F0A860",
"> c #F0E579",
", c #007C8D",
"< c #F8D8B0",
"1 c #BCDEE6",
"2 c #D1DCC3",
"3 c #F8F8F8",
/* pixels */
"+++++,,,,,,+++,++++++,,,,,,+++,+",
"++++,,,++++,++++++++,,,++++,++++",
"+++,+,++++++,++++++,+,++++++,+++",
"++,+++++++++,,+    +++++++++,,++",
"+,,++,,+++++   &&&&  ,,+++++++,+",
"+,++++,++ + &&&%%%&&& ,+++++++,+",
"+,+++++  ; %%%%  %%&&& ++++,++,+",
"+,++++++  ;   ;;;  %&& ++++,++,+",
"+,++++  =;>>>>>>>>; %&& ++++++,+",
"+,+++++, =;>;>>;;>>> %& ,+++++,+",
"+,+++++   =;=====;>>; && +++++,+",
",+,,++++  ===    ==;> && +++,,+,",
"+,+,++++++   :::$ === && +++,+,+",
"+,,+,,++++X$:XX<: XXXX&& ++,+,,+",
"+++,++,,,+X:<@1<<: <:X&% +,+,+++",
",++,,+++++X<<O3<< > X>%% ++,++++",
"+++++,,,,,X$$<<<: ; > %% ,,+++,+",
"++++,,,++++XX$:$$X : %% +++,++++",
"+++,+,++++++,XXXXX X  % ++++,+++",
"++,+++++++++, &.&   +  +++++,,++",
"+,,++,,++++++ &.2.& +, +++++++,+",
"+,++++,+++++ -&&.2. ++,+++++++,+",
"+,+++++++++, *##.o. +++++++,++,+",
"+,+++++++++, ooo.<. +++++++,++,+",
"+,++++++++++ %%%... ++++++++++,+",
"+,+++++,,+++   %&%  +++,,+++++,+",
"+,+++++,,+++ ##     +++,,+++++,+",
",+,,++++++++ oooo   ++++++++,,+,",
"+,+,++++++++,    ,+,++++++++,+,+",
"+,,+,,+++++,+,,++,,+,,+++++,+,,+",
"+++,++,,,+,+,++++++,++,,,+,+,+++",
",++,,++++++,++++,++,,++++++,++++"
};
