/* XPM */
static char *result[] = {
/* columns rows colors chars-per-pixel */
"32 32 6 1 ",
"  c #282C28",
". c #00404D",
"X c #489438",
"o c #98D478",
"O c #007C8D",
"+ c #F8FCF8",
/* pixels */
".....OOOOOO...O......OOOOOO...O.",
"....OOO....O........OOO....O....",
"...O.O......O......O.O......O...",
"..O.........OO....O.........OO..",
".OO..OO.......O..OO..OO.......O.",
".O....O.......O..O....O.......O.",
".O.........O..O..O.........O..O.",
".O.........O..O..O.........O..O.",
".O............O..O............O.",
".O.....OO.....O  O.....OO.....O.",
".O.....OO..... oX .....OO.....O.",
"O.OO........O oXXo O........OO.O",
".O.O........ oXXXo  ........O.O.",
".OO.OO.....O oXXoX+ OO.....O.OO.",
"...O..OOO.O. XXooX+ ..OOO.O.O...",
"O..OO......O XXoXX+ O......O....",
".....OOOOOO. XXX+X+ .OOOOOO...O.",
"....OOO....O XX+oX+ OOO....O....",
"...O.O...... XXoX++ .O......O...",
"..O......... XoXX++ ........OO..",
".OO..OO...... ++++ ..OO.......O.",
".O....O....... ++ ....O.......O.",
".O.........O..O  O.........O..O.",
".O.........O..O..O.........O..O.",
".O............O..O............O.",
".O.....OO.....O..O.....OO.....O.",
".O.....OO.....O..O.....OO.....O.",
"O.OO........OO.OO.OO........OO.O",
".O.O........O.O..O.O........O.O.",
".OO.OO.....O.OO..OO.OO.....O.OO.",
"...O..OOO.O.O......O..OOO.O.O...",
"O..OO......O....O..OO......O...."
};
