/* XPM */
static char *result[] = {
/* columns rows colors chars-per-pixel */
"32 32 5 1 ",
"  c #282828",
". c #305030",
"X c #407048",
"o c #80A870",
"O c #C8D0A0",
/* pixels */
"                                ",
" OOooooooooooOO  OOooooooooooOO ",
" ooOooooooooOoX  ooOooooooooOoX ",
" oooOOOOOOOOoXX  oooOOOOOOOOoXX ",
" oooOOOOOOOOXXX  oooOOOOOOOOXXX ",
" oooOOOOOOOOXXX  oooOOOOOOOOXXX ",
" oooOOOOOOOOXXX  oooOOOOOOOOXXX ",
" oooOOOOOOOOXXX  oooOOOOOOOOXXX ",
" oooOOOOOOOOXXX  oooOOOOOOOOXXX ",
" oooOOOOOOOOXXX  oooOOOOOOOOXXX ",
" oooOOOOOOOOXXX  oooOOOOOOOOXXX ",
" ooOoXXXXXXXoXX  ooOoXXXXXXXoXX ",
" oOoXXXXXXXXXoX  oOoXXXXXXXXXoX ",
" OoXXXXXXXXXXXo  OoXXXXXXXXXXXo ",
" ..............  .............. ",
"                                ",
"                                ",
" OOooooooooooOO  OOooooooooooOO ",
" ooOooooooooOoX  ooOooooooooOoX ",
" oooOOOOOOOOoXX  oooOOOOOOOOoXX ",
" oooOOOOOOOOXXX  oooOOOOOOOOXXX ",
" oooOOOOOOOOXXX  oooOOOOOOOOXXX ",
" oooOOOOOOOOXXX  oooOOOOOOOOXXX ",
" oooOOOOOOOOXXX  oooOOOOOOOOXXX ",
" oooOOOOOOOOXXX  oooOOOOOOOOXXX ",
" oooOOOOOOOOXXX  oooOOOOOOOOXXX ",
" oooOOOOOOOOXXX  oooOOOOOOOOXXX ",
" ooOoXXXXXXXoXX  ooOoXXXXXXXoXX ",
" oOoXXXXXXXXXoX  oOoXXXXXXXXXoX ",
" OoXXXXXXXXXXXo  OoXXXXXXXXXXXo ",
" ..............  .............. ",
"                                "
};
